<svg width="30" height="32" viewBox="0 0 30 32" fill="none" xmlns="http://www.w3.org/2000/svg">
<path fill-rule="evenodd" clip-rule="evenodd" d="M18.7714 0.031978C20.9653 0.143222 22.3477 1.48591 22.3477 3.50519C22.3477 4.97799 21.5495 6.05163 20.2771 6.2904C19.5749 6.42219 19.317 6.91069 19.7311 7.32477C19.9686 7.56217 20.1522 7.60844 20.5565 7.53265C21.9272 7.27546 23.3181 5.7914 23.5044 4.38738C23.6528 3.26916 23.7491 3.19398 24.5118 3.60228C25.363 4.05791 25.5343 4.20172 26.0907 4.92778C28.2255 7.71344 27.0987 11.5858 23.8302 12.6964L23.1063 12.9425L22.3084 12.1051C21.6568 11.4209 21.3453 11.22 20.6069 11.008C19.5896 10.7158 19.256 10.814 19.1819 11.4271C19.1444 11.7377 19.229 11.8429 19.6384 11.9941C21.3938 12.643 21.8911 13.1475 21.8911 14.2794C21.8911 15.2397 21.0414 16.3211 20.1461 16.5C19.2234 16.6845 19.1519 16.7323 19.1519 17.1642C19.1519 17.7356 19.6996 17.9957 20.4016 17.7578C21.7155 17.3127 23.1086 15.8078 23.1086 14.8335C23.1086 14.3986 23.2714 14.2666 24.2499 13.9092C24.6684 13.7562 25.319 13.4286 25.6956 13.181C26.471 12.6713 27.5218 11.5814 27.5218 11.2868C27.5218 10.8726 27.9841 11.1206 28.4361 11.7776C29.3993 13.1776 29.7129 14.4509 29.4889 16.0522C29.2055 18.0777 28.0826 19.5719 26.3592 20.2169C25.4278 20.5652 23.736 20.6355 23.2711 20.3452C22.5883 19.9188 22.1868 21.075 22.8637 21.5185C23.4052 21.8734 25.4159 21.8417 26.5447 21.4608C27.0359 21.2949 27.4909 21.1921 27.5559 21.2322C27.7656 21.3617 27.6818 22.2954 27.3693 23.3068C26.8315 25.048 25.5444 26.3931 23.9238 26.9078C23.577 27.018 23.2215 27.0636 23.1337 27.0095C23.046 26.9553 22.8223 26.6066 22.6365 26.2346C22.1307 25.2218 21.4778 24.5043 20.4684 23.8519C19.4868 23.2174 19.1408 23.1404 18.8492 23.4918C18.5244 23.8831 18.7924 24.3836 19.5363 24.7755C20.5618 25.3157 21.537 26.4721 21.8385 27.5059C22.507 29.798 20.8714 32.0339 18.5509 31.9996C17.6295 31.9861 16.7173 31.6058 16.1515 30.9992C15.3332 30.122 15.3474 30.3836 15.3474 16.1181C15.3474 3.57797 15.3442 2.27251 15.8696 1.39817L16.0159 1.17716C16.039 1.14438 16.0629 1.11093 16.0876 1.07624C16.2637 0.829099 16.6998 0.480758 17.057 0.302251C17.5793 0.0412612 17.9145 -0.0115456 18.7714 0.031978Z" fill="#00FFF2"/>
<path fill-rule="evenodd" clip-rule="evenodd" d="M16.0159 1.17716C15.9631 1.25216 15.9144 1.3236 15.8696 1.39817L16.0159 1.17716Z" fill="#00FFF2"/>
<path fill-rule="evenodd" clip-rule="evenodd" d="M12.4241 0.284894C13.2803 0.673563 13.4976 0.908074 13.8425 1.81568C14.1164 2.5364 14.1299 3.20189 14.1299 15.8842C14.1299 26.0489 14.0849 29.3661 13.9397 29.9152C13.2083 32.6792 8.97542 32.6884 7.8225 29.9283C7.46777 29.0793 7.52103 27.7489 7.94623 26.836C8.35148 25.9655 9.48325 24.8879 10.2623 24.6309C10.6045 24.518 10.813 24.3364 10.8725 24.0993C10.9968 23.6038 10.8434 23.4177 10.3103 23.4177C9.30246 23.4177 7.78385 24.6397 6.93757 26.1321C6.68419 26.5788 6.38288 26.9804 6.26798 27.0245C6.06497 27.1024 5.60189 26.9617 4.57847 26.5114C2.88805 25.7675 1.62404 23.2059 1.83983 20.9609C1.90999 20.23 1.87407 20.1207 1.32546 19.3995C-0.283084 17.2847 -0.440743 14.466 0.92462 12.2336C1.66011 11.0313 1.74655 11.0125 2.58613 11.8745C4.30759 13.6419 7.73835 14.294 7.73835 12.8539C7.73835 12.4268 7.48953 12.3085 6.5903 12.3085C5.08097 12.3085 3.35814 11.232 2.7759 9.92522C2.3781 9.03238 2.41173 7.09938 2.84027 6.21658C3.62415 4.60225 4.94279 3.64002 6.44314 3.58751C7.22733 3.55997 7.28135 3.53364 7.28302 3.17769C7.28496 2.75142 7.59412 2.04037 7.97299 1.48309L8.29149 1.0728C8.38115 0.973571 8.47109 0.888092 8.5586 0.821332C8.86037 0.591083 9.36424 0.31107 9.67834 0.199065C10.5047 -0.0958606 11.6651 -0.0596423 12.4241 0.284894ZM9.28039 16.075C9.20141 16.3889 9.09336 16.9004 9.04025 17.2119C8.852 18.3157 7.80896 19.1566 6.62819 19.1566C5.60326 19.1566 5.1178 19.8157 5.79394 20.2893C6.81035 21.0014 9.18117 19.8305 9.98316 18.2204C10.664 16.8535 10.5697 15.5043 9.79324 15.5043C9.4936 15.5043 9.39696 15.6117 9.28039 16.075ZM6.73259 6.45353C6.42686 6.92011 6.52988 8.00257 6.94807 8.71858C7.69224 9.99249 10.0211 10.4833 10.0211 9.36611C10.0211 8.8837 9.74089 8.65619 9.14678 8.65619C8.42757 8.65619 7.89053 8.0881 7.89053 7.32735C7.89053 6.69671 7.54645 6.06912 7.20054 6.06912C7.08169 6.06912 6.87107 6.24215 6.73259 6.45353Z" fill="#00FFF2"/>
<path fill-rule="evenodd" clip-rule="evenodd" d="M8.29149 1.0728C8.18336 1.19247 8.07561 1.33214 7.97299 1.48309L8.29149 1.0728Z" fill="#00FFF2"/>
</svg>
