<svg width="40" height="40" viewBox="0 0 40 40" fill="none" xmlns="http://www.w3.org/2000/svg">
<path fill-rule="evenodd" clip-rule="evenodd" d="M27.2883 0.0376298C25.8983 0.205202 24.3873 0.739837 22.9304 1.57969C22.1474 2.03097 21.1375 2.94549 18.2792 5.79179C16.2713 7.79139 14.3611 9.82064 14.0344 10.3013C13.4792 11.1185 12.5713 12.9129 12.5713 13.1932C12.5713 13.2618 12.1374 13.4508 11.6068 13.6129C10.06 14.0856 9.14453 14.811 5.68061 18.3092C1.57256 22.4579 1.08833 23.1757 0.203167 26.4266C-0.0368776 27.3081 -0.0738847 30.2296 0.144156 31.0863C0.622815 32.9672 1.36181 34.5148 2.38714 35.7836C5.72319 39.9118 11.3741 41.177 15.9819 38.8274C17.5391 38.0334 18.1833 37.4808 21.7159 33.9092C24.9879 30.6011 25.5967 29.828 26.1342 28.2987C26.3937 27.5609 26.4464 27.5079 27.2404 27.1861C29.2087 26.3885 29.2737 26.3366 33.4113 22.2566C38.544 17.1957 38.9952 16.5651 39.8528 13.2581C40.055 12.4787 40.0471 9.67644 39.8403 8.82376C38.7717 4.41673 35.88 1.3765 31.7193 0.285569C30.928 0.0780987 28.2128 -0.0737998 27.2883 0.0376298ZM26.8597 2.51644C26.7418 2.59239 26.5216 2.65551 26.3703 2.6568C26.219 2.65794 25.5438 2.92568 24.87 3.25171C23.7088 3.81356 23.4593 4.02772 20.0947 7.34838C16.7418 10.6578 15.7922 11.7499 15.2517 12.9184C14.6724 14.1708 14.5317 14.8477 14.526 16.4095C14.5161 19.0579 15.2041 20.5457 17.4939 22.8278C18.7374 24.0671 19.8138 24.7223 21.1925 25.0789C22.1867 25.3363 22.4197 25.5982 22.4257 26.4661C22.4293 26.9694 22.354 27.1896 22.0954 27.4319C21.7733 27.7336 21.7306 27.7377 20.988 27.5412C19.9015 27.2537 19.7736 27.2049 18.5724 26.6216C17.677 26.1867 17.194 25.7965 15.6347 24.2476C14.0992 22.7224 13.6835 22.2177 13.2873 21.3968C12.5407 19.85 12.3743 19.2788 12.1251 17.407C12.0311 16.7016 11.9383 16.1037 11.9189 16.0784C11.6521 15.7308 5.05906 22.0669 3.85798 23.825C3.18715 24.8071 2.87409 25.5257 2.49702 26.9489C2.28941 27.733 2.24554 29.8399 2.42472 30.4254C2.48802 30.6322 2.64776 31.1664 2.77978 31.6125C3.36103 33.5787 5.34554 35.8684 7.19303 36.7047C8.67616 37.376 9.30142 37.4986 11.2139 37.4934C13.276 37.4877 14.052 37.2907 15.5387 36.3959C16.5612 35.7803 22.5264 29.9032 23.1788 28.8684C24.179 27.2822 24.6933 25.0014 24.4235 23.3478C24.0804 21.2447 23.4667 20.1205 21.5781 18.1354C20.6091 17.117 18.7282 15.7683 18.2768 15.7683C18.1343 15.7683 17.978 15.7042 17.9294 15.6258C17.8809 15.5474 17.662 15.4833 17.4431 15.4833C17.2242 15.4833 16.9385 15.366 16.8085 15.2227C16.5252 14.9105 16.5002 13.9913 16.7612 13.4884C16.9115 13.1989 17.0381 13.139 17.4378 13.1691C19.1005 13.2941 21.073 14.3629 22.9434 16.1525C24.8423 17.9694 25.8326 19.4421 26.3264 21.183C26.7985 22.8474 26.8597 23.1651 26.8597 23.9521C26.8597 24.7294 26.8735 24.7602 27.1811 24.6641C27.358 24.609 27.7598 24.384 28.0742 24.1644C28.969 23.5389 35.609 16.7847 36.1882 15.9108C37.11 14.5201 37.4669 13.3535 37.5396 11.4935C37.5862 10.303 37.5416 9.59037 37.3765 8.88788C37.1647 7.98746 37.0385 7.67669 36.3523 6.36375C35.9553 5.60427 34.1609 3.92513 33.2088 3.42198C31.6395 2.59296 30.7155 2.37366 28.8007 2.37608C27.851 2.37737 26.9775 2.44049 26.8597 2.51644Z" fill="#00FFF2"/>
</svg>
