<svg width="31" height="34" viewBox="0 0 31 34" fill="none" xmlns="http://www.w3.org/2000/svg">
<path fill-rule="evenodd" clip-rule="evenodd" d="M6.91188 21.9477C6.75364 21.8731 6.09375 21.854 5.38722 21.9062C3.10723 22.0752 1.06673 22.8114 0.280019 23.749C0.00414802 24.0777 -0.0500169 24.261 0.0400647 24.5604C0.232789 25.1997 0.754494 25.3457 1.4904 24.9663C2.45849 24.4673 3.05563 24.2372 3.55392 24.1716C4.00558 24.1123 4.02982 24.1284 6.12252 25.8844C7.39135 26.9491 8.26977 27.616 8.32173 27.554C8.36934 27.4973 8.3271 27.0889 8.22791 26.6465C8.05114 25.8577 8.02812 25.8258 7.03641 24.9937C5.89792 24.0384 5.8811 23.9228 6.86582 23.821L7.48829 23.7567L7.30463 22.9372C7.20352 22.4866 7.03712 22.0475 6.93477 21.9616C6.93373 21.9608 6.93263 21.9599 6.93147 21.959L6.91188 21.9477Z" fill="#00FFF2"/>
<path fill-rule="evenodd" clip-rule="evenodd" d="M6.93147 21.959C6.92618 21.9551 6.91963 21.9513 6.91188 21.9477L6.93147 21.959Z" fill="#00FFF2"/>
<path fill-rule="evenodd" clip-rule="evenodd" d="M30.6317 10.2395C29.7023 11.3137 27.7148 12.4108 25.9832 12.8055C25.1067 13.0052 22.4805 13.2736 22.3634 13.1754C22.3148 13.1345 22.1782 12.6797 22.0597 12.1646C21.8228 11.1342 21.9291 10.9827 22.8439 11.0454C23.5962 11.0971 23.4723 10.7907 22.3651 9.86167L21.3667 9.0239L21.3076 8.24094C21.2752 7.81036 21.3171 7.45199 21.401 7.44445C21.4849 7.43711 22.4829 8.18378 23.6189 9.10385L25.6844 10.7768L26.3077 10.5922C26.6504 10.4906 27.0678 10.3084 27.2349 10.1873L27.539 9.96711L24.5252 7.4382C21.3121 4.74206 21.1567 4.56528 21.452 3.94189C21.4937 3.85374 21.5382 3.78679 21.5987 3.74984L21.6859 3.71965C22.0334 3.67531 22.8282 4.3235 25.3142 6.4825C28.7355 9.45385 28.6147 9.3853 29.5315 8.87639C29.7857 8.73517 30.1188 8.62362 30.2714 8.62829C31.0725 8.65314 31.2638 9.50895 30.6317 10.2395Z" fill="#00FFF2"/>
<path fill-rule="evenodd" clip-rule="evenodd" d="M21.6859 3.71965C21.6532 3.72382 21.6245 3.73411 21.5987 3.74984L21.6859 3.71965Z" fill="#00FFF2"/>
<path fill-rule="evenodd" clip-rule="evenodd" d="M20.5774 1.54217C20.1819 2.02601 19.821 3.18059 19.6863 4.39339C19.4461 6.55386 19.7438 8.70582 21.0123 13.9754C21.6312 16.5464 21.6909 17.7187 21.2875 19.3809C21.0119 20.5162 20.8849 20.7944 20.2666 21.6149C19.3786 22.7938 18.5774 23.3486 17.1714 23.7592C15.9794 24.1073 13.1177 24.3871 12.8707 24.1798C12.7128 24.0473 12.3773 22.7774 12.4078 22.4274C12.4156 22.3369 13.3322 22.1923 14.4447 22.1059C16.9097 21.9145 17.5571 21.6588 18.5584 20.4804C19.4266 19.4587 19.5958 18.7774 19.4295 16.9757C19.2778 15.3334 18.8585 13.1812 18.6575 13.0125C18.3247 12.7333 14.8454 12.6445 14.8061 12.9143C14.7924 13.0079 15.4076 13.6006 16.2665 14.3213L17.7505 15.5666L17.86 16.3601C17.9204 16.7966 17.921 17.2115 17.8616 17.2823C17.7813 17.378 17.1182 16.8777 15.2701 15.3269L12.7866 13.243L12.209 13.4877C11.8914 13.6224 11.5303 13.8532 11.4065 14.0008L11.1814 14.269L14.1708 16.8341C15.815 18.2449 17.1656 19.4614 17.1721 19.5373C17.1787 19.6133 16.9421 19.8292 16.6465 20.0171L16.1089 20.3588L13.2535 18.055C10.0799 15.4944 10.2214 15.552 10.186 16.8049C10.1525 17.9921 10.2029 18.0736 11.8008 19.4144C12.8915 20.3297 13.2069 20.6494 13.0897 20.7214C12.8989 20.8386 11.5375 20.6198 11.0824 20.3986C10.5852 20.1571 10.3492 20.3748 10.4441 20.9876C10.4897 21.2825 10.7846 22.4021 11.0993 23.4756C12.0561 26.7396 12.196 27.6274 12.0542 29.533C11.8794 31.8837 11.2409 33.1563 10.2651 33.0988C9.85726 33.0747 9.76572 33.0175 9.58697 32.6741C9.47343 32.4558 9.4235 32.1323 9.47611 31.9552C10.2564 29.3313 10.2074 27.7809 9.23831 24.4229C8.06722 20.3649 7.88125 19.0211 8.16114 16.6367C8.38092 14.7648 8.64854 14.1094 9.67272 12.934C10.6267 11.8392 11.3731 11.3564 12.7307 10.9562C13.7379 10.6593 15.6804 10.4975 16.9249 10.6068C17.3966 10.6483 17.8255 10.631 17.8781 10.5683C17.9306 10.5057 17.8619 9.97325 17.7254 9.38503C16.9329 5.97091 18.0084 0.791411 19.5487 0.0825812L19.6996 0.0280389C19.7447 0.0161637 19.7902 0.00815015 19.8359 0.00414638C20.6894 -0.0705248 21.1369 0.857504 20.5774 1.54217Z" fill="#00FFF2"/>
<path fill-rule="evenodd" clip-rule="evenodd" d="M19.6996 0.0280389C19.6489 0.0414009 19.5986 0.059652 19.5487 0.0825812L19.6996 0.0280389Z" fill="#00FFF2"/>
</svg>
