<svg width="32" height="32" viewBox="0 0 32 32" fill="none" xmlns="http://www.w3.org/2000/svg">
<path fill-rule="evenodd" clip-rule="evenodd" d="M17.6257 0.0911706C17.8998 0.147056 18.334 0.392728 18.591 0.637281C19.0575 1.08046 19.0584 1.08817 19.0584 2.934C19.0584 3.95262 19.1267 4.9684 19.2101 5.19132C19.5126 6.00295 21.2193 6.50634 22.2775 6.09644C22.4984 6.01082 23.2664 5.4696 23.9832 4.89359C24.7001 4.31757 25.4112 3.84567 25.5648 3.84491C26.0029 3.84263 28.0433 6.03652 29.0474 7.58944C30.1397 9.2788 30.1815 9.13686 28.0547 10.9894C26.8865 12.0075 26.5964 12.3508 26.4542 12.8894C26.0882 14.2745 26.6656 15.5441 27.8546 15.9703C28.8113 16.3128 30.8784 17.3501 31.1448 17.6212C31.4008 17.8815 31.306 19.1131 30.9552 20.0905C30.8186 20.4719 30.5588 21.2175 30.3777 21.7473C29.9624 22.9629 29.5718 23.5355 29.0967 23.6281C28.7374 23.698 27.1767 23.271 25.67 22.6905C24.958 22.4166 24.9418 22.4178 24.2573 22.8029C22.743 23.6543 22.4235 25.0718 23.3811 26.6916C23.6779 27.1928 24.0022 27.856 24.1027 28.1652C24.2023 28.4747 24.3502 28.7692 24.4308 28.8197C25.0186 29.1897 23.9263 30.5921 22.7449 30.9837C22.4083 31.0953 21.7588 31.3887 21.3009 31.6357C20.0256 32.3242 19.7999 32.1757 18.773 29.9696C18.3122 28.98 17.8798 28.0619 17.8116 27.9294C17.5082 27.3348 16.67 26.966 15.6213 26.966C14.6257 26.966 14.5783 26.9847 14.0094 27.6134C13.6368 28.0236 13.2926 28.6558 13.0679 29.3395C12.6459 30.6228 11.7556 31.9437 11.3128 31.9437C10.8738 31.9437 7.83678 30.4171 7.33709 29.945C7.12375 29.7434 6.94549 29.4531 6.92179 29.2739L6.91894 29.2132C6.93791 28.7794 7.47457 27.5137 7.70688 27.3673C8.30233 26.9926 8.73944 24.5181 8.3431 23.764C8.25871 23.604 7.83203 23.2393 7.39493 22.9534C6.50459 22.3715 6.56148 22.3685 4.50679 23.1C2.98592 23.6417 2.17712 23.7196 1.82251 23.3585C1.44324 22.9719 0.961567 21.8346 0.459035 20.1366C-0.0672022 18.3575 -0.124096 17.7814 0.202076 17.5063C0.591776 17.1766 2.39141 16.3437 3.39743 16.0273C4.35034 15.7274 4.38732 15.6947 4.85856 14.7336C5.125 14.1914 5.34213 13.569 5.34213 13.3506C5.34213 12.6767 4.74857 11.9265 3.28554 10.7505C1.66985 9.45289 1.2517 8.92523 1.52193 8.52396C1.61959 8.37832 1.85285 7.97013 2.03964 7.61694C2.66354 6.4357 4.94295 3.84235 5.35445 3.84491C5.47772 3.84567 6.07507 4.20284 6.68285 4.63862C8.78211 6.14622 9.12724 6.32125 9.98629 6.31661C10.8709 6.31196 11.6854 5.94948 12.0315 5.4057C12.1832 5.16771 12.2922 4.37541 12.3558 3.04057C12.461 0.828044 12.5691 0.578997 13.5846 0.202609C14.1327 -0.000669682 16.8122 -0.0745418 17.6257 0.0911706ZM14.8808 10.2C13.322 10.562 12.3359 11.0273 11.6835 11.7085C10.5666 12.8744 10.3286 13.5693 10.3362 15.6455C10.34 16.9345 10.413 17.5754 10.6045 18.0176C10.9345 18.7771 11.8694 19.8428 12.4961 20.1728C12.7588 20.311 13.0641 20.5168 13.1759 20.6303C13.4282 20.8873 14.7575 21.186 15.6374 21.1834C17.7414 21.1773 20.0417 19.559 20.6381 17.6647C20.9263 16.7479 20.9339 14.5781 20.6514 13.5873C20.3337 12.4724 19.0964 11.166 17.8817 10.6634C16.9582 10.2811 15.5009 10.0562 14.8808 10.2Z" fill="#00FFF2"/>
</svg>
