<svg width="35" height="34" viewBox="0 0 35 34" fill="none" xmlns="http://www.w3.org/2000/svg">
<path fill-rule="evenodd" clip-rule="evenodd" d="M18.5722 1.26269C18.7766 1.39127 19.0902 1.57653 19.269 1.67435C19.4478 1.77209 19.6569 1.90066 19.7335 1.95984C19.8102 2.01912 20.0401 2.16256 20.2445 2.2785C21.3557 2.90913 21.9634 3.24962 22.3681 3.46841C22.6163 3.60256 22.9624 3.88527 23.1372 4.09671L23.4549 4.48115L23.4961 9.89584L23.8166 10.1466C23.9929 10.2845 24.5781 10.6507 25.1173 10.9603C25.6563 11.2699 26.39 11.71 26.7477 11.9382C27.1054 12.1664 27.5103 12.4108 27.6475 12.4813C28.1382 12.7334 28.5343 13.1328 28.5989 13.4406C28.6342 13.6084 28.6711 14.8931 28.6809 16.2952L28.6987 18.8447L29.2097 19.2412C29.4907 19.4592 29.7492 19.6394 29.7842 19.6414C29.852 19.6455 30.5962 20.0806 31.2071 20.4735C31.4115 20.6048 31.6833 20.7585 31.8111 20.8149C32.2904 21.0264 33.3871 21.7835 33.5299 22.0015C33.6114 22.126 33.6955 22.4516 33.7168 22.725C33.7591 23.2714 33.7678 28.2904 33.7269 28.6478C33.6872 28.9946 33.1504 29.5622 32.5703 29.8707C32.2804 30.025 31.7506 30.3354 31.3929 30.5608C30.4857 31.1324 30.4008 31.1834 29.9418 31.4335C29.7179 31.5554 29.3571 31.7769 29.14 31.9257C28.9228 32.0744 28.7451 32.1668 28.7451 32.1308C28.7451 32.0948 28.6705 32.1331 28.5791 32.2157C28.4879 32.2983 28.2585 32.4305 28.0694 32.5096C27.5986 32.7062 27.168 32.5958 26.2655 32.0468C25.8664 31.8041 25.3728 31.5169 25.1684 31.4086C24.964 31.3003 24.7758 31.185 24.7503 31.1524C24.6303 30.9991 22.4103 29.7246 22.3116 29.7522C22.2732 29.763 22.2419 29.7389 22.2419 29.6989C22.2419 29.6587 22.116 29.5516 21.9621 29.4607C21.8081 29.3697 21.602 29.1381 21.5039 28.9458C21.3431 28.6306 21.3227 28.3412 21.296 25.9923L21.2664 23.3884L20.9467 23.1193C20.7709 22.9714 20.596 22.8504 20.5582 22.8504C20.4356 22.8504 19.5477 22.3026 19.5477 22.227C19.5477 22.1866 19.4838 22.1536 19.4057 22.1536C19.3276 22.1536 18.8655 21.9028 18.3789 21.5962C17.8923 21.2896 17.3882 21.0388 17.2586 21.0388C17.0215 21.0388 16.1168 21.4983 15.3968 21.9843C15.1832 22.1285 14.9854 22.2465 14.9573 22.2465C14.9292 22.2465 14.6859 22.3836 14.4166 22.5512C14.1473 22.7188 13.8056 22.9175 13.6572 22.9925C13.1975 23.2252 13.1589 23.4642 13.1444 26.1669C13.1309 28.7125 13.1083 28.885 12.7404 29.2529C12.5997 29.3936 10.4461 30.6934 9.77148 31.0448C9.63193 31.1176 9.49629 31.2119 9.47 31.2544C9.44371 31.297 9.24425 31.4261 9.02685 31.5413C8.35395 31.898 8.2657 31.9491 7.97992 32.1477C7.57858 32.4267 7.10347 32.5987 6.79847 32.5754C6.48762 32.5517 5.90632 32.2756 5.03321 31.737C4.68929 31.5247 4.37313 31.3511 4.33077 31.3511C4.28831 31.3511 4.16865 31.2719 4.06479 31.1751C3.96101 31.0784 3.7386 30.9216 3.57063 30.8267C3.40276 30.7319 3.19763 30.6115 3.11485 30.5594C3.03217 30.5072 2.62999 30.268 2.22121 30.0278C1.81244 29.7878 1.30017 29.4333 1.08277 29.2402C0.708651 28.9078 0.685333 28.8571 0.644083 28.2852C0.592987 27.5769 0.583417 23.5258 0.631263 22.8504C0.667495 22.3377 0.742932 22.109 0.96107 21.8498C1.0824 21.7056 3.4951 20.229 5.0622 19.3399C5.81881 18.9106 5.79112 19.0352 5.7993 16.022C5.80264 14.798 5.84853 13.6764 5.90381 13.4692C6.02914 12.9993 6.21179 12.8345 7.34019 12.1731C7.84605 11.8765 8.36445 11.5628 8.49219 11.4758C8.61994 11.389 8.78716 11.2913 8.86381 11.259C9.32145 11.0658 10.7838 10.0805 10.8702 9.90727C10.94 9.76726 10.965 8.89871 10.9476 7.21734C10.9193 4.47344 10.9396 4.35127 11.499 3.88963C11.8114 3.63192 12.9093 2.9226 12.9959 2.9226C13.0246 2.9226 13.225 2.8087 13.4412 2.66953C13.6573 2.53027 13.9178 2.36862 14.02 2.31027C14.1221 2.25184 14.6029 1.96254 15.0883 1.66738C15.5738 1.37214 16.2218 1.01121 16.5283 0.865348C16.7677 0.751465 17.0164 0.65372 17.1552 0.616338L17.2609 0.60096C17.4437 0.617701 17.9626 0.879081 18.5722 1.26269ZM27.0261 21.2474C26.8216 21.3626 26.5184 21.5537 26.3525 21.6722C26.1867 21.7906 26.0503 21.8533 26.0496 21.8115C26.0487 21.7697 26.0174 21.7774 25.9799 21.8285C25.8986 21.9391 25.6172 22.1205 25.34 22.241C25.23 22.2888 25.1121 22.3731 25.0781 22.4281C25.0441 22.4832 24.982 22.5071 24.9402 22.4813C24.8985 22.4555 24.8126 22.4966 24.7495 22.5727C24.6863 22.6488 24.5943 22.711 24.5451 22.711C24.3801 22.711 23.6595 23.281 23.5666 23.4851C23.4446 23.7527 23.4328 27.3359 23.553 27.6349C23.6133 27.7854 23.9731 28.0634 24.5747 28.4246C25.0854 28.7312 25.6996 29.1028 25.9396 29.2504C26.1797 29.398 26.5642 29.6242 26.7942 29.753C27.0241 29.8818 27.2777 30.0276 27.3578 30.077C27.548 30.1942 27.9963 29.9685 29.9665 28.7635C31.1555 28.0363 31.5264 27.7638 31.5715 27.5843C31.6424 27.3016 31.6353 23.7721 31.5632 23.4772C31.5111 23.2641 31.0397 22.906 30.371 22.5717C30.1666 22.4695 29.9695 22.3441 29.933 22.293C29.8966 22.2419 29.8339 22.199 29.7937 22.1977C29.6833 22.1941 28.4053 21.429 28.2495 21.2731C28.0035 21.0271 27.4386 21.0153 27.0261 21.2474ZM5.65864 21.6061C5.09657 21.9192 4.6158 22.2023 4.59025 22.2351C4.5647 22.2679 4.37769 22.378 4.17469 22.4797C3.9717 22.5813 3.76267 22.6966 3.71017 22.7359C3.65768 22.7751 3.43583 22.9331 3.21723 23.0868C2.8838 23.3213 2.8209 23.4149 2.82759 23.6659C2.83196 23.8305 2.83242 24.7647 2.82861 25.7416C2.82481 26.7187 2.84822 27.5872 2.88064 27.6716C2.91306 27.7561 3.15415 27.9628 3.41651 28.131C4.39041 28.7556 4.69597 28.946 4.99308 29.1128C5.16058 29.2069 5.63978 29.4827 6.05794 29.7256C6.61304 30.0482 6.84985 30.1413 6.93523 30.0704C6.99961 30.017 7.094 29.97 7.14509 29.9661C7.19619 29.9622 7.31167 29.896 7.4016 29.8189C7.49162 29.7419 7.58629 29.6788 7.61193 29.6788C7.67799 29.6788 10.651 27.941 10.7916 27.8203C10.9291 27.7021 10.9327 27.6332 10.9197 25.3734C10.9091 23.5428 10.8539 23.2436 10.4896 23.0447C10.3874 22.989 10.2821 22.9146 10.2555 22.8795C10.2289 22.8444 10.014 22.7329 9.77798 22.6317C9.54191 22.5305 9.32043 22.4018 9.28568 22.3456C9.25094 22.2894 9.18367 22.2675 9.13611 22.297C9.08854 22.3263 9.04962 22.3119 9.04962 22.2649C9.04962 22.218 8.78837 22.0425 8.46897 21.875C8.14966 21.7076 7.75947 21.475 7.6019 21.3583C7.04207 20.9432 6.79113 20.9752 5.65864 21.6061ZM25.3332 21.6703L23.1754 22.9433L23.1709 27.7933L27.5511 30.4108L28.2178 30.0158C28.5845 29.7986 29.0517 29.5139 29.2561 29.3831C29.4605 29.2523 30.1398 28.846 30.7658 28.4802L31.9039 27.8152V22.9399L29.7903 21.6635C28.6279 20.9616 27.6349 20.3895 27.5839 20.3924C27.5328 20.3951 26.5199 20.9702 25.3332 21.6703ZM4.62239 21.6516L2.48534 22.9148L2.49992 27.8272L3.61476 28.4868C6.00619 29.9015 6.75444 30.3291 6.83805 30.3291C6.88589 30.3291 7.4972 29.9882 8.19639 29.5715C8.89558 29.1548 9.86484 28.5771 10.3503 28.2878L11.2328 27.7617V22.9497L9.06569 21.669C7.87383 20.9647 6.86731 20.3884 6.82904 20.3884C6.79076 20.3884 5.79781 20.9568 4.62239 21.6516ZM21.8703 12.3304C21.6404 12.4451 21.2763 12.6532 21.0613 12.7928C20.8463 12.9323 20.6164 13.0575 20.5503 13.071C20.4843 13.0845 20.4094 13.1218 20.3838 13.1541C20.3583 13.1862 19.9813 13.4225 19.5461 13.6791C18.2084 14.4677 18.3373 14.1586 18.3316 16.5933C18.328 18.1773 18.3569 18.7458 18.4488 18.893C18.5159 19.0006 18.8638 19.2416 19.2219 19.4287C19.5799 19.6157 19.8868 19.8037 19.9038 19.8464C19.9209 19.889 19.9771 19.9239 20.0289 19.9239C20.0806 19.9239 20.2339 20.0028 20.3695 20.0991C20.8874 20.467 22.2947 21.2498 22.4293 21.2447C22.5068 21.2418 22.8621 21.062 23.219 20.8451C23.93 20.4131 24.4408 20.1159 25.2029 19.6911C25.4775 19.5381 25.8746 19.2852 26.0855 19.129L26.469 18.8451V14.5178L26.1903 14.289C26.037 14.1631 25.6189 13.9109 25.2613 13.7286C24.9036 13.5462 24.59 13.3682 24.5645 13.3331C24.5389 13.2979 24.2672 13.1282 23.9606 12.9562C23.654 12.7841 23.3823 12.6144 23.3567 12.5792C23.252 12.4346 22.6471 12.1208 22.4742 12.1213C22.372 12.1215 22.1002 12.2156 21.8703 12.3304ZM11.398 12.3392C11.1823 12.4486 11.0046 12.5904 11.0032 12.6542C11.0018 12.7182 10.9692 12.7603 10.9309 12.7481C10.8926 12.7358 10.5324 12.9135 10.1305 13.1429C9.72846 13.3724 9.23124 13.6509 9.02546 13.762C8.81959 13.8731 8.62588 14.0034 8.59495 14.0514C8.56401 14.0995 8.44714 14.1675 8.33537 14.2023C8.21321 14.2404 8.09763 14.3844 8.04589 14.5632C7.92957 14.9644 7.903 18.5277 8.01411 18.82C8.06837 18.9625 8.31233 19.1672 8.64576 19.3497C9.4111 19.7689 9.9387 20.0784 10.5101 20.444C10.7818 20.6178 11.0265 20.7601 11.0537 20.7601C11.081 20.7601 11.2572 20.8646 11.4451 20.9923C11.6332 21.1201 11.8645 21.2246 11.9594 21.2246C12.1105 21.2246 12.6346 20.9516 13.6343 20.3523C13.7953 20.2557 14.1152 20.0727 14.3451 19.9454C14.575 19.8181 14.8259 19.6654 14.9025 19.6059C14.9792 19.5465 15.1635 19.4369 15.3121 19.3625C15.4607 19.2881 15.7011 19.1163 15.8462 18.9809C16.1412 18.7057 16.1285 18.8506 16.1103 15.9757C16.1039 14.9565 16.0669 14.5296 15.9726 14.3858C15.8608 14.2152 15.4811 13.9855 14.4166 13.4448C14.2771 13.374 14.1404 13.2796 14.1129 13.235C14.0854 13.1904 13.8232 13.0382 13.5304 12.8968C13.2376 12.7554 12.9771 12.616 12.9516 12.5868C12.803 12.4174 12.3284 12.1885 12.0796 12.1662C11.92 12.1519 11.6144 12.2295 11.398 12.3392ZM20.1748 12.7408L18.0612 13.9959L18.0496 14.5909C18.0432 14.9181 18.038 15.2486 18.038 15.3252C18.038 15.4019 18.0432 16.2493 18.0496 17.2085L18.0612 18.9523L20.1123 20.1581C21.2403 20.8213 22.2127 21.4091 22.2731 21.4644C22.3539 21.5382 22.9653 21.2191 24.5869 20.2566L26.7907 18.9484L26.7477 14.04L24.6109 12.7554C23.4357 12.049 22.4324 11.4743 22.3813 11.4784C22.3302 11.4824 21.3372 12.0506 20.1748 12.7408ZM10.1569 12.5675C9.15636 13.1645 8.18441 13.7456 7.99693 13.8588L7.65606 14.0648L7.65653 18.9484L9.7633 20.2026C10.9221 20.8925 11.9052 21.4711 11.948 21.4883C11.9909 21.5057 12.9345 20.9782 14.0448 20.3162C15.1553 19.6541 16.1556 19.0649 16.2677 19.0067C16.468 18.9028 16.4711 18.8711 16.4429 17.206C16.4271 16.2738 16.4085 15.1519 16.4015 14.7131C16.3894 13.9374 16.3818 13.9118 16.1335 13.7998C15.7611 13.6319 12.6654 11.8378 12.4048 11.6389C12.2829 11.5458 12.1366 11.4725 12.0797 11.4758C12.0227 11.4792 11.1574 11.9704 10.1569 12.5675ZM16.4354 3.54366C16.18 3.72194 15.8664 3.91667 15.7387 3.97631C15.3094 4.1768 14.207 4.81801 14.083 4.93925C14.0155 5.00531 13.9182 5.05938 13.8668 5.05938C13.8155 5.05938 13.6414 5.19139 13.4801 5.35267L13.1868 5.64597L13.1898 9.91572L13.5084 10.1817C13.6837 10.328 13.8774 10.4478 13.939 10.4478C14.0005 10.4478 14.0648 10.4816 14.0819 10.5229C14.0989 10.5643 14.3637 10.7381 14.6703 10.9092C14.9769 11.0804 15.6334 11.4657 16.1293 11.7657C16.743 12.1369 17.1004 12.2984 17.2485 12.2716C17.4532 12.2344 18.0071 11.9229 19.4764 11.0186C19.8203 10.8069 20.1306 10.6336 20.1658 10.6336C20.201 10.6336 20.3034 10.567 20.3933 10.4856C20.4832 10.4043 20.6935 10.2684 20.8604 10.1837C21.0533 10.0859 21.1895 9.93217 21.2336 9.76234C21.2719 9.61527 21.2948 8.63189 21.2848 7.57688C21.2635 5.35816 21.3201 5.50253 20.2445 4.92095C19.8868 4.72762 19.4478 4.4766 19.269 4.36326C18.9606 4.16779 18.4636 3.86743 17.7047 3.41787C17.2363 3.14037 16.9762 3.1661 16.4354 3.54366ZM16.8535 2.72165C16.7258 2.81372 15.7746 3.38386 14.74 3.98867L12.8587 5.08827V10.0651L13.5787 10.4757C14.3968 10.9423 16.7104 12.3019 16.9966 12.4841C17.1667 12.5926 17.3424 12.5127 18.7153 11.7035C19.5563 11.2077 20.5475 10.6149 20.918 10.3861L21.5916 9.97007L21.5861 5.10583L19.4387 3.85164C18.2577 3.16183 17.2452 2.58769 17.1886 2.57579C17.132 2.5639 16.9812 2.62958 16.8535 2.72165ZM16.7141 0.941434C16.5609 1.02291 15.3153 1.75499 13.9462 2.56826C12.0968 3.66685 11.4341 4.10703 11.3681 4.28048C11.3192 4.40924 11.2778 5.75225 11.276 7.27188L11.2728 10.0297L8.85433 11.4697C7.52414 12.2617 6.36554 12.9872 6.27951 13.0819C6.14248 13.2328 6.1174 13.6045 6.0767 16.0954L6.03025 18.9366L3.80057 20.2546C2.57425 20.9794 1.42457 21.7002 1.24573 21.8561L0.920564 22.1398L0.924002 25.2927C0.926882 27.9272 0.9502 28.4799 1.06596 28.6542C1.14214 28.7689 2.40823 29.5899 3.87963 30.4785C5.86321 31.6766 6.63106 32.094 6.84994 32.0932C7.06464 32.0924 7.86677 31.6629 9.79284 30.5175C11.2491 29.6515 12.5346 28.8344 12.6496 28.7018C12.8563 28.4633 12.8587 28.4299 12.8587 25.6905V22.9203L14.9892 21.6543C16.161 20.9581 17.1577 20.3884 17.2039 20.3884C17.2501 20.3884 17.8696 20.7349 18.5804 21.1582C19.2913 21.5816 20.2596 22.1491 20.7322 22.4194L21.5916 22.9108V25.6784C21.5916 28.3394 21.599 28.4554 21.7845 28.6913C21.9757 28.9344 26.4768 31.6856 27.224 32.0162C27.4417 32.1125 27.6881 32.1607 27.7841 32.1259C28.1717 31.9852 33.0812 28.9966 33.2742 28.784C33.4823 28.5546 33.4832 28.5399 33.4832 25.4072V22.2607L33.2493 21.9828C33.1207 21.8299 32.8176 21.5908 32.5757 21.4515C32.334 21.3121 31.2895 20.6941 30.2548 20.0781L28.3735 18.9579V16.1636C28.3735 13.855 28.3497 13.3352 28.237 13.1741C28.0836 12.9552 28.003 12.9037 25.1949 11.2312L23.1775 10.0297L23.1709 4.3509L22.9155 4.11195C22.775 3.98049 21.782 3.36082 20.709 2.73493C19.636 2.10904 18.4618 1.4145 18.0999 1.19144C17.3911 0.754608 17.148 0.710754 16.7141 0.941434Z" fill="#00FFF2"/>
<path fill-rule="evenodd" clip-rule="evenodd" d="M17.2434 0.600098C17.2489 0.600095 17.2547 0.600389 17.2609 0.60096L17.1552 0.616338C17.1941 0.605842 17.2244 0.600098 17.2434 0.600098Z" fill="#00FFF2"/>
<path d="M17.1552 0.616338L17.2609 0.60096M17.1552 0.616338C17.0164 0.65372 16.7677 0.751465 16.5283 0.865348C16.2218 1.01121 15.5738 1.37214 15.0883 1.66738C14.6029 1.96254 14.1221 2.25184 14.02 2.31027C13.9178 2.36862 13.6573 2.53027 13.4412 2.66953C13.225 2.8087 13.0246 2.9226 12.9959 2.9226C12.9093 2.9226 11.8114 3.63192 11.499 3.88963C10.9396 4.35127 10.9193 4.47344 10.9476 7.21734C10.965 8.89871 10.94 9.76726 10.8702 9.90727C10.7838 10.0805 9.32145 11.0658 8.86381 11.259C8.78716 11.2913 8.61994 11.389 8.49219 11.4758C8.36445 11.5628 7.84605 11.8765 7.34019 12.1731C6.21179 12.8345 6.02914 12.9993 5.90381 13.4692C5.84853 13.6764 5.80264 14.798 5.7993 16.022C5.79112 19.0352 5.81881 18.9106 5.0622 19.3399C3.4951 20.229 1.0824 21.7056 0.96107 21.8498C0.742932 22.109 0.667495 22.3377 0.631263 22.8504C0.583417 23.5258 0.592987 27.5769 0.644083 28.2852C0.685333 28.8571 0.708651 28.9078 1.08277 29.2402C1.30017 29.4333 1.81244 29.7878 2.22121 30.0278C2.62999 30.268 3.03217 30.5072 3.11485 30.5594C3.19763 30.6115 3.40276 30.7319 3.57063 30.8267C3.7386 30.9216 3.96101 31.0784 4.06479 31.1751C4.16865 31.2719 4.28831 31.3511 4.33077 31.3511C4.37313 31.3511 4.68929 31.5247 5.03321 31.737C5.90632 32.2756 6.48762 32.5517 6.79847 32.5754C7.10347 32.5987 7.57858 32.4267 7.97992 32.1477C8.2657 31.9491 8.35395 31.898 9.02685 31.5413C9.24425 31.4261 9.44371 31.297 9.47 31.2544C9.49629 31.2119 9.63193 31.1176 9.77148 31.0448C10.4461 30.6934 12.5997 29.3936 12.7404 29.2529C13.1083 28.885 13.1309 28.7125 13.1444 26.1669C13.1589 23.4642 13.1975 23.2252 13.6572 22.9925C13.8056 22.9175 14.1473 22.7188 14.4166 22.5512C14.6859 22.3836 14.9292 22.2465 14.9573 22.2465C14.9854 22.2465 15.1832 22.1285 15.3968 21.9843C16.1168 21.4983 17.0215 21.0388 17.2586 21.0388C17.3882 21.0388 17.8923 21.2896 18.3789 21.5962C18.8655 21.9028 19.3276 22.1536 19.4057 22.1536C19.4838 22.1536 19.5477 22.1866 19.5477 22.227C19.5477 22.3026 20.4356 22.8504 20.5582 22.8504C20.596 22.8504 20.7709 22.9714 20.9467 23.1193L21.2664 23.3884L21.296 25.9923C21.3227 28.3412 21.3431 28.6306 21.5039 28.9458C21.602 29.1381 21.8081 29.3697 21.9621 29.4607C22.116 29.5516 22.2419 29.6587 22.2419 29.6989C22.2419 29.7389 22.2732 29.763 22.3116 29.7522C22.4103 29.7246 24.6303 30.9991 24.7503 31.1524C24.7758 31.185 24.964 31.3003 25.1684 31.4086C25.3728 31.5169 25.8664 31.8041 26.2655 32.0468C27.168 32.5958 27.5986 32.7062 28.0694 32.5096C28.2585 32.4305 28.4879 32.2983 28.5791 32.2157C28.6705 32.1331 28.7451 32.0948 28.7451 32.1308C28.7451 32.1668 28.9228 32.0744 29.14 31.9257C29.3571 31.7769 29.7179 31.5554 29.9418 31.4335C30.4008 31.1834 30.4857 31.1324 31.3929 30.5608C31.7506 30.3354 32.2804 30.025 32.5703 29.8707C33.1504 29.5622 33.6872 28.9946 33.7269 28.6478C33.7678 28.2904 33.7591 23.2714 33.7168 22.725C33.6955 22.4516 33.6114 22.126 33.5299 22.0015C33.3871 21.7835 32.2904 21.0264 31.8111 20.8149C31.6833 20.7585 31.4115 20.6048 31.2071 20.4735C30.5962 20.0806 29.852 19.6455 29.7842 19.6414C29.7492 19.6394 29.4907 19.4592 29.2097 19.2412L28.6987 18.8447L28.6809 16.2952C28.6711 14.8931 28.6342 13.6084 28.5989 13.4406C28.5343 13.1328 28.1382 12.7334 27.6475 12.4813C27.5103 12.4108 27.1054 12.1664 26.7477 11.9382C26.39 11.71 25.6563 11.2699 25.1173 10.9603C24.5781 10.6507 23.9929 10.2845 23.8166 10.1466L23.4961 9.89584L23.4549 4.48115L23.1372 4.09671C22.9624 3.88527 22.6163 3.60256 22.3681 3.46841C21.9634 3.24962 21.3557 2.90913 20.2445 2.2785C20.0401 2.16256 19.8102 2.01912 19.7335 1.95984C19.6569 1.90066 19.4478 1.77209 19.269 1.67435C19.0902 1.57653 18.7766 1.39127 18.5722 1.26269C17.9626 0.879081 17.4437 0.617701 17.2609 0.60096M17.1552 0.616338C17.1941 0.605842 17.2244 0.600098 17.2434 0.600098C17.2489 0.600095 17.2547 0.600389 17.2609 0.60096M25.3332 21.6703L23.1754 22.9433L23.1709 27.7933L27.5511 30.4108L28.2178 30.0158C28.5845 29.7986 29.0517 29.5139 29.2561 29.3831C29.4605 29.2523 30.1398 28.846 30.7658 28.4802L31.9039 27.8152V22.9399L29.7903 21.6635C28.6279 20.9616 27.6349 20.3895 27.5839 20.3924C27.5328 20.3951 26.5199 20.9702 25.3332 21.6703ZM27.0261 21.2474C26.8216 21.3626 26.5184 21.5537 26.3525 21.6722C26.1867 21.7906 26.0503 21.8533 26.0496 21.8115C26.0487 21.7697 26.0174 21.7774 25.9799 21.8285C25.8986 21.9391 25.6172 22.1205 25.34 22.241C25.23 22.2888 25.1121 22.3731 25.0781 22.4281C25.0441 22.4832 24.982 22.5071 24.9402 22.4813C24.8985 22.4555 24.8126 22.4966 24.7495 22.5727C24.6863 22.6488 24.5943 22.711 24.5451 22.711C24.3801 22.711 23.6595 23.281 23.5666 23.4851C23.4446 23.7527 23.4328 27.3359 23.553 27.6349C23.6133 27.7854 23.9731 28.0634 24.5747 28.4246C25.0854 28.7312 25.6996 29.1028 25.9396 29.2504C26.1797 29.398 26.5642 29.6242 26.7942 29.753C27.0241 29.8818 27.2777 30.0276 27.3578 30.077C27.548 30.1942 27.9963 29.9685 29.9665 28.7635C31.1555 28.0363 31.5264 27.7638 31.5715 27.5843C31.6424 27.3016 31.6353 23.7721 31.5632 23.4772C31.5111 23.2641 31.0397 22.906 30.371 22.5717C30.1666 22.4695 29.9695 22.3441 29.933 22.293C29.8966 22.2419 29.8339 22.199 29.7937 22.1977C29.6833 22.1941 28.4053 21.429 28.2495 21.2731C28.0035 21.0271 27.4386 21.0153 27.0261 21.2474ZM7.6019 21.3583C7.04207 20.9432 6.79113 20.9752 5.65864 21.6061C5.09657 21.9192 4.6158 22.2023 4.59025 22.2351C4.5647 22.2679 4.37769 22.378 4.17469 22.4797C3.9717 22.5813 3.76267 22.6966 3.71017 22.7359C3.65768 22.7751 3.43583 22.9331 3.21723 23.0868C2.8838 23.3213 2.8209 23.4149 2.82759 23.6659C2.83196 23.8305 2.83242 24.7647 2.82861 25.7416C2.82481 26.7187 2.84822 27.5872 2.88064 27.6716C2.91306 27.7561 3.15415 27.9628 3.41651 28.131C4.39041 28.7556 4.69597 28.946 4.99308 29.1128C5.16058 29.2069 5.63978 29.4827 6.05794 29.7256C6.61304 30.0482 6.84985 30.1413 6.93523 30.0704C6.99961 30.017 7.094 29.97 7.14509 29.9661C7.19619 29.9622 7.31167 29.896 7.4016 29.8189C7.49162 29.7419 7.58629 29.6788 7.61193 29.6788C7.67799 29.6788 10.651 27.941 10.7916 27.8203C10.9291 27.7021 10.9327 27.6332 10.9197 25.3734C10.9091 23.5428 10.8539 23.2436 10.4896 23.0447C10.3874 22.989 10.2821 22.9146 10.2555 22.8795C10.2289 22.8444 10.014 22.7329 9.77798 22.6317C9.54191 22.5305 9.32043 22.4018 9.28568 22.3456C9.25094 22.2894 9.18367 22.2675 9.13611 22.297C9.08854 22.3263 9.04962 22.3119 9.04962 22.2649C9.04962 22.218 8.78837 22.0425 8.46897 21.875C8.14966 21.7076 7.75947 21.475 7.6019 21.3583ZM4.62239 21.6516L2.48534 22.9148L2.49992 27.8272L3.61476 28.4868C6.00619 29.9015 6.75444 30.3291 6.83805 30.3291C6.88589 30.3291 7.4972 29.9882 8.19639 29.5715C8.89558 29.1548 9.86484 28.5771 10.3503 28.2878L11.2328 27.7617V22.9497L9.06569 21.669C7.87383 20.9647 6.86731 20.3884 6.82904 20.3884C6.79076 20.3884 5.79781 20.9568 4.62239 21.6516ZM21.8703 12.3304C21.6404 12.4451 21.2763 12.6532 21.0613 12.7928C20.8463 12.9323 20.6164 13.0575 20.5503 13.071C20.4843 13.0845 20.4094 13.1218 20.3838 13.1541C20.3583 13.1862 19.9813 13.4225 19.5461 13.6791C18.2084 14.4677 18.3373 14.1586 18.3316 16.5933C18.328 18.1773 18.3569 18.7458 18.4488 18.893C18.5159 19.0006 18.8638 19.2416 19.2219 19.4287C19.5799 19.6157 19.8868 19.8037 19.9038 19.8464C19.9209 19.889 19.9771 19.9239 20.0289 19.9239C20.0806 19.9239 20.2339 20.0028 20.3695 20.0991C20.8874 20.467 22.2947 21.2498 22.4293 21.2447C22.5068 21.2418 22.8621 21.062 23.219 20.8451C23.93 20.4131 24.4408 20.1159 25.2029 19.6911C25.4775 19.5381 25.8746 19.2852 26.0855 19.129L26.469 18.8451V14.5178L26.1903 14.289C26.037 14.1631 25.6189 13.9109 25.2613 13.7286C24.9036 13.5462 24.59 13.3682 24.5645 13.3331C24.5389 13.2979 24.2672 13.1282 23.9606 12.9562C23.654 12.7841 23.3823 12.6144 23.3567 12.5792C23.252 12.4346 22.6471 12.1208 22.4742 12.1213C22.372 12.1215 22.1002 12.2156 21.8703 12.3304ZM12.0796 12.1662C11.92 12.1519 11.6144 12.2295 11.398 12.3392C11.1823 12.4486 11.0046 12.5904 11.0032 12.6542C11.0018 12.7182 10.9692 12.7603 10.9309 12.7481C10.8926 12.7358 10.5324 12.9135 10.1305 13.1429C9.72846 13.3724 9.23124 13.6509 9.02546 13.762C8.81959 13.8731 8.62588 14.0034 8.59495 14.0514C8.56401 14.0995 8.44714 14.1675 8.33537 14.2023C8.21321 14.2404 8.09763 14.3844 8.04589 14.5632C7.92957 14.9644 7.903 18.5277 8.01411 18.82C8.06837 18.9625 8.31233 19.1672 8.64576 19.3497C9.4111 19.7689 9.9387 20.0784 10.5101 20.444C10.7818 20.6178 11.0265 20.7601 11.0537 20.7601C11.081 20.7601 11.2572 20.8646 11.4451 20.9923C11.6332 21.1201 11.8645 21.2246 11.9594 21.2246C12.1105 21.2246 12.6346 20.9516 13.6343 20.3523C13.7953 20.2557 14.1152 20.0727 14.3451 19.9454C14.575 19.8181 14.8259 19.6654 14.9025 19.6059C14.9792 19.5465 15.1635 19.4369 15.3121 19.3625C15.4607 19.2881 15.7011 19.1163 15.8462 18.9809C16.1412 18.7057 16.1285 18.8506 16.1103 15.9757C16.1039 14.9565 16.0669 14.5296 15.9726 14.3858C15.8608 14.2152 15.4811 13.9855 14.4166 13.4448C14.2771 13.374 14.1404 13.2796 14.1129 13.235C14.0854 13.1904 13.8232 13.0382 13.5304 12.8968C13.2376 12.7554 12.9771 12.616 12.9516 12.5868C12.803 12.4174 12.3284 12.1885 12.0796 12.1662ZM24.6109 12.7554C23.4357 12.049 22.4324 11.4743 22.3813 11.4784C22.3302 11.4824 21.3372 12.0506 20.1748 12.7408L18.0612 13.9959L18.0496 14.5909C18.0432 14.9181 18.038 15.2486 18.038 15.3252C18.038 15.4019 18.0432 16.2493 18.0496 17.2085L18.0612 18.9523L20.1123 20.1581C21.2403 20.8213 22.2127 21.4091 22.2731 21.4644C22.3539 21.5382 22.9653 21.2191 24.5869 20.2566L26.7907 18.9484L26.7477 14.04L24.6109 12.7554ZM12.4048 11.6389C12.2829 11.5458 12.1366 11.4725 12.0797 11.4758C12.0227 11.4792 11.1574 11.9704 10.1569 12.5675C9.15636 13.1645 8.18441 13.7456 7.99693 13.8588L7.65606 14.0648L7.65653 18.9484L9.7633 20.2026C10.9221 20.8925 11.9052 21.4711 11.948 21.4883C11.9909 21.5057 12.9345 20.9782 14.0448 20.3162C15.1553 19.6541 16.1556 19.0649 16.2677 19.0067C16.468 18.9028 16.4711 18.8711 16.4429 17.206C16.4271 16.2738 16.4085 15.1519 16.4015 14.7131C16.3894 13.9374 16.3818 13.9118 16.1335 13.7998C15.7611 13.6319 12.6654 11.8378 12.4048 11.6389ZM16.4354 3.54366C16.18 3.72194 15.8664 3.91667 15.7387 3.97631C15.3094 4.1768 14.207 4.81801 14.083 4.93925C14.0155 5.00531 13.9182 5.05938 13.8668 5.05938C13.8155 5.05938 13.6414 5.19139 13.4801 5.35267L13.1868 5.64597L13.1898 9.91572L13.5084 10.1817C13.6837 10.328 13.8774 10.4478 13.939 10.4478C14.0005 10.4478 14.0648 10.4816 14.0819 10.5229C14.0989 10.5643 14.3637 10.7381 14.6703 10.9092C14.9769 11.0804 15.6334 11.4657 16.1293 11.7657C16.743 12.1369 17.1004 12.2984 17.2485 12.2716C17.4532 12.2344 18.0071 11.9229 19.4764 11.0186C19.8203 10.8069 20.1306 10.6336 20.1658 10.6336C20.201 10.6336 20.3034 10.567 20.3933 10.4856C20.4832 10.4043 20.6935 10.2684 20.8604 10.1837C21.0533 10.0859 21.1895 9.93217 21.2336 9.76234C21.2719 9.61527 21.2948 8.63189 21.2848 7.57688C21.2635 5.35816 21.3201 5.50253 20.2445 4.92095C19.8868 4.72762 19.4478 4.4766 19.269 4.36326C18.9606 4.16779 18.4636 3.86743 17.7047 3.41787C17.2363 3.14037 16.9762 3.1661 16.4354 3.54366ZM16.8535 2.72165C16.7258 2.81372 15.7746 3.38386 14.74 3.98867L12.8587 5.08827V10.0651L13.5787 10.4757C14.3968 10.9423 16.7104 12.3019 16.9966 12.4841C17.1667 12.5926 17.3424 12.5127 18.7153 11.7035C19.5563 11.2077 20.5475 10.6149 20.918 10.3861L21.5916 9.97007L21.5861 5.10583L19.4387 3.85164C18.2577 3.16183 17.2452 2.58769 17.1886 2.57579C17.132 2.5639 16.9812 2.62958 16.8535 2.72165ZM13.9462 2.56826C12.0968 3.66685 11.4341 4.10703 11.3681 4.28048C11.3192 4.40924 11.2778 5.75225 11.276 7.27188L11.2728 10.0297L8.85433 11.4697C7.52414 12.2617 6.36554 12.9872 6.27951 13.0819C6.14248 13.2328 6.1174 13.6045 6.0767 16.0954L6.03025 18.9366L3.80057 20.2546C2.57425 20.9794 1.42457 21.7002 1.24573 21.8561L0.920564 22.1398L0.924002 25.2927C0.926882 27.9272 0.9502 28.4799 1.06596 28.6542C1.14214 28.7689 2.40823 29.5899 3.87963 30.4785C5.86321 31.6766 6.63106 32.094 6.84994 32.0932C7.06464 32.0924 7.86677 31.6629 9.79284 30.5175C11.2491 29.6515 12.5346 28.8344 12.6496 28.7018C12.8563 28.4633 12.8587 28.4299 12.8587 25.6905V22.9203L14.9892 21.6543C16.161 20.9581 17.1577 20.3884 17.2039 20.3884C17.2501 20.3884 17.8696 20.7349 18.5804 21.1582C19.2913 21.5816 20.2596 22.1491 20.7322 22.4194L21.5916 22.9108V25.6784C21.5916 28.3394 21.599 28.4554 21.7845 28.6913C21.9757 28.9344 26.4768 31.6856 27.224 32.0162C27.4417 32.1125 27.6881 32.1607 27.7841 32.1259C28.1717 31.9852 33.0812 28.9966 33.2742 28.784C33.4823 28.5546 33.4832 28.5399 33.4832 25.4072V22.2607L33.2493 21.9828C33.1207 21.8299 32.8176 21.5908 32.5757 21.4515C32.334 21.3121 31.2895 20.6941 30.2548 20.0781L28.3735 18.9579V16.1636C28.3735 13.855 28.3497 13.3352 28.237 13.1741C28.0836 12.9552 28.003 12.9037 25.1949 11.2312L23.1775 10.0297L23.1709 4.3509L22.9155 4.11195C22.775 3.98049 21.782 3.36082 20.709 2.73493C19.636 2.10904 18.4618 1.4145 18.0999 1.19144C17.3911 0.754608 17.148 0.710754 16.7141 0.941434C16.5609 1.02291 15.3153 1.75499 13.9462 2.56826Z" stroke="#00FFF2" stroke-width="1.2"/>
</svg>
