<svg width="34" height="32" viewBox="0 0 34 32" fill="none" xmlns="http://www.w3.org/2000/svg">
<path fill-rule="evenodd" clip-rule="evenodd" d="M5.63258 0.0949589C4.43902 0.574866 3.95154 0.894173 3.95617 1.19309C3.95911 1.38228 4.85712 2.43564 5.95168 3.53398C7.04624 4.63232 7.94236 5.69303 7.9432 5.89105C7.94488 6.24525 5.52685 8.99941 5.21427 8.99941C5.1264 8.99941 4.10605 8.04254 2.94695 6.87273C1.78807 5.70312 0.714743 4.78787 0.562132 4.83875C-0.259155 5.11244 -0.157623 8.80644 0.717267 10.4797C2.10591 13.1353 5.44697 14.6736 7.93899 13.8048C8.60956 13.571 8.65518 13.5944 9.78421 14.7507C10.4209 15.4028 11.0364 15.9363 11.152 15.9363C11.2677 15.9363 11.7289 15.6052 12.1768 15.2006C13.108 14.3593 13.6474 14.2906 14.6285 14.8886L15.3211 15.3111L16.2576 14.4333C16.7726 13.9507 17.1941 13.4476 17.1941 13.3158C17.1941 13.1838 16.2521 12.1246 15.1008 10.9619L13.0076 8.84806L13.2323 8.03371C13.7063 6.31715 12.86 3.40407 11.489 2.03309C11.0371 1.58114 10.1323 0.966485 9.47857 0.667568C8.32115 0.138052 6.28066 -0.1657 5.63258 0.0949589ZM28.6139 1.70789C26.2379 3.56908 26.5044 3.27164 26.0447 4.57662C25.7061 5.53811 25.001 6.35162 20.532 10.9382C17.7133 13.8306 15.3802 16.2674 15.3468 16.3532C15.3135 16.4389 14.9684 16.1911 14.5797 15.8022C14.1908 15.4135 13.6979 15.0923 13.4839 15.0885C13.2489 15.0845 11.0444 17.1635 7.91062 20.3448C3.30011 25.0253 2.71047 25.7009 2.58434 26.4478C2.32726 27.9693 2.62197 28.8324 3.86347 30.1948C5.28679 31.7566 6.32691 32.2323 7.59173 31.8996C8.33272 31.7045 9.09788 31.0369 12.4753 27.6386C17.5853 22.4971 18.6655 21.2926 18.6655 20.7362C18.6655 20.4882 18.4175 19.9601 18.1146 19.5628L17.5634 18.8403L18.5876 17.7803C27.4285 8.62797 27.958 8.11632 29.1194 7.60257C30.0599 7.18678 30.4398 6.82207 31.6962 5.1282C32.5068 4.03554 33.17 3.01392 33.17 2.85816C33.17 2.5954 30.8621 0.154449 30.6414 0.183878C30.5869 0.191025 29.6746 0.876937 28.6139 1.70789ZM19.5232 17.7061L18.3982 18.8454L18.8472 19.4161C19.5034 20.2504 19.4322 21.2321 18.6506 22.1223C18.2127 22.6212 18.0606 22.9556 18.1776 23.1627C18.2727 23.3306 19.9211 25.0775 21.8412 27.0444C25.6298 30.9253 25.8465 31.0615 27.7796 30.7716C29.6878 30.4853 30.749 28.3132 29.9336 26.3618C29.7724 25.9757 28.2734 24.2524 26.6024 22.5322C24.9317 20.8121 22.9557 18.7663 22.2116 17.9858C21.4674 17.2053 20.8111 16.5669 20.7533 16.5669C20.6955 16.5669 20.1418 17.0796 19.5232 17.7061ZM11.3477 19.8905C11.0806 20.2014 9.59061 21.7433 8.03695 23.3167C5.53378 25.8521 4.78102 26.8672 5.40387 26.8672C5.5094 26.8672 7.15765 25.2837 9.06656 23.3483C11.6736 20.7051 12.4827 19.7636 12.3174 19.5645C12.0168 19.2023 11.9082 19.2389 11.3477 19.8905ZM10.7827 25.118C8.93287 27.0143 7.38888 28.7038 7.35146 28.8726C7.19297 29.5881 7.97768 29.0586 9.77812 27.235C14.6623 22.288 15.0365 21.835 14.3432 21.707C14.2348 21.687 12.6325 23.2219 10.7827 25.118ZM25.9461 26.2519C24.8413 27.1209 25.4095 28.7591 26.8158 28.7591C28.0905 28.7591 28.6015 27.0625 27.571 26.2519C27.2664 26.0123 26.9009 25.8161 26.7586 25.8161C26.6163 25.8161 26.2507 26.0123 25.9461 26.2519Z" fill="#00FFF2"/>
</svg>
