<svg width="44" height="32" viewBox="0 0 44 32" fill="none" xmlns="http://www.w3.org/2000/svg">
<path fill-rule="evenodd" clip-rule="evenodd" d="M21.9014 0.0247187C37.5616 0.0897587 37.853 0.0999225 38.5268 0.615161C38.904 0.903776 39.443 1.45559 39.7247 1.84075C40.2173 2.51656 40.2413 2.93831 40.3608 13.0124L40.485 23.4828L41.9596 26.1525C43.7105 29.3222 43.8774 30.4106 42.7631 31.3913L42.0716 32H1.39484L0.703488 31.3913C-0.410525 30.4106 -0.243657 29.3222 1.50714 26.1525L2.98141 23.4828L3.1056 12.8854C3.22541 2.67306 3.24848 2.2625 3.74421 1.57145C4.02713 1.17613 4.64186 0.651744 5.11025 0.406828C5.14104 0.390568 5.17245 0.374303 5.20527 0.35906L5.39338 0.285891C6.31156 -0.0139027 8.67841 -0.0301588 21.9014 0.0247187ZM17.064 27.4746C16.6513 27.8964 16.6915 28.5823 17.1561 29.058C17.4789 29.3882 18.2451 29.4573 21.5882 29.4573C25.3176 29.4573 25.6648 29.4177 26.0807 28.9482C26.4528 28.5275 26.4821 28.3283 26.2488 27.8039L25.9661 27.1688H21.664C18.6493 27.1688 17.2727 27.2602 17.064 27.4746ZM6.08606 22.5926H37.3805V3.01453H6.08606V22.5926Z" fill="#00FFF2"/>
</svg>
