<svg width="20" height="32" viewBox="0 0 20 32" fill="none" xmlns="http://www.w3.org/2000/svg">
<g opacity="0.9">
<path fill-rule="evenodd" clip-rule="evenodd" d="M7.57885 30.7023C7.71285 30.6288 8.15985 30.623 9.73148 30.6398C11.721 30.6618 11.8808 30.6751 11.8695 30.8187C11.8541 31.0168 11.3534 31.6034 11.0137 31.8223C10.6542 32.0533 9.19919 32.0609 8.62305 31.8344C8.14959 31.6486 7.46031 30.9716 7.52691 30.7614L7.57885 30.7023Z" fill="#00FFF2"/>
<path d="M11.0137 31.8223C10.6542 32.0533 9.19919 32.0609 8.62305 31.8344C8.14959 31.6486 7.46031 30.9716 7.52691 30.7614L7.57885 30.7023C7.71285 30.6288 8.15985 30.623 9.73148 30.6398C11.721 30.6618 11.8808 30.6751 11.8695 30.8187C11.8541 31.0168 11.3534 31.6034 11.0137 31.8223Z" fill="#00FFF2"/>
<path fill-rule="evenodd" clip-rule="evenodd" d="M7.57885 30.7023C7.55082 30.7174 7.53646 30.7353 7.52836 30.7568C7.52783 30.7585 7.52737 30.7597 7.52691 30.7614L7.57885 30.7023Z" fill="#00FFF2"/>
<path d="M7.52836 30.7568C7.53646 30.7353 7.55082 30.7174 7.57885 30.7023L7.52691 30.7614C7.52737 30.7597 7.52783 30.7585 7.52836 30.7568Z" fill="#00FFF2"/>
<path fill-rule="evenodd" clip-rule="evenodd" d="M13.6179 28.4088C13.3426 28.9508 13.4208 28.9401 9.75534 28.9401C6.03953 28.9401 6.14099 28.9556 5.89198 28.3488C5.7999 28.1243 5.76313 27.6989 5.76313 26.8589C5.76313 25.7219 5.7706 25.6742 5.98863 25.4103L6.19003 25.1663L6.26334 25.1376L13.3502 25.1834L13.5488 25.4838C13.7314 25.7597 13.7476 25.8806 13.7476 26.9687C13.7476 27.8468 13.714 28.2194 13.6179 28.4088Z" fill="#00FFF2"/>
<path d="M13.3502 25.1834L13.5488 25.4838C13.7314 25.7597 13.7476 25.8806 13.7476 26.9687C13.7476 27.8468 13.714 28.2194 13.6179 28.4088C13.3426 28.9508 13.4208 28.9401 9.75534 28.9401C6.03953 28.9401 6.14099 28.9556 5.89198 28.3488C5.7999 28.1243 5.76313 27.6989 5.76313 26.8589C5.76313 25.7219 5.7706 25.6742 5.98863 25.4103L6.19003 25.1663L6.26334 25.1376L13.3502 25.1834Z" fill="#00FFF2"/>
<path fill-rule="evenodd" clip-rule="evenodd" d="M6.21407 25.1372L6.26334 25.1376L6.19003 25.1663L6.21407 25.1372Z" fill="#00FFF2"/>
<path d="M6.26334 25.1376L6.19003 25.1663L6.21407 25.1372L6.26334 25.1376Z" fill="#00FFF2"/>
<path fill-rule="evenodd" clip-rule="evenodd" d="M13.1693 0.573765C13.4635 0.715467 13.7681 0.831515 13.8463 0.831515C13.9245 0.831573 14.1783 0.961519 14.4104 1.1203C14.6425 1.27903 14.9496 1.46723 15.0927 1.53835C15.4242 1.70315 16.6191 2.75987 17.1352 3.34457C17.5463 3.81039 18.1737 4.66129 18.1737 4.75308C18.1737 4.78203 18.3038 5.01535 18.4628 5.27159C18.6218 5.52772 18.8046 5.93621 18.8692 6.17925C18.9338 6.42235 19.0732 6.82203 19.1788 7.06751C19.6477 8.15596 19.6411 11.3854 19.1679 12.4623C19.0594 12.7092 18.9213 13.0871 18.8613 13.302C18.8012 13.5168 18.67 13.8118 18.5696 13.9577C18.4693 14.1035 18.3313 14.3422 18.2631 14.488C18.0098 15.0295 17.4652 15.7264 16.5686 16.656C16.3688 16.8632 15.5701 18.1142 15.5701 18.22C15.5701 18.2458 15.4271 18.6299 15.2522 19.0734C14.9487 19.8437 14.7775 20.6434 14.6252 22.0032C14.55 22.6736 14.3595 23.1714 14.0795 23.4296C13.9134 23.5828 13.6646 23.5923 9.85471 23.5923C5.38226 23.5923 5.45077 23.6004 5.12631 23.0331C5.03389 22.8713 4.92965 22.4935 4.89485 22.1934C4.72344 20.7179 4.636 20.3442 4.07272 18.6804C3.79598 17.8627 3.35362 17.1873 2.30426 15.9801C2.13024 15.78 1.892 15.5015 1.77497 15.3615C1.45613 14.9801 0.740436 13.748 0.601919 13.342C0.535035 13.1459 0.371849 12.7268 0.239355 12.4108C0.204031 12.3266 0.17386 12.2547 0.148148 12.1867L0.0385271 11.7429C-0.00108232 11.4198 -0.000791667 10.9156 0.000308594 9.80328L0.00233428 7.77028L0.369937 6.75382C0.572154 6.19471 0.794406 5.618 0.863955 5.47213C1.36834 4.41339 2.24281 3.22788 2.99528 2.58261C3.23965 2.37315 3.60488 2.05981 3.80698 1.88643C4.00914 1.71311 4.29758 1.51935 4.44809 1.45588C4.59859 1.39242 4.72165 1.31459 4.72165 1.28291C4.72165 1.19929 5.17773 0.975071 6.06686 0.621597C7.09207 0.213922 7.52355 0.117502 8.67048 0.0394993C10.5757 -0.0899841 12.1895 0.101637 13.1693 0.573765Z" fill="#00FFF2"/>
</g>
</svg>
