<svg width="34" height="18" viewBox="0 0 34 18" fill="none" xmlns="http://www.w3.org/2000/svg">
<path d="M25.1428 0.399658C26.122 0.399376 27.1462 0.526798 27.8381 0.807861C30.5951 1.92792 32.4363 4.11153 32.9866 6.9397C33.2782 8.43881 33.272 9.31991 32.9641 10.929C31.8966 16.5081 25.8882 19.2155 21.1829 16.1848C20.0577 15.46 18.1852 13.6524 17.1282 12.2844C16.9921 12.1083 16.859 11.9489 16.7502 11.8254C16.7195 11.8632 16.6873 11.9042 16.6555 11.9475C16.0187 12.8138 15.1787 13.7568 14.3557 14.5627C13.5394 15.3621 12.7121 16.0548 12.0989 16.3987C10.1512 17.4907 8.09796 17.7448 6.00317 17.1458C4.65935 16.7613 3.81185 16.2385 2.74243 15.1516C2.2647 14.6661 1.94653 14.3087 1.65942 13.8372C1.37738 13.3739 1.13316 12.8127 0.778564 11.9358C0.455665 11.1376 0.401599 10.6072 0.399658 8.87134C0.397725 7.11917 0.448526 6.60882 0.777588 5.79907C1.07227 5.07399 1.24469 4.66368 1.47583 4.28052C1.55484 4.14955 1.63991 4.02401 1.73657 3.89087C1.88643 3.68447 2.06752 3.4563 2.30298 3.16528H2.30396C3.14631 2.1245 4.02492 1.50274 5.55884 0.829346C6.21921 0.539455 7.22581 0.408214 8.1897 0.405518C9.15419 0.402829 10.1646 0.528764 10.8352 0.813721C12.784 1.64207 14.1767 2.80269 16.0178 5.0813C16.2627 5.38444 16.4984 5.65767 16.679 5.85278C16.7033 5.87908 16.7276 5.90234 16.7493 5.92505C16.8679 5.79983 17.0168 5.63078 17.1663 5.44165C18.8949 3.25514 20.9062 1.47812 22.4788 0.811768C23.1495 0.527643 24.1651 0.399966 25.1428 0.399658ZM11.7639 5.7229C10.0562 4.02436 8.54158 3.55891 7.11353 4.06665C6.0087 4.45962 5.18557 5.07061 4.63696 5.86255C4.08806 6.65509 3.79419 7.65778 3.79419 8.86548C3.79436 11.3872 5.25594 13.3292 7.37817 13.7903C8.21182 13.9713 8.92092 13.9257 9.63892 13.6243C10.371 13.3169 11.1415 12.7318 12.0676 11.7776C12.5256 11.3056 13.1702 10.5622 13.7024 9.91138C13.968 9.58649 14.2021 9.28905 14.3684 9.06372C14.4254 8.98649 14.4699 8.91815 14.5071 8.86353C14.4645 8.80352 14.4113 8.72785 14.344 8.64087C14.1577 8.40028 13.8946 8.08126 13.5969 7.73267C13.0009 7.03475 12.2778 6.23411 11.7639 5.7229ZM27.6516 4.71411C26.6106 3.93287 25.3325 3.648 24.1584 4.06567C23.0183 4.47134 21.8299 5.43472 20.2893 7.2981C19.9066 7.76095 19.5547 8.19341 19.2961 8.51685C19.1831 8.65819 19.0888 8.77772 19.0178 8.86938C19.0532 8.92056 19.0949 8.98312 19.1467 9.05298C19.3263 9.29484 19.5843 9.6209 19.8811 9.98071C20.4753 10.7011 21.2087 11.5399 21.7434 12.0901C23.2082 13.5973 24.7033 14.1227 26.1487 13.7776C28.4709 13.2232 29.9147 11.0096 29.6243 8.23071C29.4702 6.75652 28.6924 5.49535 27.6516 4.71411Z" fill="#00FFF2" stroke="#00FFF2" stroke-width="0.8"/>
</svg>
