<svg width="138" height="138" viewBox="0 0 138 138" fill="none" xmlns="http://www.w3.org/2000/svg">
<g filter="url(#filter0_dd_244_1823)">
<path fill-rule="evenodd" clip-rule="evenodd" d="M66.5869 0.103466C65.5259 0.218027 63.8447 0.470433 63.08 0.629972C62.7585 0.696909 61.911 0.821786 61.1966 0.907243C60.4822 0.992701 59.4886 1.19338 58.9885 1.35306C58.4885 1.51273 57.6117 1.75058 57.0402 1.88154C56.4687 2.01264 55.7089 2.25354 55.3517 2.41704C54.9945 2.58055 54.2931 2.85028 53.793 3.01644C53.293 3.18272 52.745 3.41052 52.5751 3.52283C52.4053 3.63514 51.9437 3.83808 51.5494 3.97367C51.1549 4.10927 50.6508 4.35796 50.4292 4.52637C50.2076 4.69477 49.8149 4.9014 49.5565 4.98567C49.2982 5.06981 48.8598 5.31374 48.5824 5.52752C48.3049 5.7413 48.0336 5.9179 47.9792 5.91988C47.825 5.9257 45.7921 7.24263 45.2883 7.66317C45.0398 7.87046 44.7713 8.04019 44.6915 8.04019C44.6117 8.04019 44.4464 8.15277 44.3241 8.29021C44.202 8.42779 43.8423 8.70745 43.5247 8.91183C43.2072 9.11635 42.9475 9.3292 42.9475 9.38489C42.9475 9.44059 42.5944 9.73982 42.1629 10.0498C41.2078 10.7357 41.1494 11.0999 41.9733 11.2328C42.2591 11.2789 42.8143 11.443 43.2072 11.5977C43.6001 11.7522 43.9942 11.8505 44.0831 11.8159C44.1719 11.7814 44.7939 11.3345 45.4655 10.8227C46.137 10.3109 46.742 9.89221 46.81 9.89221C46.878 9.89221 47.045 9.76667 47.1811 9.61322C47.3172 9.45977 47.7604 9.16344 48.1659 8.95469C48.5716 8.74594 48.9395 8.5155 48.9838 8.44247C49.0283 8.36945 49.427 8.12737 49.8701 7.90459C50.3132 7.68169 50.8803 7.38312 51.1304 7.24091C51.3804 7.09883 51.7895 6.89206 52.0396 6.78147C52.2896 6.67088 52.6403 6.49388 52.8189 6.38831C53.2109 6.15641 53.9338 5.84633 54.3775 5.71974C54.5561 5.6688 54.9945 5.49194 55.3517 5.32671C55.7089 5.16161 56.2641 4.95339 56.5856 4.8641C56.9071 4.7748 57.5793 4.56367 58.0793 4.39487C58.5794 4.22607 59.3392 4.01905 59.7678 3.93478C60.6026 3.77074 62.2169 3.4633 63.2748 3.26672C65.6672 2.82237 72.7611 2.77898 74.51 3.19794C74.9744 3.30919 75.9096 3.48963 76.5882 3.5989C78.1827 3.85554 79.7027 4.193 80.0041 4.3573C80.1351 4.42861 80.7967 4.63378 81.4745 4.8133C82.1522 4.99268 83.0324 5.2861 83.4304 5.46535C83.8284 5.64459 84.2022 5.7913 84.2612 5.7913C84.5411 5.7913 89.2941 8.25952 89.6814 8.60598C89.8026 8.71433 90.1355 8.92281 90.4212 9.06899C90.707 9.2153 91.0521 9.4603 91.1882 9.61362C91.3243 9.76681 91.4904 9.89221 91.5573 9.89221C91.6244 9.89221 91.8278 10.0113 92.0093 10.1568C92.1911 10.3023 92.4204 10.4214 92.5193 10.4214C92.722 10.4214 94.3828 8.77743 94.3828 8.57675C94.3828 8.44062 93.167 7.53749 92.2543 6.99538C91.9605 6.82089 91.5671 6.54865 91.3802 6.3903C91.1931 6.23208 90.8424 6.02294 90.6009 5.92557C90.3591 5.82821 90.0445 5.64539 89.9017 5.51945C89.7588 5.39338 89.3204 5.15486 88.9275 4.98951C88.5346 4.82401 88.1225 4.61077 88.0117 4.51578C87.901 4.42067 87.3755 4.16033 86.844 3.93703C86.3126 3.71386 85.7602 3.45484 85.6167 3.36144C85.473 3.26805 85.0634 3.11354 84.7062 3.01789C84.349 2.92225 83.8522 2.75596 83.6021 2.64828C83.3521 2.54073 82.9722 2.37696 82.7579 2.28449C82.5436 2.19189 81.8129 1.98539 81.1343 1.82545C80.4556 1.66565 79.5789 1.42568 79.186 1.29247C78.7931 1.15912 77.8579 0.982251 77.1078 0.899306C76.3577 0.816362 75.5185 0.688178 75.2427 0.614493C74.7434 0.481015 73.6078 0.33497 71.2629 0.102408C69.8815 -0.0345095 67.8603 -0.0341132 66.5869 0.103466ZM48.4077 22.1156C48.3425 22.2902 48.3013 22.8586 48.3161 23.3788C48.3465 24.4434 48.4761 24.6186 49.1417 24.4946C49.6376 24.4022 53.9628 24.6618 55.1569 24.8556C55.6212 24.9311 56.4395 25.0792 56.9753 25.1851C57.5111 25.2909 58.2709 25.4406 58.6638 25.5179C60.3048 25.8404 65.7117 27.6461 66.4016 28.102C66.5496 28.1999 67.1009 28.433 67.6265 28.62C68.1522 28.8071 68.7134 29.0652 68.8738 29.1938C69.0343 29.3222 69.4474 29.5344 69.792 29.6652C70.1366 29.7959 70.6046 30.0438 70.832 30.2161C71.0594 30.3882 71.2844 30.5291 71.332 30.5291C71.523 30.5291 72.3891 30.9937 72.7341 31.2812C72.9359 31.4497 73.1584 31.5874 73.2283 31.5874C73.39 31.5874 75.3396 32.8446 75.9359 33.3336C76.1844 33.5373 76.4407 33.704 76.5056 33.704C76.6711 33.704 78.6042 35.1007 79.7812 36.0706C79.8585 36.1344 80.4138 36.574 81.0152 37.0475C81.6164 37.5211 82.3247 38.1234 82.589 38.3859C82.8535 38.6484 83.1071 38.8632 83.153 38.8632C83.4067 38.8632 91.1356 46.7643 91.1356 47.0236C91.1356 47.0919 91.3177 47.3227 91.5403 47.5364C91.9395 47.9196 93.8057 50.2064 94.0581 50.6216C94.1295 50.739 94.378 51.0586 94.6101 51.3317C94.8422 51.6047 95.0331 51.8726 95.0343 51.927C95.0355 51.9813 95.2181 52.2341 95.4402 52.4888C95.6623 52.7435 95.9899 53.1899 96.1682 53.481C96.3464 53.772 96.635 54.1661 96.8094 54.3567C96.9839 54.5473 97.2252 54.8889 97.3458 55.1158C97.4664 55.3426 97.9595 56.1145 98.4417 56.831C98.924 57.5475 99.3185 58.1801 99.3185 58.2368C99.3185 58.2937 99.5109 58.616 99.7458 58.9532C99.9809 59.2904 100.257 59.7448 100.36 59.963C100.463 60.1813 100.68 60.5441 100.842 60.7692C101.004 60.9944 101.137 61.2204 101.137 61.2716C101.137 61.3228 101.33 61.6744 101.565 62.0529C101.8 62.4314 102.09 62.9522 102.208 63.2102C102.326 63.4681 102.63 64.0302 102.884 64.4591C103.138 64.8881 103.345 65.3352 103.345 65.453C103.345 65.5707 103.422 65.7747 103.517 65.9065C103.75 66.2314 104.053 66.0237 104.633 65.1401C105.19 64.2927 105.294 63.4794 104.93 62.8072C104.703 62.3862 104.363 61.7659 103.088 59.4445C102.851 59.0138 102.535 58.4648 102.384 58.2247C102.234 57.9846 101.877 57.3977 101.592 56.9204C101.306 56.4433 100.867 55.7615 100.617 55.4052C100.367 55.0491 99.8242 54.2322 99.4102 53.5901C98.4727 52.136 98.1412 51.6541 97.5604 50.9013C97.3078 50.5739 96.7672 49.8512 96.359 49.2954C95.1847 47.6965 94.3736 46.6785 93.6034 45.8372C93.2105 45.4081 92.8662 44.9923 92.8382 44.9134C92.8102 44.8345 92.5764 44.551 92.3186 44.2835C90.9839 42.8982 87.2529 39.0821 86.9143 38.7558C86.0747 37.9467 84.16 36.2516 83.6671 35.8809C83.3813 35.6659 82.7329 35.1329 82.2261 34.6963C81.7193 34.2597 81.0471 33.7061 80.7324 33.4661C79.1338 32.2475 78.591 31.8587 78.4838 31.8555C78.4191 31.8535 78.1853 31.7126 77.9643 31.5423C77.2427 30.9863 75.4233 29.7353 75.3362 29.7353C75.2895 29.7353 74.9474 29.5299 74.5759 29.2788C74.2045 29.0276 73.7309 28.7482 73.5234 28.6579C73.316 28.5675 73.0567 28.4183 72.9472 28.3263C72.6928 28.1124 69.744 26.6265 69.3145 26.4958C69.136 26.4414 68.8975 26.3145 68.7845 26.2139C68.6716 26.1132 68.1456 25.8793 67.6155 25.6941C67.0856 25.5089 66.4181 25.2437 66.1323 25.1046C64.8876 24.4993 59.2213 22.8356 57.8195 22.664C57.4623 22.6204 56.5163 22.4966 55.7171 22.389C54.9179 22.2813 54.0996 22.1861 53.8986 22.1771C53.6977 22.1681 52.8727 22.0792 52.0654 21.9795C51.258 21.8797 50.1314 21.7981 49.5618 21.7981C48.5882 21.7981 48.5191 21.8171 48.4077 22.1156ZM86.3947 22.0767C85.8946 22.1379 85.4002 22.157 85.2957 22.1188C85.1913 22.0807 84.4899 22.1458 83.7371 22.2634C82.9843 22.381 81.9591 22.5343 81.459 22.6041C80.9589 22.674 80.1114 22.8753 79.5756 23.0517C79.0399 23.2279 78.1088 23.4983 77.5067 23.6524C76.9044 23.8064 76.2339 24.0261 76.0165 24.1406C75.799 24.2551 75.2431 24.4786 74.781 24.6375C74.319 24.7963 73.9201 24.9898 73.8946 25.0676C73.8377 25.2413 75.5265 26.4021 76.0652 26.5594C76.4626 26.6755 78.423 26.2916 78.7225 26.0391C78.7988 25.9747 79.4165 25.796 80.0952 25.6417C80.7738 25.4876 81.6506 25.2786 82.0435 25.1774C83.6537 24.7623 84.302 24.6867 86.7844 24.6251C88.2131 24.5895 89.5137 24.5331 89.6744 24.4997C89.9474 24.4428 89.9666 24.371 89.9666 23.4035C89.9666 22.0209 89.8628 21.9244 88.3977 21.9477C87.7962 21.9574 86.8948 22.0153 86.3947 22.0767ZM62.7972 29.8772C62.5344 29.9403 62.0668 30.1634 61.7581 30.3732C61.4492 30.583 60.9451 30.9271 60.6378 31.138C60.3305 31.3487 59.9392 31.6105 59.7682 31.7197C58.9471 32.2438 57.5552 33.2392 57.5181 33.3288C57.4952 33.3841 57.2614 33.5608 56.9985 33.7216C55.1009 34.8817 48.2495 41.2635 45.5701 44.3665C44.0738 46.0993 42.9133 47.5308 41.7195 49.1155C41.2262 49.7703 40.7443 50.3953 40.6487 50.5045C40.2797 50.9257 39.0508 52.735 39.0508 52.857C39.0508 52.9277 38.9606 53.0619 38.8504 53.155C38.7402 53.2483 38.2871 53.8979 37.8438 54.5987C36.8586 56.1558 36.8046 56.2431 36.365 56.9866C36.1715 57.314 35.8491 57.7889 35.6487 58.042C35.4482 58.295 35.2841 58.5711 35.2841 58.6555C35.2841 58.7399 35.0932 59.0984 34.8599 59.4521C34.6266 59.8059 34.3498 60.2739 34.2449 60.4922C34.1399 60.7105 33.8819 61.1809 33.6716 61.5375C33.1399 62.4392 32.7501 63.168 32.4263 63.8655C32.2744 64.1929 32.0807 64.6096 31.996 64.7915C31.9113 64.9734 31.7091 65.3262 31.5466 65.5756C31.384 65.825 31.214 66.1821 31.1686 66.3693C31.1233 66.5565 30.9616 66.9181 30.8094 67.1727C30.6573 67.4274 30.4248 67.9036 30.2929 68.231C30.161 68.5584 29.8565 69.2475 29.6162 69.7622C29.3761 70.277 29.1794 70.7898 29.1794 70.9019C29.1794 71.0141 28.9797 71.5156 28.7356 72.0166C28.4914 72.5174 28.2261 73.1951 28.1459 73.5225C28.0656 73.8499 27.8581 74.4155 27.6847 74.7792C27.5112 75.143 27.2854 75.7733 27.1829 76.1796C27.0805 76.586 26.8464 77.3013 26.6626 77.7691C26.4788 78.2368 26.2315 79.0651 26.1129 79.6097C25.9943 80.1544 25.8494 80.6623 25.7905 80.7388C25.6526 80.9182 25.0258 83.4212 25.0242 83.7987C25.0236 83.9574 24.8538 84.7908 24.647 85.6508C24.2003 87.5078 24.0423 89.1127 24.2963 89.2121C24.3891 89.2483 24.8096 89.1614 25.2311 89.0189C25.6525 88.8765 26.1571 88.7238 26.3524 88.6796C26.7486 88.5899 26.7203 88.6809 27.0149 86.5528C27.1257 85.7525 27.3379 84.681 27.4866 84.1717C27.6352 83.6624 27.8446 82.8289 27.9517 82.3196C28.059 81.8103 28.2824 81.0662 28.4483 80.666C28.614 80.2659 28.8547 79.492 28.9829 78.9463C29.1111 78.4006 29.3326 77.7176 29.4749 77.4284C29.6174 77.1393 29.8381 76.5318 29.9654 76.0786C30.0927 75.6254 30.284 75.088 30.3906 74.8846C30.68 74.3324 31.0876 73.2491 31.1885 72.7633C31.2375 72.5277 31.3317 72.3008 31.3979 72.2593C31.5141 72.186 32.0369 71.108 32.0369 70.9413C32.0369 70.8961 32.3019 70.2827 32.6257 69.5781C33.2549 68.2092 33.3883 67.9334 33.8217 67.1066C33.9743 66.8155 34.2201 66.3095 34.3679 65.9821C34.5158 65.6547 34.8976 64.9106 35.2163 64.3285C35.5352 63.7465 35.975 62.9131 36.1939 62.4765C36.4126 62.04 36.8089 61.3157 37.0744 60.8668C37.34 60.4181 37.7276 59.7633 37.9359 59.4117C38.1441 59.0602 38.5387 58.4233 38.8126 57.9967C39.0866 57.5701 39.3106 57.1616 39.3106 57.0888C39.3106 57.0162 39.4606 56.77 39.6442 56.5417C40.0332 56.0575 41.0924 54.5373 41.4214 53.9911C41.7987 53.3643 42.2575 52.71 42.6138 52.2904C42.799 52.0721 43.2546 51.4768 43.6261 50.9675C43.9976 50.4582 44.8882 49.3353 45.6052 48.4723C46.3223 47.6092 46.9959 46.7758 47.1022 46.6203C47.4925 46.0484 53.603 39.9515 54.9108 38.8288C55.6534 38.1913 56.4117 37.5173 56.5959 37.3309C56.7802 37.1445 57.0506 36.9219 57.1969 36.8361C57.4352 36.6964 57.8901 36.3413 59.3015 35.1923C59.5451 34.994 59.8427 34.7715 59.9628 34.6978C60.0831 34.6242 60.427 34.3853 60.7272 34.167C61.0272 33.9487 61.6212 33.517 62.0468 33.2079C62.4726 32.8987 62.8994 32.6457 62.9953 32.6457C63.0911 32.6457 63.2809 32.5203 63.417 32.3671C63.5531 32.2137 63.8983 31.9689 64.184 31.8227C64.4698 31.6767 64.8964 31.4098 65.1321 31.2298C65.6293 30.8501 65.5789 30.7255 64.725 30.2222C64.0714 29.8369 63.4378 29.7236 62.7972 29.8772ZM115.451 35.6647L114.634 36.2836L114.736 37.0773C114.792 37.5139 114.835 39.2997 114.831 41.0459C114.825 43.7687 114.776 44.5505 114.484 46.5359C114.297 47.8091 114.047 49.1783 113.929 49.5785C113.812 49.9786 113.576 50.8418 113.406 51.4966C113.022 52.976 112.239 55.3806 111.855 56.259C111.696 56.6228 111.462 57.2437 111.334 57.6389C111.206 58.034 110.994 58.544 110.861 58.7722C110.729 59.0004 110.512 59.5106 110.378 59.9059C110.076 60.8 108.266 64.5714 107.604 65.6869C107.333 66.1429 107.112 66.5503 107.112 66.5924C107.112 66.6344 106.981 66.8563 106.821 67.0854C106.66 67.3147 106.369 67.8172 106.172 68.2024C105.795 68.9442 104.411 71.1384 103.379 72.6325C103.039 73.1253 102.566 73.8098 102.329 74.1538C102.091 74.4977 101.763 74.9281 101.6 75.11C101.437 75.2919 101.195 75.6341 101.062 75.8706C100.93 76.1071 100.777 76.3006 100.723 76.3006C100.668 76.3006 100.536 76.4736 100.429 76.6851C100.226 77.085 98.8217 78.781 96.6146 81.2919C95.7046 82.3272 90.6159 87.5134 89.7652 88.2726C89.3574 88.6364 88.8998 89.0593 88.7484 89.2123C88.2385 89.7276 85.9866 91.6306 84.3165 92.9577C83.6736 93.4684 83.0823 93.9428 83.0026 94.0116C82.9228 94.0804 82.5365 94.3651 82.1443 94.6442C81.7519 94.9232 81.262 95.2842 81.0553 95.4465C80.0618 96.2266 79.0756 96.9374 78.9867 96.9374C78.9324 96.9374 78.6482 97.1365 78.3551 97.3799C78.0619 97.6232 77.676 97.8985 77.4974 97.9916C77.3188 98.0849 77.0558 98.2643 76.913 98.3903C76.7701 98.5164 76.3317 98.7902 75.9388 98.9988C75.5459 99.2075 75.0436 99.5136 74.8225 99.6791C74.6015 99.8446 74.3811 99.98 74.3326 99.98C73.9845 99.98 72.302 101.366 72.302 101.653C72.302 101.865 73.8601 102.758 74.2301 102.758C74.5364 102.758 76.3004 101.923 76.9162 101.486C77.1287 101.336 77.6094 101.045 77.9845 100.84C78.3596 100.635 78.6664 100.431 78.6664 100.386C78.6664 100.341 78.8857 100.188 79.1535 100.046C79.4215 99.9032 79.9381 99.5623 80.3018 99.288C80.6655 99.0138 81.0199 98.7894 81.0894 98.7894C81.1587 98.7894 81.3835 98.6108 81.5889 98.3926C81.7942 98.1743 82.0171 97.9957 82.0844 97.9957C82.1516 97.9957 82.8993 97.4599 83.7461 96.8051C84.5928 96.1503 85.3273 95.6145 85.3783 95.6145C85.4294 95.6145 85.6497 95.437 85.868 95.2199C86.9075 94.1862 87.2303 93.8948 87.3357 93.8948C87.4425 93.8948 90.3111 91.3833 91.7174 90.0585C95.4152 86.5747 98.7606 83.0246 100.877 80.3382C101.27 79.8395 101.928 79.0173 102.338 78.5112C102.749 78.0051 103.085 77.55 103.085 77.4999C103.085 77.4497 103.217 77.268 103.377 77.0959C103.683 76.7685 104.392 75.8111 104.995 74.9115C105.19 74.6205 105.512 74.1869 105.711 73.9478C105.91 73.7089 106.073 73.4577 106.073 73.3897C106.073 73.3217 106.497 72.6243 107.017 71.84C107.536 71.0555 108.048 70.2369 108.153 70.0207C108.259 69.8046 108.536 69.3372 108.768 68.9821C109 68.6272 109.19 68.2739 109.19 68.1972C109.19 68.1204 109.335 67.8631 109.513 67.6255C110.41 66.4282 113.596 59.7327 114.262 57.648C114.389 57.2478 114.665 56.5037 114.874 55.9944C115.082 55.4851 115.289 54.8403 115.333 54.5615C115.376 54.2828 115.529 53.8065 115.672 53.5032C115.816 53.2 116.027 52.4756 116.141 51.8935C116.255 51.3114 116.459 50.4483 116.593 49.9753C117.22 47.764 117.373 46.1565 117.373 41.794C117.373 38.3273 117.271 36.9436 116.923 35.6883C116.705 34.8989 116.468 34.8951 115.451 35.6647ZM21.5495 36.5795C21.0371 36.616 20.8348 36.6922 20.7322 36.8875C20.5243 37.2833 20.4292 41.7609 20.5934 43.4271C20.9306 46.8495 21.0081 47.4692 21.2719 48.8508C21.4249 49.6511 21.6221 50.4549 21.7103 50.6368C21.7986 50.8187 21.9441 51.3842 22.0338 51.8935C22.1234 52.4028 22.357 53.2362 22.5526 53.7455C22.7483 54.2548 23.0113 55.0287 23.1371 55.4653C23.2629 55.9018 23.4965 56.5269 23.6562 56.8543C23.8161 57.1817 23.9886 57.6282 24.0397 57.8464C24.0907 58.0647 24.3253 58.66 24.561 59.1693C24.7966 59.6786 25.0673 60.3037 25.1623 60.5583C25.2572 60.813 25.4986 61.3067 25.6986 61.6555C25.8985 62.0044 26.0621 62.3241 26.0621 62.366C26.0621 62.5154 27.4128 64.8628 27.6671 65.1553C28.0167 65.5575 28.2001 65.5306 28.5722 65.023C29.3514 63.9604 29.3446 62.8431 28.5491 61.2525C27.8382 59.8308 27.1754 58.3882 26.8021 57.4496C26.1147 55.7215 25.9608 55.3127 25.8059 54.8038C25.7171 54.5128 25.5109 53.9473 25.3475 53.5471C25.1841 53.1469 24.9796 52.4623 24.8933 52.0258C24.8068 51.5892 24.6851 51.113 24.6227 50.9675C24.338 50.3027 24.1172 49.4048 23.9234 48.1233C23.8078 47.3593 23.661 46.5259 23.5971 46.2713C23.1469 44.4785 23.0289 43.1996 23.0194 40.0159C23.0093 36.5741 22.9872 36.4438 22.4253 36.5085C22.3181 36.5209 21.9241 36.5528 21.5495 36.5795ZM13.8346 43.4602C12.6234 44.727 11.9965 45.4789 11.0315 46.8233C10.8727 47.0444 10.6208 47.3826 10.4716 47.5751C8.89404 49.6097 6.73973 53.995 5.78324 57.1189C5.10393 59.3377 4.99808 59.7923 4.64439 62.0135C4.56906 62.4864 4.45553 63.1413 4.39202 63.4687C3.92066 65.8988 3.86273 71.2334 4.28162 73.6548C4.38852 74.2732 4.57127 75.3745 4.68777 76.1021C4.94339 77.6986 5.32045 79.3224 5.52711 79.7156C5.61036 79.874 5.74012 80.3434 5.81559 80.7587C5.89092 81.1739 6.11692 81.8453 6.31786 82.2507C6.5188 82.656 6.75207 83.248 6.83611 83.5663C6.92027 83.8845 7.18914 84.5355 7.43359 85.0129C7.6779 85.4903 7.87806 85.9429 7.87832 86.0185C7.87845 86.0941 8.07107 86.4834 8.3063 86.8836C8.54152 87.2837 8.81377 87.8195 8.91119 88.0741C9.0086 88.3288 9.2133 88.686 9.36605 88.8679C9.51879 89.0498 9.72571 89.3772 9.82585 89.5955C9.92599 89.8137 10.2156 90.29 10.4694 90.6537C10.7232 91.0175 10.9891 91.4137 11.0604 91.5341C11.1317 91.6545 11.5672 92.22 12.0282 92.7909C12.4892 93.3617 12.9276 93.9056 13.0024 93.9997C13.5292 94.6623 14.8138 95.8791 14.9864 95.8791C15.1836 95.8791 16.5804 94.5375 16.5804 94.3482C16.5804 94.3001 16.2425 93.866 15.8296 93.3834C14.3292 91.6295 12.4523 88.9604 11.5848 87.3466C11.3892 86.9828 11.1473 86.5912 11.0473 86.4762C10.9472 86.3614 10.8662 86.2126 10.8674 86.1455C10.8686 86.0786 10.6375 85.5474 10.3538 84.9654C9.58452 83.3869 8.92235 81.7647 8.65297 80.7983C8.52113 80.3254 8.29344 79.6136 8.14706 79.2166C8.00055 78.8196 7.76441 77.8671 7.62231 77.1C7.48022 76.3328 7.27396 75.3183 7.16394 74.8454C6.7987 73.2746 6.68336 71.7672 6.6883 68.6279C6.69297 65.5761 6.76649 64.6598 7.1442 62.9395C7.24811 62.4666 7.43242 61.5439 7.55386 60.8891C7.67531 60.2342 7.97171 59.1329 8.21252 58.4417C8.4532 57.7505 8.68843 57.0064 8.73518 56.7881C8.78194 56.5699 8.98275 56.0639 9.18148 55.6637C9.38021 55.2635 9.64622 54.6385 9.77273 54.2747C9.89911 53.9109 10.0984 53.4644 10.2155 53.2825C10.3325 53.1006 10.6052 52.5946 10.8213 52.1581C11.0374 51.7215 11.3696 51.1329 11.5593 50.8498C11.7491 50.5668 11.9044 50.292 11.9044 50.2391C11.9044 50.1398 13.6218 47.722 14.4407 46.6681C15.5578 45.2307 15.6862 45.0216 15.6158 44.7547C15.5767 44.6066 15.544 43.9347 15.5431 43.2617C15.5417 42.33 15.4998 42.0381 15.3677 42.0381C15.2724 42.0381 14.5824 42.678 13.8346 43.4602ZM122.517 42.3796C122.396 42.7024 122.424 45.0249 122.554 45.3727C122.617 45.5426 122.866 45.9271 123.106 46.2268C124.031 47.3814 125.548 49.4794 125.552 49.6104C125.554 49.6643 125.76 49.9814 126.01 50.315C126.26 50.6487 126.465 50.9794 126.465 51.0502C126.465 51.1208 126.658 51.4883 126.893 51.8668C127.129 52.2453 127.403 52.7633 127.503 53.0179C127.603 53.2726 127.784 53.6663 127.907 53.8928C128.313 54.6459 128.385 54.7996 128.608 55.3991C128.73 55.7265 128.968 56.3218 129.138 56.722C129.308 57.1222 129.535 57.8068 129.642 58.2433C129.749 58.6799 129.961 59.3644 130.113 59.7646C130.265 60.1648 130.439 60.7898 130.498 61.1536C130.558 61.5174 130.701 62.3508 130.816 63.0057C130.93 63.6605 131.077 64.6129 131.141 65.1223C131.205 65.6316 131.319 66.3689 131.394 66.7608C131.59 67.7833 131.563 71.07 131.35 72.2186C131.25 72.7538 131.103 73.668 131.022 74.2501C130.786 75.9391 130.482 77.6568 130.341 78.0864C130.156 78.6533 129.714 80.1005 129.512 80.7983C128.967 82.6881 127.142 86.5632 125.861 88.5509C125.622 88.9221 125.426 89.2722 125.426 89.3285C125.426 89.3849 125.247 89.6466 125.028 89.91C123.618 91.6079 123.423 92.0125 123.807 92.4449C123.934 92.5875 124.103 92.7042 124.183 92.7042C124.263 92.7042 124.483 92.8828 124.671 93.1011C125.127 93.6305 125.438 93.6012 125.963 92.9799C126.852 91.9262 128.025 90.2343 128.493 89.3309C128.682 88.9671 128.888 88.6493 128.951 88.6249C129.014 88.6004 129.216 88.2453 129.4 87.8359C129.584 87.4265 129.848 86.9279 129.988 86.7281C130.128 86.5282 130.357 86.0233 130.498 85.6059C130.639 85.1887 130.854 84.6953 130.975 84.5094C131.097 84.3237 131.375 83.6359 131.595 82.9811C131.814 82.3262 132.063 81.6648 132.147 81.5111C132.231 81.3575 132.415 80.7027 132.555 80.0559C132.696 79.4093 132.906 78.6123 133.023 78.2849C133.277 77.577 133.607 75.4726 133.613 74.5262C133.616 74.156 133.703 73.4961 133.806 73.0595C134.066 71.9635 134.064 66.9244 133.804 65.7176C133.701 65.2446 133.614 64.5005 133.609 64.064C133.597 63.0811 133.309 61.2409 133.029 60.3599C132.913 59.9961 132.678 59.0952 132.505 58.358C132.333 57.6208 132.083 56.8171 131.95 56.5721C131.817 56.3271 131.628 55.8291 131.531 55.4653C131.434 55.1015 131.16 54.4068 130.923 53.9216C130.686 53.4364 130.491 52.9601 130.49 52.8633C130.49 52.7665 130.371 52.5086 130.226 52.2904C130.081 52.0721 129.758 51.4768 129.51 50.9675C129.049 50.023 128.296 48.7411 127.998 48.393C127.907 48.2867 127.614 47.87 127.347 47.467C126.583 46.3148 126.038 45.5686 125.686 45.1963C125.507 45.0074 124.807 44.2493 124.13 43.5116C123.453 42.7739 122.831 42.1704 122.748 42.1704C122.664 42.1704 122.561 42.2646 122.517 42.3796ZM34.3411 72.9603C34.1529 73.1604 33.9069 73.5486 33.7944 73.8229C33.5961 74.3066 33.6008 74.3427 33.95 75.0135C34.2619 75.6125 34.8477 76.5281 36.1275 78.4172C36.5592 79.0545 37.4088 80.1368 38.3365 81.231C38.7651 81.7368 39.1742 82.2395 39.2457 82.3485C39.3171 82.4573 39.6623 82.8525 40.0129 83.2267C40.3633 83.601 41.1194 84.4429 41.6929 85.0977C43.0536 86.6514 45.3944 89.0318 47.1039 90.6C47.8539 91.2883 48.6783 92.0581 48.9358 92.3108C49.1932 92.5636 49.6561 92.9787 49.9645 93.2334C50.2728 93.488 50.8512 93.9787 51.2498 94.3235C51.6485 94.6685 52.0127 94.9512 52.059 94.9519C52.1435 94.9531 52.8004 95.5455 53.5334 96.2815C53.7477 96.4968 53.9723 96.6728 54.0323 96.6728C54.1449 96.6728 55.9638 98.0085 56.646 98.5922C56.8579 98.7734 57.0862 98.9217 57.1533 98.9217C57.2205 98.9217 57.4851 99.0854 57.7413 99.2855C58.3291 99.7444 60.2184 101.038 60.3008 101.038C60.3348 101.038 60.6664 101.247 61.0376 101.501C61.409 101.756 61.7636 101.964 61.8256 101.964C61.8877 101.964 62.1515 102.134 62.4118 102.341C62.8737 102.708 63.3547 102.993 65.4829 104.161C66.9707 104.978 71.07 107.032 71.9123 107.382C73.4418 108.018 73.9411 108.209 74.3513 108.312C74.5855 108.372 74.8485 108.48 74.9358 108.552C75.0231 108.625 75.6206 108.842 76.2635 109.034C76.9064 109.226 77.6078 109.447 77.8222 109.524C78.7123 109.848 81.1048 110.426 81.565 110.428C81.8375 110.43 82.1594 110.485 82.2802 110.55C82.7572 110.81 84.9552 111.085 87.2565 111.172C90.1166 111.281 90.0017 111.345 89.9396 109.669L89.9017 108.645L87.6936 108.541C85.5167 108.438 83.1235 108.179 82.1084 107.936C81.8227 107.867 81.0629 107.685 80.4199 107.531C79.777 107.377 78.9002 107.126 78.4716 106.972C78.043 106.819 77.2239 106.56 76.6516 106.397C76.0792 106.235 75.3118 105.947 74.9465 105.759C74.5811 105.57 73.9973 105.343 73.6493 105.254C73.3012 105.164 72.7616 104.927 72.4503 104.726C72.139 104.525 71.728 104.325 71.5371 104.283C71.1312 104.192 66.9802 102.079 66.445 101.691C66.2445 101.546 65.7619 101.278 65.3725 101.097C64.9831 100.915 64.5925 100.678 64.5044 100.57C64.4165 100.462 64.0835 100.256 63.7643 100.112C63.4452 99.9686 62.9123 99.6501 62.58 99.4046C62.2478 99.159 61.9175 98.935 61.846 98.9066C61.7746 98.8782 61.1966 98.498 60.5616 98.0616C59.9266 97.6252 59.1879 97.1193 58.9201 96.9374C58.0433 96.342 56.792 95.4369 56.1848 94.9589C55.8571 94.7011 55.3603 94.3149 55.0807 94.1008C54.8011 93.8866 54.5026 93.6269 54.4174 93.5236C54.3322 93.4204 54.0911 93.2086 53.8815 93.053C52.9301 92.3473 51.7035 91.342 50.8508 90.5696C49.5591 89.3993 43.4062 83.1488 42.6198 82.2077C42.2641 81.7824 41.6889 81.1276 41.3411 80.7526C40.9934 80.3775 40.5573 79.8624 40.3718 79.6077C40.1864 79.3531 39.7989 78.8735 39.5104 78.5419C39.2219 78.2104 38.7813 77.6835 38.5313 77.3709C38.2813 77.0583 37.9013 76.5855 37.687 76.3201C37.2114 75.7312 36.8845 75.2604 35.9077 73.758C35.076 72.479 34.8852 72.3818 34.3411 72.9603ZM109.19 73.9554C109.19 74.048 109.024 74.3307 108.82 74.5837C107.907 75.7202 107.908 76.1749 108.825 78.4714C108.968 78.8287 109.281 79.8347 109.521 80.707C109.76 81.5795 110.018 82.3557 110.093 82.4321C110.168 82.5085 110.23 82.7525 110.232 82.9745C110.235 83.5473 110.794 86.704 111.076 87.7434C111.175 88.1072 111.283 88.9006 111.315 89.5064C111.348 90.1123 111.414 90.6481 111.462 90.697C111.598 90.8359 113.65 90.8765 113.843 90.7442C114.029 90.6164 113.916 89.3978 113.54 87.4789C113.44 86.9695 113.293 85.9873 113.213 85.2961C113.071 84.0698 112.842 83.0574 112.495 82.1212C112.4 81.8666 112.26 81.2579 112.182 80.7686C112.104 80.2792 111.918 79.5947 111.769 79.2473C111.619 78.8999 111.392 78.2286 111.264 77.7557C111.136 77.2828 110.822 76.4196 110.567 75.8375C110.311 75.2555 110.1 74.69 110.096 74.5808C110.082 74.0984 109.19 73.4828 109.19 73.9554ZM61.5073 105.898C61.2649 106.005 60.7154 106.197 60.2861 106.325C59.8567 106.453 59.2561 106.68 58.9514 106.83C58.6467 106.98 57.9166 107.201 57.3291 107.321C56.7416 107.442 55.881 107.661 55.4166 107.81C54.8662 107.986 53.7586 108.146 52.2344 108.27C50.9485 108.374 49.575 108.501 49.182 108.552L48.4677 108.645L48.3874 109.315C48.3432 109.683 48.2292 110.204 48.134 110.472C48.0259 110.777 48.0073 111 48.0844 111.068C48.2822 111.242 52.915 111 53.858 110.766C54.3223 110.651 55.1114 110.502 55.6115 110.435C56.7469 110.283 57.457 110.109 58.5339 109.718C58.9983 109.55 59.7289 109.302 60.1575 109.167C60.5861 109.032 61.1122 108.825 61.3265 108.707C61.5408 108.589 62.0376 108.381 62.4305 108.244C62.8234 108.107 63.2326 107.925 63.3397 107.84C63.4469 107.755 63.7281 107.585 63.9648 107.463C64.2234 107.329 64.3788 107.158 64.3544 107.035C64.3149 106.834 62.7669 105.92 62.2217 105.776C62.071 105.736 61.7495 105.79 61.5073 105.898ZM41.1476 116.944C40.9077 117.095 40.4986 117.292 40.2384 117.383C39.3744 117.684 39.5009 117.966 41.0679 119.228C41.3388 119.446 41.8134 119.833 42.1224 120.088C43.2354 121.005 43.8056 121.436 44.6264 121.981C45.0854 122.286 45.5507 122.595 45.6602 122.667C45.7698 122.74 46.1459 122.993 46.4961 123.23C46.8464 123.466 47.194 123.659 47.2685 123.659C47.3431 123.659 47.5849 123.798 47.806 123.968C48.0271 124.137 48.6755 124.518 49.247 124.813C49.8185 125.109 50.4614 125.443 50.6757 125.556C51.9605 126.232 52.7223 126.572 53.4081 126.775C53.8341 126.901 54.2996 127.081 54.4425 127.174C54.8236 127.423 56.204 127.893 56.5538 127.893C56.7199 127.893 57.0904 128.015 57.377 128.163C57.9813 128.478 59.5959 128.897 60.5753 128.995C60.9481 129.032 61.3182 129.103 61.3977 129.153C61.7295 129.362 63.1291 129.63 64.8334 129.809C68.3625 130.182 74.4954 129.984 76.7831 129.424C77.2117 129.319 77.7962 129.175 78.0819 129.104C78.3677 129.033 79.0106 128.903 79.5107 128.815C80.0108 128.728 80.7706 128.518 81.1992 128.35C81.6279 128.181 82.2416 127.976 82.563 127.894C83.4699 127.662 84.2864 127.337 84.6263 127.074C84.7967 126.942 85.0555 126.834 85.2013 126.834C85.43 126.834 86.4076 126.4 88.1482 125.525C89.0058 125.094 90.2918 124.356 91.081 123.843C91.5154 123.56 92.1583 123.142 92.5098 122.913C92.8613 122.684 93.3534 122.339 93.6034 122.146C93.8535 121.953 94.3093 121.617 94.6162 121.399C95.5747 120.719 95.4898 120.469 94.0382 119.696C93.1196 119.207 93.2547 119.174 91.5758 120.304C90.9962 120.695 90.4604 121.014 90.3851 121.014C90.3098 121.014 90.2252 121.084 90.1972 121.169C90.1692 121.254 89.7991 121.518 89.3746 121.755C87.4068 122.852 85.92 123.62 84.966 124.031C84.3944 124.277 83.8607 124.534 83.78 124.601C83.6992 124.669 83.29 124.814 82.8707 124.923C82.4515 125.033 81.9331 125.201 81.7188 125.297C80.9219 125.654 80.5229 125.783 79.4457 126.03C78.8385 126.17 78.0202 126.379 77.6273 126.496C76.3647 126.872 71.6168 127.366 69.2868 127.365C68.5213 127.364 67.2939 127.303 66.5591 127.23C63.0216 126.875 62.3283 126.788 61.846 126.636C61.0442 126.383 59.9932 126.1 58.9236 125.848C58.3878 125.721 57.6547 125.484 57.2944 125.32C56.9342 125.156 56.4117 124.979 56.1335 124.925C55.8551 124.872 55.3025 124.663 54.9051 124.461C54.5078 124.258 53.9489 124.016 53.6632 123.922C53.3774 123.829 52.696 123.523 52.1491 123.243C51.6021 122.963 51.0816 122.733 50.9924 122.733C50.9032 122.733 50.6493 122.594 50.4282 122.422C50.2071 122.251 49.8217 122.005 49.5717 121.876C49.0272 121.595 47.9003 120.89 46.7632 120.121C46.3062 119.812 45.901 119.559 45.8625 119.559C45.8241 119.559 44.9455 118.904 43.9101 118.103C42.8746 117.303 41.9276 116.653 41.8055 116.659C41.6835 116.665 41.3874 116.794 41.1476 116.944Z" fill="white"/>
<path fill-rule="evenodd" clip-rule="evenodd" d="M65.9273 88.9917C66.1279 88.8823 66.7968 88.8728 69.149 88.8986C72.1265 88.9314 72.3656 88.9514 72.3487 89.1665C72.3256 89.4623 71.5763 90.3406 71.068 90.6677C70.5299 91.0139 68.3524 91.0252 67.49 90.6862C66.7815 90.4077 65.7499 89.3951 65.8496 89.0802L65.9273 88.9917Z" fill="white"/>
<path d="M71.068 90.6677C70.5299 91.0139 68.3524 91.0252 67.49 90.6862C66.7815 90.4077 65.7499 89.3951 65.8496 89.0802L65.9273 88.9917C66.1279 88.8823 66.7968 88.8728 69.149 88.8986C72.1265 88.9314 72.3656 88.9514 72.3487 89.1665C72.3256 89.4623 71.5763 90.3406 71.068 90.6677Z" fill="white"/>
<path fill-rule="evenodd" clip-rule="evenodd" d="M65.9273 88.9917C65.8854 89.0145 65.8639 89.0417 65.8518 89.0738C65.851 89.0759 65.8503 89.0781 65.8496 89.0802L65.9273 88.9917Z" fill="white"/>
<path d="M65.8518 89.0738C65.8639 89.0417 65.8854 89.0145 65.9273 88.9917L65.8496 89.0802C65.8503 89.0781 65.851 89.0759 65.8518 89.0738Z" fill="white"/>
<path fill-rule="evenodd" clip-rule="evenodd" d="M74.9654 85.5593C74.5534 86.3706 74.6705 86.3545 69.1847 86.3545C63.6236 86.3545 63.7754 86.3778 63.4028 85.4696C63.2649 85.1336 63.2099 84.4969 63.2099 83.2398C63.2099 81.5382 63.221 81.4667 63.5473 81.0717L63.8488 80.7067L63.9585 80.6637L74.5647 80.7323L74.8621 81.1818C75.1353 81.5946 75.1595 81.7756 75.1595 83.4042C75.1595 84.7183 75.1092 85.2759 74.9654 85.5593Z" fill="white"/>
<path d="M74.5647 80.7323L74.8621 81.1818C75.1353 81.5946 75.1595 81.7756 75.1595 83.4042C75.1595 84.7183 75.1092 85.2759 74.9654 85.5593C74.5534 86.3706 74.6705 86.3545 69.1847 86.3545C63.6236 86.3545 63.7754 86.3778 63.4028 85.4696C63.2649 85.1336 63.2099 84.4969 63.2099 83.2398C63.2099 81.5382 63.221 81.4667 63.5473 81.0717L63.8488 80.7067L63.9585 80.6637L74.5647 80.7323Z" fill="white"/>
<path fill-rule="evenodd" clip-rule="evenodd" d="M63.8848 80.663L63.9585 80.6637L63.8488 80.7067L63.8848 80.663Z" fill="white"/>
<path d="M63.9585 80.6637L63.8488 80.7067L63.8848 80.663L63.9585 80.6637Z" fill="white"/>
<path fill-rule="evenodd" clip-rule="evenodd" d="M74.294 43.9011C74.7343 44.1131 75.1902 44.2868 75.3073 44.2868C75.4243 44.2869 75.8042 44.4814 76.1515 44.719C76.4988 44.9566 76.9584 45.2382 77.1727 45.3447C77.6687 45.5913 79.457 47.1728 80.2295 48.0479C80.8447 48.745 81.7837 50.0186 81.7837 50.1559C81.7837 50.1993 81.9784 50.5484 82.2164 50.9319C82.4543 51.3153 82.728 51.9266 82.8246 52.2903C82.9212 52.6541 83.1298 53.2523 83.288 53.6197C83.9897 55.2487 83.9798 60.0819 83.2717 61.6936C83.1092 62.0632 82.9027 62.6287 82.8128 62.9503C82.7229 63.2718 82.5265 63.7134 82.3762 63.9316C82.2261 64.1499 82.0196 64.5071 81.9175 64.7254C81.5385 65.5358 80.7233 66.5787 79.3814 67.97C79.0826 68.2801 77.8871 70.1523 77.8871 70.3107C77.8871 70.3493 77.673 70.9241 77.4114 71.5879C76.9571 72.7407 76.7008 73.9376 76.4729 75.9727C76.3604 76.976 76.0754 77.721 75.6563 78.1074C75.4077 78.3367 75.0353 78.351 69.3334 78.351C62.6399 78.351 62.7424 78.3632 62.2568 77.514C62.1185 77.2719 61.9625 76.7064 61.9104 76.2573C61.6539 74.049 61.523 73.4898 60.68 70.9996C60.2658 69.776 59.6038 68.7652 58.0333 66.9585C57.7729 66.6589 57.4163 66.2422 57.2411 66.0325C56.7639 65.4618 55.6929 63.6179 55.4856 63.0103C55.3854 62.7167 55.1412 62.0895 54.9429 61.6166C54.89 61.4906 54.8449 61.3829 54.8064 61.2812L54.6424 60.617C54.5831 60.1334 54.5836 59.3788 54.5852 57.7141L54.5882 54.6715L55.1384 53.1502C55.441 52.3135 55.7737 51.4503 55.8777 51.232C56.6326 49.6475 57.9413 47.8733 59.0675 46.9076C59.4332 46.594 59.9798 46.1251 60.2823 45.8657C60.5848 45.6063 61.0166 45.3163 61.2418 45.2213C61.467 45.1263 61.6512 45.0098 61.6512 44.9624C61.6512 44.8373 62.3337 44.5017 63.6644 43.9726C65.1988 43.3625 65.8446 43.2182 67.561 43.1015C70.4125 42.9077 72.8277 43.1945 74.294 43.9011Z" fill="white"/>
<path fill-rule="evenodd" clip-rule="evenodd" d="M54.6424 60.617C54.6753 60.8855 54.7266 61.0704 54.8064 61.2812L54.6424 60.617Z" fill="white"/>
<path fill-rule="evenodd" clip-rule="evenodd" d="M110.372 93.8211C122.248 93.8703 122.469 93.8781 122.98 94.2689C123.266 94.4875 123.674 94.9057 123.888 95.1983C124.262 95.7105 124.28 96.0308 124.37 103.67L124.465 111.61L125.583 113.634C126.911 116.038 127.037 116.863 126.192 117.607L125.668 118.069H94.8213L94.297 117.607C93.4522 116.863 93.5788 116.039 94.9064 113.634L96.0244 111.61L96.1186 103.574C96.2094 95.829 96.2269 95.5179 96.6029 94.9937C96.8174 94.6945 97.2835 94.2968 97.6388 94.1104C97.6621 94.0981 97.6859 94.0863 97.7108 94.0749L97.8535 94.0192C98.5498 93.7914 100.345 93.7795 110.372 93.8211ZM106.704 114.637C106.391 114.957 106.421 115.477 106.773 115.838C107.018 116.088 107.599 116.141 110.135 116.141C112.963 116.141 113.226 116.111 113.541 115.754C113.823 115.435 113.846 115.284 113.669 114.887L113.454 114.406H110.192C107.906 114.406 106.862 114.475 106.704 114.637ZM98.3788 110.935H122.11V96.0885H98.3788V110.935Z" fill="white"/>
<path fill-rule="evenodd" clip-rule="evenodd" d="M97.8535 94.0192C97.8006 94.0365 97.7541 94.055 97.7108 94.0749L97.8535 94.0192Z" fill="white"/>
<path fill-rule="evenodd" clip-rule="evenodd" d="M99.2292 32.9292C99.2276 32.9168 99.2267 32.9049 99.2267 32.8937C99.2267 32.8873 99.2269 32.8807 99.2271 32.8738L99.2292 32.9292Z" fill="white"/>
<path fill-rule="evenodd" clip-rule="evenodd" d="M109.013 6.25516C109.264 6.30624 109.661 6.53079 109.896 6.75432C110.322 7.15941 110.323 7.16645 110.323 8.85357C110.323 9.78467 110.385 10.7131 110.461 10.9169C110.738 11.6588 112.298 12.1189 113.265 11.7442C113.467 11.666 114.169 11.1712 114.824 10.6447C115.479 10.1183 116.13 9.68693 116.27 9.68619C116.67 9.68414 118.536 11.6894 119.453 13.1089C120.452 14.653 120.49 14.5233 118.546 16.2166C117.478 17.1471 117.213 17.4609 117.083 17.9531C116.748 19.2193 117.275 20.3797 118.363 20.7692C119.237 21.0824 121.126 22.0305 121.37 22.2783C121.604 22.5162 121.518 23.6419 121.197 24.5353C121.072 24.8839 120.834 25.5653 120.669 26.0497C120.289 27.1607 119.933 27.6841 119.498 27.7688C119.17 27.8326 117.743 27.4424 116.366 26.9118C115.715 26.6614 115.7 26.6626 115.074 27.0145C113.69 27.7927 113.398 29.0884 114.274 30.569C114.545 31.0271 114.841 31.6332 114.933 31.9159C115.025 32.1987 115.16 32.4679 115.233 32.5141C115.77 32.8523 114.772 34.1342 113.692 34.4921C113.385 34.5941 112.791 34.8623 112.373 35.088C111.206 35.7174 111 35.5816 110.062 33.5651C109.64 32.6606 109.245 31.8214 109.183 31.7003C108.906 31.1568 108.14 30.8197 107.181 30.8197C106.271 30.8197 106.228 30.8368 105.707 31.4114C105.367 31.7864 105.052 32.3643 104.847 32.9892C104.461 34.1622 103.648 35.3695 103.243 35.3695C102.842 35.3695 100.066 33.9742 99.6089 33.5427C99.4135 33.3584 99.2512 33.093 99.2292 32.9292L99.2271 32.8738C99.2438 32.4773 99.7349 31.3203 99.9473 31.1866C100.492 30.844 100.89 28.5823 100.528 27.893C100.452 27.7468 100.061 27.4134 99.6615 27.1521C98.8477 26.6202 98.8999 26.6175 97.0222 27.2861C95.6314 27.7813 94.8929 27.8524 94.5688 27.5224C94.2218 27.1689 93.7818 26.1295 93.3224 24.5774C92.8411 22.9512 92.7895 22.4246 93.087 22.1732C93.4433 21.8719 95.0884 21.1106 96.0076 20.8214C96.8787 20.5473 96.9125 20.5173 97.3434 19.6389C97.5867 19.1433 97.7857 18.5744 97.7857 18.3748C97.7857 17.7588 97.2431 17.0731 95.9053 15.9982C94.4289 14.8121 94.047 14.3298 94.2936 13.9631C94.383 13.8299 94.5959 13.4568 94.7667 13.134C95.3372 12.0543 97.4208 9.68384 97.7969 9.68619C97.9096 9.68693 98.4558 10.0133 99.0106 10.4117C100.93 11.7897 101.245 11.9497 102.03 11.9454C102.839 11.9412 103.583 11.6099 103.9 11.1128C104.039 10.8953 104.138 10.1711 104.196 8.95102C104.293 6.92869 104.391 6.70105 105.319 6.35702C105.82 6.17121 108.269 6.10369 109.013 6.25516ZM106.504 15.495C105.079 15.8259 104.178 16.2512 103.582 16.8738C102.561 17.9395 102.343 18.5747 102.35 20.4724C102.354 21.6505 102.42 22.2364 102.596 22.6405C102.897 23.3349 103.752 24.3088 104.325 24.6104C104.564 24.7368 104.844 24.925 104.946 25.0287C105.176 25.2636 106.391 25.5366 107.196 25.5342C109.119 25.5286 111.221 24.0495 111.766 22.3181C112.03 21.48 112.037 19.4967 111.779 18.5911C111.488 17.5721 110.357 16.378 109.247 15.9186C108.403 15.5692 107.071 15.3635 106.504 15.495Z" fill="white"/>
<path fill-rule="evenodd" clip-rule="evenodd" d="M32.7442 35.1686C32.7422 35.1679 32.7405 35.1671 32.7389 35.1661C32.7389 35.1661 32.7377 35.165 32.737 35.1641L32.7442 35.1686Z" fill="white"/>
<path fill-rule="evenodd" clip-rule="evenodd" d="M42.8323 13.4522C44.7031 13.8169 45.7721 14.194 46.2153 14.6453L46.63 15.0675V24.7686C46.63 35.4758 46.6794 34.9334 45.7231 34.7252C45.4587 34.6676 45.1766 34.57 45.0963 34.5083C44.8753 34.3385 43.9431 34.0525 42.8565 33.8208C41.5132 33.5346 37.6723 33.5462 36.2864 33.8408C35.6988 33.9656 34.6898 34.3335 34.044 34.6582C33.412 34.9761 32.836 35.2018 32.7442 35.1686L32.737 35.1641C32.6628 35.0524 32.6078 31.1659 32.6078 26.0103C32.6078 18.4669 32.6427 16.8693 32.8149 16.5354C33.0241 16.1297 34.1036 15.018 34.2886 15.018C34.3435 15.018 34.5762 14.8819 34.8055 14.7155C35.2244 14.4118 36.5588 13.9345 36.6709 14.0485C36.7037 14.0821 36.9744 14.0102 37.2721 13.8889C37.5699 13.7675 38.302 13.5775 38.8988 13.4667C40.3444 13.198 41.5066 13.1938 42.8323 13.4522Z" fill="white"/>
<path fill-rule="evenodd" clip-rule="evenodd" d="M15.9584 34.663L15.9504 34.6599L15.9505 34.6476L15.9584 34.663Z" fill="white"/>
<path fill-rule="evenodd" clip-rule="evenodd" d="M21.5799 13.4473C23.4637 13.4866 24.0202 13.5581 25.5491 13.9573C27.48 14.4614 28.0338 14.7405 29.1293 15.7618C29.6437 16.2414 29.8856 16.5999 29.9826 17.0263C30.1622 17.8171 30.1631 35.2551 29.9836 35.5444C29.8675 35.7314 29.7083 35.6938 28.9268 35.2949C28.4208 35.0367 27.7767 34.7792 27.4955 34.7229C27.2144 34.6666 26.91 34.5596 26.8191 34.4854C26.3387 34.0925 24.8529 33.8789 22.5293 33.8687C20.2807 33.8591 20.043 33.885 18.98 34.2575C17.3747 34.8199 16.7085 34.9534 16.2989 34.7948L15.9584 34.663L15.9505 34.6476L15.9899 24.6312C16.0279 15.0019 16.0406 14.5903 16.3083 14.289C16.6108 13.9487 17.3271 13.7069 18.5856 13.5207C19.0274 13.4552 20.3749 13.4222 21.5799 13.4473Z" fill="white"/>
<path fill-rule="evenodd" clip-rule="evenodd" d="M26.6704 92.2723C26.3133 92.4558 25.7289 92.7553 25.3718 92.9379C25.0148 93.1204 24.3845 93.527 23.9713 93.8414C23.5581 94.1557 23.1856 94.4129 23.1436 94.4129C23.1014 94.4129 22.3655 95.1238 21.5079 95.9925C19.7973 97.7258 19 98.7484 18.3226 100.078C18.0777 100.559 17.7861 101.117 17.6746 101.319C17.3583 101.892 17.0035 102.779 17.0035 102.996C17.0035 103.104 16.8705 103.499 16.7079 103.873C15.8376 105.877 15.787 111.036 16.6186 112.964C16.732 113.227 17.0012 113.954 17.2168 114.58C17.4323 115.205 17.7323 115.877 17.8832 116.072C18.0343 116.268 18.1578 116.466 18.1578 116.512C18.1578 116.585 18.4554 117.059 19.4599 118.588C19.9375 119.315 22.2609 121.389 23.0954 121.833C23.3115 121.948 23.7204 122.203 24.0043 122.399C24.2881 122.595 24.7607 122.832 25.0543 122.926C25.348 123.02 26.0103 123.271 26.5261 123.484C27.4 123.846 27.6164 123.872 29.7003 123.872L31.9366 123.873L33.0188 123.297C33.6139 122.98 34.315 122.551 34.5767 122.343C35.1195 121.912 36.2524 120.237 36.3729 119.688C36.417 119.486 36.5896 118.842 36.7559 118.257C36.9224 117.672 37.0586 116.998 37.0586 116.76C37.0586 116.144 37.564 114.112 37.8476 113.59C38.8572 111.727 39.1633 111.466 40.7731 111.093C43.0281 110.57 44.1601 110.136 45.0798 109.444C45.3254 109.259 45.5686 109.108 45.6204 109.108C45.7739 109.108 47.1016 107.656 47.2713 107.302C47.3573 107.123 47.6743 106.448 47.9758 105.801L48.5239 104.626L48.5029 99.9234L47.7846 98.3599C47.3896 97.4999 46.9557 96.6836 46.8204 96.5458C46.6852 96.4081 46.4849 96.1198 46.3754 95.9051C45.8947 94.9624 42.9268 92.5306 41.5824 91.9778C41.2765 91.852 40.7531 91.622 40.4191 91.4667C39.3023 90.9472 37.1154 90.5917 35.0223 90.52L33.6556 90.5154C33.2781 90.5268 32.9132 90.5492 32.5689 90.5837L32.1854 90.6281C30.3639 90.8695 28.0706 91.5525 26.6704 92.2723ZM26.5982 97.302C25.7051 97.4968 25.1067 97.8482 24.5559 98.5005C23.638 99.5881 23.4039 100.893 23.8738 102.303C24.1587 103.158 25.3088 104.333 26.0718 104.549C26.7466 104.739 28.1796 104.74 28.8526 104.55C29.5271 104.359 30.6344 103.164 30.8417 102.404C31.0412 101.672 31.0412 100.232 30.8417 99.5C30.5997 98.6122 29.5194 97.6054 28.5711 97.3841C27.8112 97.2069 27.1585 97.1797 26.5982 97.302ZM41.2902 98.7222C40.0662 99.1838 38.6457 101.141 38.6457 102.367C38.6457 102.75 38.7114 103.239 38.7916 103.454C39.0229 104.074 39.8383 104.778 40.5647 104.985C41.5178 105.257 42.7638 104.869 43.5552 104.055C44.2961 103.293 44.9941 101.819 44.9941 101.016C44.9941 100.256 44.2998 98.9479 43.7645 98.6996C43.2966 98.4824 41.8922 98.4954 41.2902 98.7222ZM21.9518 106.161C19.8519 106.684 18.691 108.592 19.2745 110.563C19.5276 111.417 20.3595 112.42 21.0863 112.747C21.6456 112.998 23.4919 112.976 24.1156 112.711C24.5937 112.508 25.2887 111.757 25.8496 110.839C26.1351 110.372 26.1834 108.822 25.9279 108.326C25.1016 106.723 23.4052 105.799 21.9518 106.161ZM27.8457 114.394C26.9819 114.608 26.3212 115.011 25.7326 115.685C25.1725 116.326 25.154 116.382 25.1054 117.556C25.0491 118.916 25.1853 119.316 25.9956 120.165C26.4913 120.685 27.8321 121.304 28.4628 121.304C29.5219 121.304 31.179 120.318 31.6378 119.414C32.5454 117.627 31.5899 115.142 29.7968 114.625C28.6661 114.299 28.3726 114.265 27.8457 114.394Z" fill="white"/>
<path fill-rule="evenodd" clip-rule="evenodd" d="M32.1854 90.6281C32.1987 90.6264 32.212 90.6246 32.2252 90.6229C32.3372 90.6084 32.4519 90.5954 32.5689 90.5837L32.1854 90.6281Z" fill="white"/>
<path fill-rule="evenodd" clip-rule="evenodd" d="M35.0223 90.52C34.5579 90.504 34.0981 90.5021 33.6556 90.5154L35.0223 90.52Z" fill="white"/>
</g>
<defs>
<filter id="filter0_dd_244_1823" x="0" y="0" width="138" height="138" filterUnits="userSpaceOnUse" color-interpolation-filters="sRGB">
<feFlood flood-opacity="0" result="BackgroundImageFix"/>
<feColorMatrix in="SourceAlpha" type="matrix" values="0 0 0 0 0 0 0 0 0 0 0 0 0 0 0 0 0 0 127 0" result="hardAlpha"/>
<feOffset dy="4"/>
<feGaussianBlur stdDeviation="2"/>
<feComposite in2="hardAlpha" operator="out"/>
<feColorMatrix type="matrix" values="0 0 0 0 0 0 0 0 0 0 0 0 0 0 0 0 0 0 0.4 0"/>
<feBlend mode="normal" in2="BackgroundImageFix" result="effect1_dropShadow_244_1823"/>
<feColorMatrix in="SourceAlpha" type="matrix" values="0 0 0 0 0 0 0 0 0 0 0 0 0 0 0 0 0 0 127 0" result="hardAlpha"/>
<feOffset dy="4"/>
<feGaussianBlur stdDeviation="2"/>
<feComposite in2="hardAlpha" operator="out"/>
<feColorMatrix type="matrix" values="0 0 0 0 1 0 0 0 0 1 0 0 0 0 1 0 0 0 0.3 0"/>
<feBlend mode="normal" in2="effect1_dropShadow_244_1823" result="effect2_dropShadow_244_1823"/>
<feBlend mode="normal" in="SourceGraphic" in2="effect2_dropShadow_244_1823" result="shape"/>
</filter>
</defs>
</svg>
