<svg width="32" height="32" viewBox="0 0 32 32" fill="none" xmlns="http://www.w3.org/2000/svg">
<path fill-rule="evenodd" clip-rule="evenodd" d="M29.2945 2.09798C30.05 3.65855 29.8327 4.90707 28.5894 6.15006C27.6264 7.11305 26.5761 7.47486 25.3956 7.25015C24.8273 7.14207 24.3641 7.46353 22.7869 9.06004L20.8692 11.0012L22.165 12.6699C22.8776 13.5875 23.4608 14.412 23.4608 14.5019C23.4608 14.5917 23.6952 14.9632 23.9818 15.3275C24.2681 15.6915 24.5849 16.5387 24.6855 17.2098C24.8602 18.3732 24.937 18.4578 26.3348 19.0252C28.0104 19.7052 29.4806 21.1032 30.4165 22.9062C30.9284 23.893 31.0619 24.5879 31.0619 26.2687C31.0619 28.1819 30.9806 28.5028 30.2224 29.5814C28.5651 31.9388 26.7102 32.5555 24.4282 31.5076C23.0586 30.8788 22.5414 30.3075 21.7772 28.58C21.0212 26.8709 21.1672 24.4881 22.2004 21.6635C23.4019 18.3801 23.1951 17.256 20.7559 13.8114L19.5021 12.0411L18.0001 13.7423C16.4473 15.5008 15.5824 15.8601 14.8953 15.0323C14.351 14.3767 14.7701 13.4814 16.3948 11.8291L17.91 10.2875L15.7792 8.13325C10.9184 3.21852 6.44645 1.17617 3.92012 2.71657C2.91871 3.32714 2.54556 4.55908 2.8579 6.22413C3.43199 9.28365 7.61039 12.9192 13.0072 15.055C14.5979 15.6843 16.4249 16.2982 20.6967 17.6382C22.1948 18.1081 22.7441 18.7582 22.1473 19.355C21.8695 19.6328 19.593 19.2016 15.9979 18.1899L13.9248 17.6067L7.21734 24.4159C3.52818 28.1609 0.387678 31.1497 0.238143 31.0571C-0.275691 30.7398 -0.0294152 30.2738 1.68457 28.3199C3.22248 26.5669 8.45591 20.7677 8.81551 20.4186C8.89373 20.3426 9.68894 19.504 10.5828 18.5553L12.2078 16.83L10.5994 16.1188C6.57912 14.3407 2.73683 10.9722 1.47533 8.11916C0.28567 5.42915 0.764453 2.93058 2.33474 1.50574L2.51678 1.34936C3.51832 0.535183 4.91319 0.128018 6.57277 0.32457C9.82438 0.7096 12.3833 2.21213 16.2535 6.00826L19.174 8.87319L20.9828 6.88419C22.573 5.13538 22.7789 4.78407 22.6849 3.97918C22.5434 2.76743 23.3043 1.22509 24.3856 0.532425C26.1325 -0.586458 28.3349 0.115885 29.2945 2.09798ZM24.076 21.9617C22.7534 25.2075 22.9931 28.3508 24.6488 29.4708C25.9606 30.3581 26.9285 30.2735 28.0272 29.1748C29.6431 27.5589 29.6696 24.5301 28.0836 22.7235C27.2627 21.7887 25.3798 20.418 24.9174 20.4189C24.8002 20.4191 24.4218 21.1135 24.076 21.9617ZM25.1673 2.53912C24.4337 3.32023 24.398 4.14917 25.0719 4.75892C25.7933 5.41178 26.9385 5.33632 27.4529 4.60192C28.0471 3.75391 27.9924 3.20387 27.2436 2.50042C26.4258 1.73229 25.9166 1.74169 25.1673 2.53912Z" fill="#00FFF2"/>
<path fill-rule="evenodd" clip-rule="evenodd" d="M2.51678 1.34936C2.45458 1.39993 2.39388 1.45207 2.33474 1.50574L2.51678 1.34936Z" fill="#00FFF2"/>
</svg>
