<svg width="32" height="32" viewBox="0 0 32 32" fill="none" xmlns="http://www.w3.org/2000/svg">
<path fill-rule="evenodd" clip-rule="evenodd" d="M10.2105 1.69339C9.86804 1.86942 9.30763 2.15664 8.96516 2.33181C8.62268 2.50685 8.01827 2.89679 7.62197 3.19825C7.22566 3.4997 6.86838 3.74634 6.82812 3.74634C6.78771 3.74634 6.08186 4.42816 5.25937 5.26134C3.61881 6.92362 2.85416 7.90435 2.2045 9.17978C1.96968 9.64062 1.69002 10.1763 1.58306 10.3701C1.27975 10.9194 0.939486 11.7695 0.939486 11.9777C0.939486 12.0814 0.811905 12.4601 0.655958 12.8192C-0.178711 14.7409 -0.227284 19.6893 0.570302 21.5383C0.679063 21.7905 0.937275 22.4877 1.14401 23.0875C1.35074 23.6875 1.63841 24.3315 1.78315 24.5191C1.92802 24.7065 2.04647 24.8962 2.04647 24.9406C2.04647 25.0104 2.33194 25.4656 3.2953 26.932C3.75332 27.6292 5.98154 29.618 6.78189 30.044C6.98918 30.1544 7.38132 30.3985 7.65364 30.5866C7.92582 30.7747 8.37901 31.0022 8.6606 31.092C8.94232 31.1817 9.57746 31.4226 10.0721 31.6274C10.9103 31.9741 11.1178 31.9995 13.1164 31.9997L15.2612 32L16.299 31.4478C16.8697 31.1441 17.5421 30.7326 17.7931 30.5332C18.3137 30.1198 19.4002 28.5134 19.5157 27.9864C19.5581 27.7927 19.7236 27.1751 19.8831 26.6142C20.0428 26.0531 20.1734 25.4071 20.1734 25.1785C20.1734 24.5875 20.6581 22.6391 20.93 22.1378C21.8984 20.3516 22.1919 20.1012 23.7358 19.7431C25.8985 19.2415 26.9842 18.8259 27.8662 18.1617C28.1017 17.9844 28.335 17.8394 28.3846 17.8394C28.5319 17.8394 29.8052 16.447 29.9679 16.1081C30.0504 15.9364 30.3544 15.2886 30.6436 14.6685L31.1693 13.541L31.1491 9.03123L30.4602 7.53173C30.0814 6.707 29.6653 5.92414 29.5355 5.79194C29.4058 5.65989 29.2138 5.38339 29.1087 5.17749C28.6477 4.27342 25.8013 1.94114 24.512 1.41096C24.2186 1.29033 23.7166 1.06978 23.3963 0.920815C22.3252 0.422621 20.2278 0.0816659 18.2205 0.0128341L16.9097 0.00846487C16.5477 0.0193662 16.1978 0.0409262 15.8675 0.0739355L15.4997 0.116581C13.7528 0.34804 11.5535 1.00308 10.2105 1.69339ZM10.1413 6.51718C9.2848 6.70405 8.71082 7.04101 8.18265 7.66661C7.30231 8.70964 7.07774 9.96124 7.52842 11.3132C7.80171 12.133 8.90469 13.2601 9.63641 13.467C10.2836 13.6501 11.6579 13.6507 12.3034 13.468C12.9503 13.285 14.0122 12.1396 14.211 11.4104C14.4024 10.7086 14.4024 9.32705 14.211 8.62522C13.979 7.77371 12.9428 6.80819 12.0335 6.59595C11.3046 6.42599 10.6786 6.39992 10.1413 6.51718ZM24.2318 7.87927C23.0578 8.32194 21.6955 10.1993 21.6955 11.3744C21.6955 11.742 21.7585 12.2115 21.8354 12.4177C22.0572 13.0117 22.8393 13.6869 23.5359 13.8855C24.45 14.1462 25.645 13.7747 26.404 12.9939C27.1145 12.2631 27.784 10.849 27.784 10.0791C27.784 9.35017 27.1181 8.09574 26.6047 7.85757C26.156 7.64927 24.8091 7.66168 24.2318 7.87927ZM5.68515 15.013C3.67126 15.5146 2.5579 17.3452 3.11749 19.2348C3.36019 20.0546 4.15805 21.0164 4.85504 21.3297C5.39152 21.5708 7.16215 21.5498 7.76034 21.2953C8.21891 21.1003 8.88545 20.3807 9.42331 19.5003C9.69715 19.0521 9.74351 17.5659 9.49845 17.0902C8.70598 15.5522 7.07899 14.6659 5.68515 15.013ZM11.3377 22.9098C10.5093 23.1142 9.87565 23.501 9.31109 24.1476C8.77392 24.7626 8.75621 24.8158 8.70958 25.9417C8.65562 27.2464 8.78624 27.6295 9.56334 28.4445C10.0388 28.9431 11.3247 29.5367 11.9295 29.5367C12.9453 29.5367 14.5346 28.5905 14.9746 27.7237C15.845 26.0097 14.9286 23.6263 13.2089 23.1308C12.1245 22.8185 11.843 22.7852 11.3377 22.9098Z" fill="#00FFF2"/>
<path fill-rule="evenodd" clip-rule="evenodd" d="M15.4997 0.116581C15.5125 0.114891 15.5252 0.11323 15.5379 0.111585C15.6453 0.0976912 15.7553 0.0851549 15.8675 0.0739355L15.4997 0.116581Z" fill="#00FFF2"/>
<path fill-rule="evenodd" clip-rule="evenodd" d="M18.2205 0.0128341C17.775 -0.00243898 17.3341 -0.00431378 16.9097 0.00846487L18.2205 0.0128341Z" fill="#00FFF2"/>
</svg>
