<svg width="30" height="32" viewBox="0 0 30 32" fill="none" xmlns="http://www.w3.org/2000/svg">
<path fill-rule="evenodd" clip-rule="evenodd" d="M2.58442 23.7394C2.42896 23.952 2.21506 24.3981 2.03264 24.9109C0.6756 28.725 -0.181449 31.7569 0.0327046 31.9873C0.22663 32.1957 6.20974 29.7741 7.45506 28.9811C7.74408 28.7981 3.81312 24.2859 2.88796 23.6753L2.58442 23.7394Z" fill="#00FFF2"/>
<path fill-rule="evenodd" clip-rule="evenodd" d="M2.58442 23.7394C2.64633 23.6548 2.69891 23.6073 2.73661 23.6073C2.76932 23.6073 2.82073 23.631 2.88796 23.6753L2.58442 23.7394Z" fill="#00FFF2"/>
<path fill-rule="evenodd" clip-rule="evenodd" d="M20.3089 4.74021C19.609 5.32569 16.1751 8.94974 12.2082 13.299L4.31967 21.9487L6.5918 24.4365C7.84154 25.8048 8.99191 26.925 9.14802 26.925C9.51166 26.925 24.6757 10.4463 24.8731 9.83613C25.017 9.39189 21.5974 5.3577 20.62 4.73743L20.3089 4.74021Z" fill="#00FFF2"/>
<path fill-rule="evenodd" clip-rule="evenodd" d="M20.3089 4.74021C20.3744 4.68538 20.416 4.6572 20.4318 4.65756C20.4758 4.6585 20.5396 4.68642 20.62 4.73743L20.3089 4.74021Z" fill="#00FFF2"/>
<path fill-rule="evenodd" clip-rule="evenodd" d="M24.9455 0.100614C24.4468 0.289694 23.9269 0.745533 23.2751 1.47031L21.8723 3.02956L26.7702 8.20457L28.056 6.56368C29.7503 4.40204 29.687 3.17884 27.7877 1.38169C26.957 0.595518 26.3343 0.14362 25.7613 0.0291248L24.9455 0.100614Z" fill="#00FFF2"/>
<path fill-rule="evenodd" clip-rule="evenodd" d="M25.7613 0.0291248C25.4837 -0.0263388 25.2177 -0.00262757 24.9455 0.100614L25.7613 0.0291248Z" fill="#00FFF2"/>
</svg>
