<svg width="32" height="32" viewBox="0 0 32 32" fill="none" xmlns="http://www.w3.org/2000/svg">
<path fill-rule="evenodd" clip-rule="evenodd" d="M24.8352 3.04637C28.295 5.57375 30.4827 9.16572 31.2021 13.5003C32.7852 23.0385 25.3325 32 15.8172 32C9.87586 32 4.25105 28.3739 1.63614 22.8578C-1.34676 16.5658 -0.204774 9.79664 4.68396 4.79224C7.10833 2.31025 9.70991 0.866187 12.8723 0.246446C13.5968 0.104488 14.3435 0.0248876 15.1007 0.00498742L15.2793 0.0014031C18.5936 -0.0446434 22.0942 1.04417 24.8352 3.04637ZM22.6245 24.6467C22.263 25.7676 21.4759 27.4813 20.941 28.3116L20.4762 29.0332L21.4036 28.5513C23.1463 27.6455 26.0084 25.3703 26.0084 24.8906C26.0084 24.7013 25.1107 24.3752 23.7578 24.0729L22.8732 23.8752L22.6245 24.6467ZM7.09647 24.199C6.34535 24.3721 5.65519 24.5862 5.5631 24.6749C5.30258 24.9252 7.79007 27.1625 9.27279 28.0113C10.7521 28.858 11.1034 28.9585 10.6202 28.3969C10.1942 27.9015 9.32326 26.0901 8.99121 25.0089C8.84581 24.5357 8.66732 24.0891 8.59449 24.0163C8.52193 23.9437 7.84785 24.0258 7.09647 24.199ZM16.7625 29.4431L17.4166 29.0546C18.4524 28.4389 19.4258 27.1243 20.1318 25.3886C20.4904 24.506 20.7346 23.733 20.6739 23.6709C20.6132 23.6085 19.7082 23.5079 18.663 23.4467L16.7625 23.336V29.4431ZM11.1461 23.5784L10.678 23.7182L11.4053 25.4391C11.931 26.6827 12.4207 27.4433 13.1713 28.1818C13.7424 28.7439 14.3114 29.2037 14.4357 29.2037C14.5851 29.2037 14.6614 28.2261 14.6614 26.2995V23.3956L13.1378 23.4171C12.2998 23.4288 11.4037 23.5014 11.1461 23.5784ZM23.836 18.5017C23.7637 19.3596 23.6438 20.4661 23.57 20.9609L23.4353 21.8603L24.249 22.0147C24.6966 22.0997 25.5748 22.3486 26.2005 22.5677C26.8263 22.787 27.3583 22.9421 27.3829 22.9122C27.9371 22.2393 29.1605 18.5594 29.1605 17.5648V16.9421H23.968L23.836 18.5017ZM16.9029 17.0856C16.8256 17.1643 16.7625 18.1324 16.7625 19.2367V21.2444H18.0991C18.8344 21.2444 19.8607 21.304 20.3799 21.3769L21.3239 21.5094L21.4514 20.6778C21.5213 20.2204 21.6427 19.1929 21.7211 18.3941L21.8639 16.9421H19.4535C18.1275 16.9421 16.9797 17.0067 16.9029 17.0856ZM9.76554 17.1035C9.63967 17.3354 10.0458 21.1118 10.2134 21.2652C10.2905 21.3358 11.323 21.3487 12.5075 21.294L14.6614 21.1943V16.9421H12.2573C10.9348 16.9421 9.81361 17.0148 9.76554 17.1035ZM2.26345 17.3951C2.26345 18.7675 3.70215 22.7523 4.19568 22.7474C4.34666 22.7459 5.06949 22.5523 5.80196 22.3172C6.53459 22.082 7.36834 21.8897 7.65465 21.8897C8.05317 21.8897 8.14929 21.8011 8.06425 21.5133C7.95162 21.1312 7.51691 17.7199 7.51691 17.2166C7.51691 17.0085 6.88006 16.9421 4.89005 16.9421C2.35975 16.9421 2.26345 16.9587 2.26345 17.3951ZM18.4438 10.6888L16.8678 10.8114L16.7469 14.791H21.8059V14.262C21.8059 13.971 21.6997 13.0029 21.5699 12.1109L21.3345 10.4887L20.6771 10.5274C20.3154 10.5487 19.3104 10.6214 18.4438 10.6888ZM10.1562 11.0742C10.0815 11.4231 9.9479 12.4021 9.85926 13.2499L9.69848 14.791H14.6614V10.7038L13.2431 10.7014C12.4629 10.7001 11.48 10.6408 11.0582 10.5693C10.3414 10.448 10.2839 10.4803 10.1562 11.0742ZM3.42444 10.3118C2.89712 11.4934 2.26345 13.7285 2.26345 14.4059C2.26345 14.7555 2.50652 14.791 4.89005 14.791C6.33477 14.791 7.51691 14.7159 7.51691 14.6241C7.51691 14.2299 7.96211 10.781 8.05291 10.4721C8.14533 10.1574 7.03233 9.79191 4.30754 9.24189C4.03258 9.18661 3.80163 9.46647 3.42444 10.3118ZM26.6143 9.31291C26.1966 9.46303 25.3108 9.70137 24.6465 9.84246L23.4382 10.0993L23.5692 10.8856C23.6407 11.318 23.76 12.3735 23.8342 13.2314L23.9687 14.791H29.2177L29.0892 13.8322C28.9293 12.6377 28.1918 10.3515 27.7255 9.6031C27.3913 9.06744 27.3373 9.05325 26.6143 9.31291ZM21.2942 4.1471C21.6161 4.70984 22.0909 5.76175 22.349 6.48498C22.7998 7.74769 22.8463 7.79868 23.5203 7.77459C23.9065 7.7606 24.6278 7.63496 25.1229 7.49538L26.0237 7.24111L25.5433 6.6463C24.7959 5.7209 23.3057 4.54119 21.9471 3.79991L20.7082 3.12402L21.2942 4.1471ZM9.46152 3.80465C8.15746 4.54077 5.71907 6.48754 5.55571 6.92315C5.42106 7.28263 6.22154 7.61562 7.70426 7.81697L8.69802 7.95183L8.97169 7.01545C9.29549 5.90633 10.1641 4.08172 10.6202 3.55124C11.0834 3.01282 10.7263 3.09089 9.46152 3.80465ZM16.7625 5.54105V8.55266L17.6557 8.55071C18.1468 8.54987 19.0473 8.48769 19.6564 8.41263C20.936 8.25535 20.9301 8.33065 19.857 5.90266C19.4103 4.89185 18.8865 4.13936 18.1729 3.48262C17.6034 2.95841 17.0531 2.52945 16.9502 2.52945C16.8469 2.52945 16.7625 3.88468 16.7625 5.54105ZM13.6481 3.17179C13.1718 3.525 12.4964 4.32351 12.1475 4.94648C11.4533 6.18488 10.7693 8.08198 10.9501 8.26699C11.0128 8.33107 11.8733 8.43519 12.8625 8.49845L14.6614 8.61329V5.57138C14.6614 3.89822 14.6284 2.52945 14.5877 2.52945C14.5474 2.52945 14.1243 2.81858 13.6481 3.17179Z" fill="#00FFF2"/>
</svg>
