<svg width="50" height="50" viewBox="0 0 50 50" fill="none" xmlns="http://www.w3.org/2000/svg">
<path d="M23.4106 50C12.7705 50 1.28128 43.6799 1.28128 29.8091C1.28128 15.9383 12.7705 9.6182 23.4106 9.6182C29.3203 9.6182 34.7754 11.4582 38.8196 14.8172C43.2025 18.5053 45.5313 23.7043 45.5313 29.8091C45.5313 35.9139 43.2025 41.0804 38.8196 44.7644C34.7754 48.1235 29.2817 50 23.4106 50Z" fill="url(#paint0_radial_2195_1214)"/>
<path d="M41.6758 17.8067C43.7686 21.0967 44.8408 24.8822 44.7679 28.7246C44.7679 34.8172 42.4392 39.9959 38.0562 43.6799C34.012 47.039 28.5226 48.9155 22.6472 48.9155C15.7597 48.9155 8.52476 46.2632 4.27473 40.6296C8.37894 47.0106 16.0942 50 23.4106 50C29.2817 50 34.7754 48.1235 38.8196 44.7644C43.2025 41.0764 45.5313 35.9139 45.5313 29.8091C45.5313 25.2071 44.2061 21.117 41.6758 17.8067Z" fill="#EB8F00"/>
<path d="M10.6305 35.0934C14.7754 35.0934 18.1356 32.0929 18.1356 28.3915C18.1356 24.6902 14.7754 21.6897 10.6305 21.6897C6.48552 21.6897 3.12538 24.6902 3.12538 28.3915C3.12538 32.0929 6.48552 35.0934 10.6305 35.0934Z" fill="url(#paint1_radial_2195_1214)"/>
<path d="M36.5337 35.0934C40.6787 35.0934 44.0388 32.0929 44.0388 28.3915C44.0388 24.6902 40.6787 21.6897 36.5337 21.6897C32.3888 21.6897 29.0286 24.6902 29.0286 28.3915C29.0286 32.0929 32.3888 35.0934 36.5337 35.0934Z" fill="url(#paint2_radial_2195_1214)"/>
<path d="M6.42762 7.43298C8.0856 7.43298 9.42966 6.52373 9.42966 5.40211C9.42966 4.28049 8.0856 3.37124 6.42762 3.37124C4.76964 3.37124 3.42559 4.28049 3.42559 5.40211C3.42559 6.52373 4.76964 7.43298 6.42762 7.43298Z" fill="#FF00A2"/>
<path d="M19.0563 11.1982C19.7597 10.532 19.5832 9.28466 18.6621 8.41226C17.7409 7.53986 16.4239 7.37272 15.7205 8.03893C15.0171 8.70515 15.1936 9.95245 16.1148 10.8248C17.036 11.6972 18.3529 11.8644 19.0563 11.1982Z" fill="#FD3B3B"/>
<path d="M28.2557 7.95936C29.8291 6.80601 30.6462 5.31018 30.0808 4.61835C29.5154 3.92651 27.7816 4.30064 26.2082 5.45399C24.6349 6.60734 23.8178 8.10317 24.3832 8.795C24.9486 9.48684 26.6824 9.11271 28.2557 7.95936Z" fill="#00EEFF"/>
<path d="M7.26736 34.7709C7.86221 34.4456 7.72041 33.1583 6.95063 31.8955C6.18086 30.6328 5.07461 29.8728 4.47976 30.198C3.8849 30.5233 4.02671 31.8107 4.79648 33.0734C5.56626 34.3362 6.67251 35.0962 7.26736 34.7709Z" fill="#0048FF"/>
<path d="M37.5201 46.4257C38.3491 46.4257 39.0211 45.4255 39.0211 44.1917C39.0211 42.9579 38.3491 41.9578 37.5201 41.9578C36.6911 41.9578 36.0191 42.9579 36.0191 44.1917C36.0191 45.4255 36.6911 46.4257 37.5201 46.4257Z" fill="#F63BBE"/>
<path d="M46.1115 23.1645C47.3704 22.3252 48.1699 21.3474 47.8973 20.9805C47.6246 20.6137 46.383 20.9967 45.1241 21.836C43.8652 22.6753 43.0657 23.6531 43.3383 24.02C43.611 24.3868 44.8526 24.0038 46.1115 23.1645Z" fill="#00CC00"/>
<path d="M5.77582 48.4713C6.27091 48.1637 6.04027 47.002 5.26069 45.8767C4.4811 44.7513 3.44777 44.0884 2.95269 44.3961C2.4576 44.7037 2.68823 45.8654 3.46782 46.9907C4.24741 48.1161 5.28073 48.779 5.77582 48.4713Z" fill="#0048FF"/>
<path d="M2.64364 40.5341C4.06121 40.439 5.17646 39.9084 5.13462 39.349C5.09278 38.7896 3.90969 38.4132 2.49212 38.5083C1.07455 38.6034 -0.0407015 39.134 0.00113986 39.6934C0.0429812 40.2528 1.22607 40.6292 2.64364 40.5341Z" fill="#7ACDED"/>
<path d="M6.47847 35.2145C8.18007 35.1074 9.53785 34.7122 9.51116 34.3317C9.48446 33.9512 8.08341 33.7295 6.38181 33.8366C4.68021 33.9436 3.32244 34.3389 3.34913 34.7194C3.37582 35.0999 4.77688 35.3216 6.47847 35.2145Z" fill="#FF82B2"/>
<path d="M47.1266 31.0723C46.7621 29.8781 45.8915 28.879 44.725 28.3103C42.7522 27.2949 40.282 27.9894 39.2141 29.8578C39.2055 29.87 39.2013 29.8822 39.1927 29.8944C38.7638 30.6599 38.672 31.5549 38.9371 32.3842C39.2022 33.2136 39.8028 33.91 40.6079 34.3217C41.2727 34.6751 42.0532 34.7766 42.7951 34.606C43.5585 34.4435 44.2018 33.9683 44.5535 33.3063C44.9351 32.5426 44.9008 31.6491 44.4677 30.9098C44.295 30.5904 44.0388 30.3181 43.7234 30.119C43.4081 29.9199 43.0442 29.8007 42.6665 29.7725C42.2247 29.7644 41.8645 30.0975 41.8559 30.5158C41.8516 30.8936 42.1432 31.2185 42.5378 31.2754C42.7565 31.2876 42.9538 31.4135 43.0524 31.6003C43.2025 31.8887 43.2326 32.2258 43.1382 32.5345C43.0668 32.669 42.9641 32.7864 42.8378 32.8779C42.7115 32.9694 42.5649 33.0325 42.4091 33.0625C42.0618 33.1478 41.6929 33.1032 41.3799 32.9407C40.951 32.7254 40.6294 32.3599 40.4793 31.9253C40.3506 31.4785 40.3978 31.0032 40.6079 30.5849C40.7562 30.3111 40.962 30.069 41.2128 29.8734C41.4635 29.6778 41.7539 29.5329 42.0661 29.4476C42.6965 29.277 43.3655 29.3339 43.953 29.6101C44.7207 30.0081 45.2911 30.6824 45.5398 31.4785C45.8014 32.2786 45.7071 33.1438 45.2825 33.8749C44.4677 35.3371 42.8809 36.3119 40.565 36.3119C39.2356 36.3119 31.3231 36.1089 31.3231 36.1089L31.4174 37.9773L40.4793 37.8554C43.1811 37.8554 45.4112 36.84 46.6978 34.5654C47.3754 33.5175 47.5298 32.238 47.1266 31.0723Z" fill="url(#paint3_linear_2195_1214)"/>
<path d="M26.1553 37.0837C26.4169 37.3477 26.6184 37.6564 26.7557 37.9935L31.6662 37.9651C31.6662 37.3558 31.5804 36.7465 31.5804 36.0967C30.2938 36.056 27.6434 36.0154 26.82 35.987C26.7017 36.4061 26.4626 36.7858 26.1295 37.0837H26.1553Z" fill="#7F0099"/>
<path d="M41.0797 21.5678L42.5807 21.7709L42.9667 20.3493L43.1811 19.537L34.561 18.3997C38.4636 21.2023 40.8224 21.5678 41.0797 21.5678Z" fill="#FF4545"/>
<path d="M47.9844 1.50284L44.5106 3.37124L43.6528 3.81803L47.2553 4.30544C47.5126 3.29001 47.9844 1.50284 47.9844 1.50284Z" fill="#FF4545"/>
<path d="M40.3077 5.6052L36.7482 7.51422L46.0545 8.77335L46.6549 6.45816L40.3077 5.6052Z" fill="#FF4545"/>
<path d="M30.1437 11.0479H30.1008L44.8965 13.0788L45.4541 10.9261L33.403 9.30138L30.1437 11.0479Z" fill="#FF4545"/>
<path d="M31.3874 15.7189L43.7386 17.3842L44.339 15.1909L29.4575 13.16C29.6291 13.6068 30.1437 14.5004 31.3874 15.7189Z" fill="#FF4545"/>
<path d="M33.403 9.30138L45.4541 10.9261L46.0545 8.77335L36.7482 7.51422L33.403 9.30138Z" fill="#FF9C9C"/>
<path d="M46.998 5.19902C46.998 5.19902 47.1266 4.63038 47.2124 4.34606L43.61 3.85865L40.2648 5.64582L46.612 6.49878L46.998 5.19902Z" fill="#FF9C9C"/>
<path d="M28.8571 11.6978L29.3289 12.9976C29.346 13.0707 29.376 13.1397 29.4146 13.2006L44.2961 15.2315L44.8537 13.0788L30.0579 11.0885L28.8571 11.6978Z" fill="#FF9C9C"/>
<path d="M34.3894 18.2778C34.4323 18.3184 34.5181 18.3591 34.561 18.3997L43.1811 19.5776L43.7386 17.4249L31.3874 15.7595C32.3266 16.6612 33.3301 17.502 34.3894 18.2778Z" fill="#FF9C9C"/>
<path d="M47.9415 3.89927C49.0784 3.89927 50 3.02639 50 1.94963C50 0.872881 49.0784 0 47.9415 0C46.8046 0 45.8829 0.872881 45.8829 1.94963C45.8829 3.02639 46.8046 3.89927 47.9415 3.89927Z" fill="#C93737"/>
<path d="M26.9444 36.6084C27.5752 36.0919 27.9702 35.364 28.0466 34.5776C28.1666 33.7855 27.9179 32.9854 27.3604 32.3842C26.3611 31.1413 23.5821 31.45 23.5821 31.45C22.8359 31.4785 21.9739 31.8156 22.0811 32.6279C22.1501 32.8569 22.2829 33.064 22.4655 33.2276C22.6481 33.3913 22.8738 33.5054 23.1189 33.5581C24.2168 33.8058 25.7822 33.5581 25.8251 34.6141C25.8765 35.8002 23.9552 35.3128 23.8008 36.5678C23.6464 37.8229 25.8251 37.6564 25.8251 38.5215C25.8251 39.1836 25.1089 39.2973 24.3541 39.4476C23.7065 39.5735 22.4628 39.7644 22.3641 40.4671C22.2655 41.1698 22.6901 42.0349 24.4398 41.7831C27.1931 41.3769 28.1195 39.9594 28.1195 39.082C28.1366 38.1316 27.7078 37.2258 26.9444 36.6084Z" fill="#422B0D"/>
<path d="M17.518 25.8855L17.4537 25.8083L17.2821 25.6011L17.0634 25.3777C16.9776 25.2884 16.8747 25.1909 16.7718 25.0934C16.6646 24.9959 16.5531 24.9025 16.433 24.8172C16.3258 24.74 16.2143 24.671 16.0942 24.6101C16.0127 24.5654 15.9226 24.5329 15.8283 24.5167C15.7998 24.5126 15.7709 24.5126 15.7425 24.5167H15.7082H15.7854H15.5624H15.5924C15.577 24.5126 15.5607 24.5126 15.5452 24.5167C15.4509 24.5329 15.3608 24.5654 15.2793 24.6101C15.1593 24.671 15.0477 24.74 14.9405 24.8172C14.829 24.8985 14.7132 24.9959 14.6017 25.0934C14.3916 25.2884 14.2072 25.4996 14.0785 25.6255L13.8727 25.857L13.7783 25.9586C13.4962 26.2543 13.109 26.4414 12.6906 26.4841C12.2722 26.5268 11.8518 26.4221 11.5096 26.1901C11.0593 25.8936 10.8277 25.3777 10.9135 24.8619C10.9135 24.8619 10.9435 24.7076 11.0207 24.4557C11.1408 24.0658 11.3124 23.6921 11.5268 23.3428C11.8613 22.766 12.3159 22.2583 12.8606 21.8522C13.2337 21.5841 13.6454 21.3688 14.0871 21.2185C14.2072 21.1738 14.3358 21.1373 14.4602 21.1089C14.6017 21.0682 14.7433 21.0398 14.8891 21.0195L15.1378 20.987H16.0899C16.2228 20.987 16.3601 21.0195 16.493 21.0398C17.216 21.1637 17.8978 21.4476 18.4829 21.8684C19.0362 22.2664 19.5036 22.766 19.8467 23.3387C19.9711 23.5378 20.0826 23.749 20.1726 23.9643C20.2541 24.143 20.3142 24.3339 20.3656 24.476C20.4171 24.6182 20.4128 24.6872 20.43 24.7563V24.8497C20.4852 25.2267 20.3804 25.609 20.1384 25.9128C19.8964 26.2167 19.537 26.4172 19.1391 26.4703C19.1219 26.4744 19.1048 26.4744 19.0919 26.4744C18.4958 26.5597 17.8911 26.3363 17.518 25.8855Z" fill="#422B0D"/>
<path d="M33.4459 25.8855L33.3816 25.8083L33.2101 25.6011L33.0171 25.3777C32.9313 25.2884 32.8284 25.1909 32.7254 25.0934C32.6182 24.9959 32.5067 24.9025 32.3866 24.8172C32.2794 24.74 32.1679 24.671 32.0478 24.6101C31.9664 24.5654 31.8763 24.5329 31.7862 24.5167C31.7578 24.5126 31.7289 24.5126 31.7005 24.5167H31.6661H31.7305H31.5075H31.5375H31.4903C31.4003 24.5329 31.3102 24.5654 31.2287 24.6101C31.1086 24.671 30.9971 24.74 30.8899 24.8172C30.7698 24.9025 30.6583 24.9959 30.5511 25.0934C30.3367 25.2884 30.1566 25.4996 30.0236 25.6255L29.8178 25.857L29.7234 25.9586C29.4413 26.2543 29.0541 26.4414 28.6357 26.4841C28.2173 26.5268 27.7969 26.4221 27.4547 26.1901C27.0044 25.8936 26.7728 25.3777 26.8586 24.8619C26.8586 24.8619 26.8886 24.7076 26.9701 24.4557C27.0773 24.0617 27.236 23.6799 27.4419 23.3225C27.7849 22.7498 28.2524 22.2502 28.8056 21.8522C29.1787 21.5841 29.5947 21.3688 30.0365 21.2185C30.1566 21.1738 30.2809 21.1373 30.4053 21.1089C30.5468 21.0682 30.6883 21.0398 30.8342 21.0195L31.0829 20.987H32.035C32.1722 20.987 32.3052 21.0195 32.4381 21.0398C33.1629 21.1576 33.8448 21.4379 34.4323 21.8522C34.9855 22.2502 35.4487 22.7498 35.7961 23.3225C35.9205 23.5215 36.0277 23.7327 36.1177 23.948C36.1949 24.1145 36.2593 24.2851 36.3107 24.4598C36.3407 24.5532 36.3622 24.6466 36.3751 24.74V24.8335C36.4034 25.0191 36.3929 25.2082 36.344 25.39C36.2951 25.5718 36.2088 25.7427 36.0901 25.8928C35.9714 26.043 35.8226 26.1695 35.6522 26.2651C35.4818 26.3607 35.2931 26.4236 35.097 26.45C35.0799 26.4541 35.0627 26.4541 35.0413 26.4582C34.4409 26.5475 33.8319 26.3322 33.4459 25.8855Z" fill="#422B0D"/>
<defs>
<radialGradient id="paint0_radial_2195_1214" cx="0" cy="0" r="1" gradientUnits="userSpaceOnUse" gradientTransform="translate(23.4063 29.8091) scale(21.7257 20.5764)">
<stop offset="0.5" stop-color="#FDE030"/>
<stop offset="0.92" stop-color="#F7C02B"/>
<stop offset="1" stop-color="#F4A223"/>
</radialGradient>
<radialGradient id="paint1_radial_2195_1214" cx="0" cy="0" r="1" gradientUnits="userSpaceOnUse" gradientTransform="translate(10.6306 29.8208) scale(8.16865 6.94707)">
<stop stop-color="#ED7770"/>
<stop offset="0.9" stop-color="#ED7770" stop-opacity="0"/>
</radialGradient>
<radialGradient id="paint2_radial_2195_1214" cx="0" cy="0" r="1" gradientUnits="userSpaceOnUse" gradientTransform="translate(50.3945 475.585) scale(8.33279 7.89196)">
<stop stop-color="#ED7770"/>
<stop offset="0.9" stop-color="#ED7770" stop-opacity="0"/>
</radialGradient>
<linearGradient id="paint3_linear_2195_1214" x1="31.3831" y1="32.9106" x2="47.3325" y2="32.9106" gradientUnits="userSpaceOnUse">
<stop stop-color="#004054"/>
<stop offset="0.99" stop-color="#45A4FF"/>
</linearGradient>
</defs>
</svg>
