<svg width="68" height="70" viewBox="0 0 68 70" fill="none" xmlns="http://www.w3.org/2000/svg">
<path d="M8.08835 68.6479L51.0596 48.7239L20.355 18.0192L0.431218 60.9716C0.145485 61.6572 -0.940215 64.4192 2.01215 67.0479C5.21215 69.8859 7.40262 68.9336 8.08835 68.6479Z" fill="url(#paint0_linear_2158_1414)"/>
<path d="M16.0501 27.2949L12.8501 34.2472C11.8215 36.7425 30.0693 55.1615 40.374 53.6759L51.0596 48.7239C38.3929 54.5716 14.4882 30.6852 16.0501 27.2949Z" fill="url(#paint1_linear_2158_1414)"/>
<path d="M9.57388 41.3135L8.83105 42.8945L6.31675 48.3039C6.29772 50.4372 17.2882 61.4085 24.1644 61.1802L32.8883 57.1419C23.4405 58.7802 8.48818 43.6182 9.57388 41.3135Z" fill="url(#paint2_linear_2158_1414)"/>
<path d="M0.640451 60.5532C1.55475 62.3819 6.03095 66.8389 9.74522 67.8865L18.9643 63.6199L19.0214 63.5819C13.3452 66.1912 3.74522 56.5152 3.57378 54.2675L0.640451 60.5532Z" fill="url(#paint3_linear_2158_1414)"/>
<path d="M8.08835 68.6479L51.0596 48.7239L20.355 18.0192L0.431218 60.9716C0.145485 61.6572 -0.940215 64.4192 2.01215 67.0479C5.21215 69.8859 7.40262 68.9336 8.08835 68.6479Z" fill="url(#paint4_radial_2158_1414)"/>
<path d="M8.08835 68.6479L51.0596 48.7239L20.355 18.0192L0.431218 60.9716C0.145485 61.6572 -0.940215 64.4192 2.01215 67.0479C5.21215 69.8859 7.40262 68.9336 8.08835 68.6479Z" fill="url(#paint5_radial_2158_1414)"/>
<path d="M35.041 18.1709C34.5266 19.2185 33.517 19.3709 32.7743 19.1423L33.9933 16.7232C33.9933 16.7232 35.3646 17.028 35.403 16.1328L35.4599 17.3899L35.041 18.1709Z" fill="url(#paint6_linear_2158_1414)"/>
<path d="M38.4506 4.83807C38.4506 4.83807 39.3266 4.4381 39.879 3.29523C40.4316 2.15237 37.7076 0 37.7076 0L36.4316 2.22857C36.4316 2.22857 38.584 3.63807 37.9173 4.11427C37.2316 4.59047 38.4506 4.83807 38.4506 4.83807Z" fill="url(#paint7_linear_2158_1414)"/>
<path d="M60.7359 23.1623C61.1359 19.6575 58.7739 18.4956 57.9169 18.5908C57.9169 18.5908 57.7643 17.448 59.2883 17.0861C60.2976 16.8575 62.8693 19.1432 62.2026 21.7337L60.7359 23.1623Z" fill="url(#paint8_linear_2158_1414)"/>
<path d="M51.4216 48.4575C49.2883 50.5909 40.6786 45.4099 32.1643 36.9149C23.6691 28.4195 18.4882 19.7909 20.6215 17.6576C22.7548 15.5242 31.3643 20.7052 39.8786 29.2005C48.3739 37.7149 53.5356 46.3242 51.4216 48.4575Z" fill="url(#paint9_linear_2158_1414)"/>
<path d="M50.698 47.0472C49.079 48.6662 41.3456 43.5615 33.4409 35.6379C25.5361 27.7139 20.4124 19.9996 22.0314 18.3806C23.6505 16.7616 31.3836 21.8663 39.2886 29.7902C47.1933 37.7139 52.317 45.4282 50.698 47.0472Z" fill="url(#paint10_linear_2158_1414)"/>
<path d="M39.86 3.2959C39.86 3.2959 38.8696 5.41017 38.7363 5.63873C38.241 6.47683 36.8503 6.76256 34.3553 6.4197C31.8599 6.07683 31.1363 6.21017 31.0219 6.22923C30.9076 6.26733 29.441 5.08637 29.441 5.08637L29.5743 3.88637C29.5743 3.88637 29.9169 3.42923 31.0599 3.5816C33.0979 3.88637 39.098 4.8959 39.86 3.2959Z" fill="url(#paint11_linear_2158_1414)"/>
<path d="M44.8123 38.6662C46.8123 36.3805 48.679 38.1712 49.8596 36.5329L47.8406 34.4759C46.6596 36.0949 44.9456 34.5712 42.8313 36.7995L44.8123 38.6662Z" fill="url(#paint12_linear_2158_1414)"/>
<path d="M23.1169 10.9335C25.8788 12.5716 23.4216 14.8192 24.9835 16.0954L27.1359 14.1716C25.574 12.8954 27.8216 10.6859 25.0597 9.0478L23.1169 10.9335Z" fill="url(#paint13_linear_2158_1414)"/>
<path d="M52.3553 19.4088C52.4316 19.3898 52.4696 18.9326 53.5933 18.1326C54.7173 17.3326 57.2506 18.5707 57.5743 18.7612C57.9173 18.9517 57.6316 22.0945 57.6316 22.0945C57.6316 22.0945 54.4696 18.7231 52.8886 19.5041C51.3076 20.266 52.3553 19.4088 52.3553 19.4088Z" fill="url(#paint14_linear_2158_1414)"/>
<path d="M52.774 27.2381C52.774 27.2381 52.6596 28.4762 52.0883 29.0476C51.0596 30.0572 49.4216 28.5332 47.3453 29.0856C47.3453 29.0856 48.2976 26.6667 48.393 26.4762C48.393 26.4762 49.231 25.9619 50.0883 26.4571C50.9643 26.9333 51.7263 27.0857 52.2596 26.8C52.793 26.5143 52.774 27.2381 52.774 27.2381Z" fill="url(#paint15_linear_2158_1414)"/>
<path d="M58.3546 21.7898C58.3546 21.7898 56.3163 22.7231 56.0496 22.8564C55.7829 22.9898 55.1736 18.2469 56.6403 17.7707C58.1259 17.2945 59.1356 17.1231 59.2879 17.104C59.4403 17.0659 56.7356 17.3517 58.3546 21.7898Z" fill="#FFBF00"/>
<path d="M52.0879 29.0279C52.9263 28.1515 54.0689 26.8564 54.0119 26.4945C53.7453 24.1707 51.8596 19.0469 53.5929 18.1136C53.5929 18.1136 51.9736 19.2564 51.4786 19.5993C50.9833 19.9421 50.6213 20.8564 50.6596 22.3612C50.7546 24.9898 52.8499 28.2469 52.0879 29.0279Z" fill="#FFBF00"/>
<path d="M46.298 10.2278C44.9076 19.9992 35.2123 29.3325 35.2123 29.3325L36.5266 31.3325C36.5266 31.3325 47.0789 20.3421 48.4313 10.5326L46.298 10.2278Z" fill="url(#paint16_linear_2158_1414)"/>
<path d="M28.4119 6.15222C28.1833 6.57126 28.8499 7.27602 30.4499 9.21889C32.0499 11.1617 36.2026 16.3046 35.0216 18.1713L36.2976 15.5427C36.2976 15.5427 36.3166 13.4475 35.0596 11.4094C33.0786 8.20936 29.2883 4.76176 29.5739 3.90459L28.4119 6.15222Z" fill="url(#paint17_linear_2158_1414)"/>
<path d="M36.9073 35.8849C37.3386 35.8849 37.6883 35.5352 37.6883 35.1039C37.6883 34.6726 37.3386 34.3229 36.9073 34.3229C36.476 34.3229 36.1263 34.6726 36.1263 35.1039C36.1263 35.5352 36.476 35.8849 36.9073 35.8849Z" fill="url(#paint18_linear_2158_1414)"/>
<path d="M47.7836 3.42875C48.2149 3.42875 48.5646 3.07908 48.5646 2.64778C48.5646 2.21648 48.2149 1.86685 47.7836 1.86685C47.3523 1.86685 47.0026 2.21648 47.0026 2.64778C47.0026 3.07908 47.3523 3.42875 47.7836 3.42875Z" fill="url(#paint19_linear_2158_1414)"/>
<path d="M40.4496 14.7618C40.8809 14.7618 41.2306 14.4121 41.2306 13.9808C41.2306 13.5495 40.8809 13.1999 40.4496 13.1999C40.0183 13.1999 39.6686 13.5495 39.6686 13.9808C39.6686 14.4121 40.0183 14.7618 40.4496 14.7618Z" fill="url(#paint20_linear_2158_1414)"/>
<path d="M45.0786 29.0669C45.5099 29.0669 45.8596 28.7172 45.8596 28.2859C45.8596 27.8545 45.5099 27.5048 45.0786 27.5048C44.6473 27.5048 44.2976 27.8545 44.2976 28.2859C44.2976 28.7172 44.6473 29.0669 45.0786 29.0669Z" fill="url(#paint21_linear_2158_1414)"/>
<path d="M65.1553 27.1624C65.5863 27.1624 65.936 26.8128 65.936 26.3815C65.936 25.9502 65.5863 25.6005 65.1553 25.6005C64.7239 25.6005 64.3743 25.9502 64.3743 26.3815C64.3743 26.8128 64.7239 27.1624 65.1553 27.1624Z" fill="url(#paint22_linear_2158_1414)"/>
<path d="M60.1836 43.6389C60.6149 43.6389 60.9646 43.2892 60.9646 42.8579C60.9646 42.4266 60.6149 42.0769 60.1836 42.0769C59.7523 42.0769 59.4026 42.4266 59.4026 42.8579C59.4026 43.2892 59.7523 43.6389 60.1836 43.6389Z" fill="url(#paint23_linear_2158_1414)"/>
<path d="M56.9266 33.5802C57.358 33.5802 57.7076 33.2305 57.7076 32.7992C57.7076 32.3679 57.358 32.0182 56.9266 32.0182C56.4956 32.0182 56.146 32.3679 56.146 32.7992C56.146 33.2305 56.4956 33.5802 56.9266 33.5802Z" fill="url(#paint24_linear_2158_1414)"/>
<path d="M61.2123 12.3626C61.6436 12.3626 61.9933 12.013 61.9933 11.5817C61.9933 11.1504 61.6436 10.8007 61.2123 10.8007C60.781 10.8007 60.4313 11.1504 60.4313 11.5817C60.4313 12.013 60.781 12.3626 61.2123 12.3626Z" fill="url(#paint25_linear_2158_1414)"/>
<path d="M52.45 14.9147C52.8813 14.9147 53.2309 14.5651 53.2309 14.1338C53.2309 13.7025 52.8813 13.3528 52.45 13.3528C52.0186 13.3528 51.6689 13.7025 51.6689 14.1338C51.6689 14.5651 52.0186 14.9147 52.45 14.9147Z" fill="url(#paint26_linear_2158_1414)"/>
<path d="M45.7643 45.7716C53.7259 39.2382 67.2116 37.8859 67.2116 37.8859L67.6499 34.8762C67.6499 34.8762 51.6879 36.7809 43.2309 44.1142C44.1449 44.7429 44.9833 45.2952 45.7643 45.7716Z" fill="url(#paint27_linear_2158_1414)"/>
<path d="M25.7837 26.9519C26.317 27.6757 26.9075 28.3995 27.5359 29.1615C29.2313 25.4281 28.8693 22.4947 28.8693 22.4947L26.7932 21.1995C27.0027 23.5043 26.298 25.7138 25.7837 26.9519Z" fill="url(#paint28_linear_2158_1414)"/>
<defs>
<linearGradient id="paint0_linear_2158_1414" x1="-2.09045" y1="24.0201" x2="31.905" y2="64.3066" gradientUnits="userSpaceOnUse">
<stop offset="0.2544" stop-color="#FBE07A"/>
<stop offset="1" stop-color="#FF40BF"/>
</linearGradient>
<linearGradient id="paint1_linear_2158_1414" x1="16.3847" y1="26.9677" x2="44.5963" y2="55.1793" gradientUnits="userSpaceOnUse">
<stop offset="0.2544" stop-color="#9F00E8"/>
<stop offset="1" stop-color="#7000A3"/>
</linearGradient>
<linearGradient id="paint2_linear_2158_1414" x1="8.56507" y1="42.3258" x2="28.1309" y2="61.8915" gradientUnits="userSpaceOnUse">
<stop offset="0.2544" stop-color="#9F00E8"/>
<stop offset="1" stop-color="#7000A3"/>
</linearGradient>
<linearGradient id="paint3_linear_2158_1414" x1="2.65054" y1="55.1646" x2="15.0328" y2="67.5469" gradientUnits="userSpaceOnUse">
<stop offset="0.2544" stop-color="#9F00E8"/>
<stop offset="1" stop-color="#7000A3"/>
</linearGradient>
<radialGradient id="paint4_radial_2158_1414" cx="0" cy="0" r="1" gradientUnits="userSpaceOnUse" gradientTransform="translate(16.3303 37.5002) rotate(119.598) scale(19.516 5.9748)">
<stop stop-color="white" stop-opacity="0.5"/>
<stop offset="1" stop-color="white" stop-opacity="0"/>
</radialGradient>
<radialGradient id="paint5_radial_2158_1414" cx="0" cy="0" r="1" gradientUnits="userSpaceOnUse" gradientTransform="translate(30.0446 54.9949) rotate(151.7) scale(30.9366 9.64877)">
<stop stop-color="#440063" stop-opacity="0.75"/>
<stop offset="1" stop-color="#420061" stop-opacity="0"/>
</radialGradient>
<linearGradient id="paint6_linear_2158_1414" x1="35.1853" y1="17.4594" x2="39.8606" y2="15.9662" gradientUnits="userSpaceOnUse">
<stop stop-color="#BD2719"/>
<stop offset="1" stop-color="#FF4E0D"/>
</linearGradient>
<linearGradient id="paint7_linear_2158_1414" x1="39.5323" y1="5.85903" x2="37.4389" y2="0.658365" gradientUnits="userSpaceOnUse">
<stop stop-color="#BD2719"/>
<stop offset="1" stop-color="#FF4E0D"/>
</linearGradient>
<linearGradient id="paint8_linear_2158_1414" x1="62.8146" y1="21.7431" x2="55.0176" y2="16.747" gradientUnits="userSpaceOnUse">
<stop stop-color="#FFCB4B"/>
<stop offset="1" stop-color="#E81CA2"/>
</linearGradient>
<linearGradient id="paint9_linear_2158_1414" x1="42.8373" y1="11.5539" x2="25.4162" y2="66.4789" gradientUnits="userSpaceOnUse">
<stop offset="0.2544" stop-color="#FBE07A"/>
<stop offset="1" stop-color="#E81CA2"/>
</linearGradient>
<linearGradient id="paint10_linear_2158_1414" x1="48.5572" y1="24.1612" x2="21.8205" y2="42.9132" gradientUnits="userSpaceOnUse">
<stop stop-color="#FBE07A"/>
<stop offset="1" stop-color="white"/>
</linearGradient>
<linearGradient id="paint11_linear_2158_1414" x1="27.0361" y1="5.1034" x2="35.6713" y2="4.97256" gradientUnits="userSpaceOnUse">
<stop stop-color="#BD2719"/>
<stop offset="1" stop-color="#FF4E0D"/>
</linearGradient>
<linearGradient id="paint12_linear_2158_1414" x1="47.363" y1="34.8811" x2="45.2863" y2="38.6071" gradientUnits="userSpaceOnUse">
<stop stop-color="#FF9214"/>
<stop offset="1" stop-color="#FF4E0D"/>
</linearGradient>
<linearGradient id="paint13_linear_2158_1414" x1="23.1045" y1="6.24065" x2="26.2445" y2="15.2246" gradientUnits="userSpaceOnUse">
<stop stop-color="#80DAFE"/>
<stop offset="1" stop-color="#008EE6"/>
</linearGradient>
<linearGradient id="paint14_linear_2158_1414" x1="55.1933" y1="23.6975" x2="54.4743" y2="14.6349" gradientUnits="userSpaceOnUse">
<stop stop-color="#FFCB4B"/>
<stop offset="1" stop-color="#E81CA2"/>
</linearGradient>
<linearGradient id="paint15_linear_2158_1414" x1="47.5816" y1="27.5181" x2="52.5889" y2="28.3292" gradientUnits="userSpaceOnUse">
<stop stop-color="#FFCB4B"/>
<stop offset="1" stop-color="#E81CA2"/>
</linearGradient>
<linearGradient id="paint16_linear_2158_1414" x1="44.1406" y1="10.5796" x2="36.7123" y2="41.1494" gradientUnits="userSpaceOnUse">
<stop offset="0.2544" stop-color="#E100FF"/>
<stop offset="1" stop-color="#7000A3"/>
</linearGradient>
<linearGradient id="paint17_linear_2158_1414" x1="29.5303" y1="5.57109" x2="35.0253" y2="14.7295" gradientUnits="userSpaceOnUse">
<stop stop-color="#FF9214"/>
<stop offset="1" stop-color="#FF4E0D"/>
</linearGradient>
<linearGradient id="paint18_linear_2158_1414" x1="35.4136" y1="30.7086" x2="38.3789" y2="39.4309" gradientUnits="userSpaceOnUse">
<stop stop-color="#FFCB4B"/>
<stop offset="1" stop-color="#E81CA2"/>
</linearGradient>
<linearGradient id="paint19_linear_2158_1414" x1="45.4013" y1="-1.25774" x2="50.2856" y2="6.76676" gradientUnits="userSpaceOnUse">
<stop stop-color="#FBE07A"/>
<stop offset="1" stop-color="#E81CA2"/>
</linearGradient>
<linearGradient id="paint20_linear_2158_1414" x1="40.3332" y1="13.549" x2="41.5542" y2="18.1718" gradientUnits="userSpaceOnUse">
<stop stop-color="#80DAFE"/>
<stop offset="1" stop-color="#008EE6"/>
</linearGradient>
<linearGradient id="paint21_linear_2158_1414" x1="44.5523" y1="26.8028" x2="45.2976" y2="28.9352" gradientUnits="userSpaceOnUse">
<stop stop-color="#80DAFE"/>
<stop offset="1" stop-color="#008EE6"/>
</linearGradient>
<linearGradient id="paint22_linear_2158_1414" x1="65.7216" y1="24.5584" x2="64.3259" y2="29.0069" gradientUnits="userSpaceOnUse">
<stop stop-color="#FFCB4B"/>
<stop offset="1" stop-color="#E81CA2"/>
</linearGradient>
<linearGradient id="paint23_linear_2158_1414" x1="59.9536" y1="37.8681" x2="60.3896" y2="47.3755" gradientUnits="userSpaceOnUse">
<stop stop-color="#FFCB4B"/>
<stop offset="1" stop-color="#E81CA2"/>
</linearGradient>
<linearGradient id="paint24_linear_2158_1414" x1="56.4153" y1="31.3236" x2="57.1603" y2="33.4559" gradientUnits="userSpaceOnUse">
<stop offset="0.2544" stop-color="#9F00E8"/>
<stop offset="1" stop-color="#7000A3"/>
</linearGradient>
<linearGradient id="paint25_linear_2158_1414" x1="62.7283" y1="8.97928" x2="59.8499" y2="13.951" gradientUnits="userSpaceOnUse">
<stop stop-color="#80DAFE"/>
<stop offset="1" stop-color="#008EE6"/>
</linearGradient>
<linearGradient id="paint26_linear_2158_1414" x1="52.2486" y1="13.0259" x2="53.2079" y2="18.3465" gradientUnits="userSpaceOnUse">
<stop stop-color="#FF9214"/>
<stop offset="1" stop-color="#FF4E0D"/>
</linearGradient>
<linearGradient id="paint27_linear_2158_1414" x1="37.833" y1="39.9295" x2="65.6423" y2="40.5008" gradientUnits="userSpaceOnUse">
<stop stop-color="#80DAFE"/>
<stop offset="1" stop-color="#008EE6"/>
</linearGradient>
<linearGradient id="paint28_linear_2158_1414" x1="22.4706" y1="36.8357" x2="29.1373" y2="20.2644" gradientUnits="userSpaceOnUse">
<stop stop-color="#FBE07A"/>
<stop offset="1" stop-color="#E81CA2"/>
</linearGradient>
</defs>
</svg>
