<svg xmlns="http://www.w3.org/2000/svg" version="1.1" xmlns:xlink="http://www.w3.org/1999/xlink" width="69" height="69"><svg xmlns="http://www.w3.org/2000/svg" version="1.1" xmlns:xlink="http://www.w3.org/1999/xlink" width="69" height="69"><svg width="69" height="69" viewBox="0 0 69 69" fill="none" xmlns="http://www.w3.org/2000/svg">
<path d="M66.148 34.324C66.148 16.7481 51.8999 2.5 34.324 2.5C16.7481 2.5 2.5 16.7481 2.5 34.324C2.5 51.8999 16.7481 66.148 34.324 66.148C51.8999 66.148 66.148 51.8999 66.148 34.324Z" stroke="black" stroke-width="5"></path>
<path d="M15.1053 30.3359C14.2556 31.1856 14.2556 32.5636 15.1053 33.4133C15.9551 34.2631 17.3329 34.2631 18.1827 33.4133L16.644 31.8746L15.1053 30.3359ZM53.6137 36.4478C54.4398 35.5752 54.402 34.1978 53.5294 33.3717C52.6565 32.5456 51.2794 32.5832 50.4531 33.456L52.0334 34.952L53.6137 36.4478ZM16.644 31.8746L18.1827 33.4133L45.1094 6.48666L43.5707 4.94798L42.0319 3.4093L15.1053 30.3359L16.644 31.8746ZM24.9973 63.512L26.5775 65.0078L53.6137 36.4478L52.0334 34.952L50.4531 33.456L23.4171 62.016L24.9973 63.512Z" fill="black"></path>
</svg></svg><style>@media (prefers-color-scheme: light) { :root { filter: none; } }
@media (prefers-color-scheme: dark) { :root { filter: none; } }
</style></svg>