<svg width="110" height="110" viewBox="0 0 110 110" fill="none" xmlns="http://www.w3.org/2000/svg">
<path fill-rule="evenodd" clip-rule="evenodd" d="M74.0163 13.0029C73.4987 13.8132 73.9311 14.2981 75.8844 15.0984C83.108 18.0579 89.5393 23.117 95.0761 30.1946C96.8129 32.4149 97.1843 32.7972 97.6053 32.7972C98.1917 32.7972 98.6876 32.2959 98.6876 31.703C98.6876 30.4274 92.5675 23.4853 88.4573 20.0984C85.2235 17.4338 80.3227 14.4694 77.0107 13.1748C74.9886 12.3842 74.4315 12.3522 74.0163 13.0029ZM41.2931 29.8471C38.0953 31.4523 33.9439 34.6556 31.834 37.1457C30.6816 38.5058 30.5736 38.8701 31.1484 39.4599C31.3946 39.7128 31.7323 39.9197 31.8988 39.9197C32.065 39.9197 32.9301 39.1594 33.821 38.2304C36.7017 35.2254 38.9708 33.5001 42.2823 31.7951C44.0868 30.8664 44.4225 30.5773 44.4225 29.9513C44.4225 29.5827 43.7706 28.962 43.3836 28.962C43.2037 28.962 42.2631 29.3602 41.2931 29.8471ZM68.5125 29.1016C68.4051 29.1753 68.2245 29.4162 68.1114 29.6362C67.7633 30.3154 68.1662 30.8796 69.3876 31.4236C72.3997 32.7645 75.8994 35.2962 78.5828 38.0758C80.8025 40.3752 82.375 42.6076 83.836 45.5339C84.828 47.5203 84.9496 47.6854 85.4595 47.7367C86.1306 47.8044 86.5898 47.3863 86.5876 46.7096C86.5858 46.1176 85.1053 43.073 83.9569 41.299C80.7779 36.3894 75.619 31.8729 70.492 29.5119C69.2725 28.9501 68.8587 28.8643 68.5125 29.1016ZM23.9617 63.2961C23.7662 63.4968 23.606 63.7326 23.606 63.82C23.606 64.2945 24.2013 67.4051 24.5097 68.542C25.2321 71.2057 25.8015 72.0413 26.7309 71.8015C27.5559 71.5889 27.5861 71.1302 26.9088 69.095C26.5662 68.0652 26.1553 66.4008 25.9959 65.3963C25.7816 64.0456 25.6129 63.4868 25.3479 63.2504C24.8773 62.8302 24.4002 62.8459 23.9617 63.2961ZM5.5748 63.4473C5.19013 63.8838 5.20296 64.6589 5.64595 67.7566C6.46225 73.4645 7.88455 78.0284 10.4612 83.2086C12.1738 86.6519 12.7243 87.4801 13.3482 87.5535C13.9569 87.6255 14.5321 87.1464 14.5321 86.5679C14.5321 86.3407 14.169 85.5242 13.7252 84.7538C10.3 78.8066 8.23485 72.5093 7.53493 65.8756C7.40807 64.6734 7.19938 63.5603 7.07109 63.4018C6.75618 63.012 5.93651 63.0371 5.5748 63.4473ZM86.8247 67.585C86.437 67.8642 85.6995 69.9897 85.6995 70.8295C85.6995 71.704 86.7835 72.2017 87.3724 71.5974C87.7038 71.2572 88.3684 69.1243 88.3684 68.4006C88.3684 68.0721 88.2236 67.7784 87.9728 67.5982C87.4814 67.2448 87.3011 67.2428 86.8247 67.585ZM61.2358 89.3665C59.5415 89.744 53.2782 89.7821 51.1399 89.4283C49.6842 89.1872 49.5613 89.192 49.2272 89.5023C48.8668 89.837 48.766 90.4301 49.0064 90.7999C49.2688 91.203 49.915 91.4046 51.9077 91.706C55.4986 92.2491 62.4385 91.7649 63.6376 90.8877C64.1907 90.4833 64.2971 89.8572 63.8913 89.397C63.5272 88.9842 62.9811 88.978 61.2358 89.3665Z" fill="#2C2C35"/>
<path fill-rule="evenodd" clip-rule="evenodd" d="M98.832 80.6268C98.8857 80.6007 98.9379 80.562 98.9943 80.5071L98.832 80.6268Z" fill="#2C2C35"/>
<path fill-rule="evenodd" clip-rule="evenodd" d="M98.9943 80.5071C99.1395 80.3657 99.3118 80.1174 99.6049 79.7035C100.48 78.4682 102.421 75.8283 103.375 73.9079C106.495 67.6257 108.506 60.0895 108.23 52.6249C108.3 50.8165 107.504 49.3028 106.747 49.2112C105.845 49.1023 106.16 49.7502 106.16 51.9553C106.16 58.6661 105.329 64.7937 102.642 70.1348C101.78 72.1995 99.452 75.8352 98.305 77.5962C96.9565 79.6663 96.9202 80.3979 98.1552 80.6101C98.4946 80.6685 98.6697 80.7057 98.832 80.6268L98.9943 80.5071Z" fill="#2C2C35"/>
<path fill-rule="evenodd" clip-rule="evenodd" d="M37.587 12.3881C37.53 12.3786 37.4671 12.3803 37.3921 12.3929L37.587 12.3881Z" fill="#2C2C35"/>
<path fill-rule="evenodd" clip-rule="evenodd" d="M37.3921 12.3929C37.1987 12.4252 36.9247 12.5295 36.4633 12.6999C35.086 13.2088 32.4529 14.4718 30.6337 15.4962C24.6824 18.8474 18.9985 23.9727 14.637 29.921C13.5804 31.362 13.4185 31.9845 13.9679 32.4949C14.6219 33.1024 15.1772 32.8864 16.089 31.6694C20.0127 26.4327 24.633 21.9948 29.4375 18.8483C31.2632 17.6525 34.4431 15.9566 36.3272 15.1738C38.5419 14.2536 38.9757 13.6752 38.1142 12.7911C37.8775 12.548 37.7593 12.4169 37.587 12.3881L37.3921 12.3929Z" fill="#2C2C35"/>
<path fill-rule="evenodd" clip-rule="evenodd" d="M76.0268 102.94C76.0467 102.938 76.2672 103.036 76.5165 103.158C77.0187 103.404 77.2695 104.133 77.0056 104.579C76.7053 105.088 73.2284 106.661 70.4266 107.558C62.3486 110.141 54.4004 110.675 46.6103 109.159C41.1689 108.099 32.8496 105.104 32.2249 103.979C32.0453 103.655 32.1346 103.193 32.386 102.873L33.1001 102.504C33.4593 102.509 34.0316 102.729 35.4594 103.347C39.7583 105.205 42.05 105.941 46.5605 106.911C48.6843 107.368 49.6528 107.468 53.2735 107.607C58.0803 107.79 60.2282 107.655 64.1426 106.92C67.2983 106.328 71.9583 104.875 74.2995 103.754C75.2294 103.309 76.0069 102.942 76.0268 102.94Z" fill="#2C2C35"/>
<path fill-rule="evenodd" clip-rule="evenodd" d="M32.7548 102.578C32.8625 102.53 32.9665 102.502 33.1001 102.504L32.386 102.873C32.4857 102.746 32.6108 102.642 32.7548 102.578Z" fill="#2C2C35"/>
<path fill-rule="evenodd" clip-rule="evenodd" d="M76.087 47.3625C76.087 48.0672 75.6563 48.3522 73.865 48.8335C72.3334 49.2451 72.2647 49.2485 71.9169 48.9267C71.5131 48.5531 71.4371 47.6845 71.783 47.3957C71.9076 47.2916 72.5804 47.041 73.278 46.8387C74.7763 46.4045 75.5522 46.3344 75.8837 46.6799L75.9476 46.7595C76.0448 46.9053 76.087 47.1055 76.087 47.3625Z" fill="#2C2C35"/>
<path fill-rule="evenodd" clip-rule="evenodd" d="M75.9476 46.7595C75.9285 46.7309 75.9072 46.7043 75.8837 46.6799L75.9476 46.7595Z" fill="#2C2C35"/>
<path fill-rule="evenodd" clip-rule="evenodd" d="M68.4843 36.4431C68.3213 36.4942 68.0705 36.6544 67.869 36.8428C66.7285 37.9091 65.5763 39.4205 65.5763 39.8505C65.5763 40.4432 66.3454 40.9915 66.8496 40.7579C67.3833 40.5109 69.5629 37.9007 69.5629 37.5087C69.5629 37.1023 68.9468 36.426 68.5765 36.426C68.564 36.426 68.5504 36.4274 68.5355 36.4301L68.4843 36.4431Z" fill="#2C2C35"/>
<path fill-rule="evenodd" clip-rule="evenodd" d="M68.5355 36.4301C68.5197 36.433 68.5025 36.4373 68.4843 36.4431L68.5355 36.4301Z" fill="#2C2C35"/>
<path fill-rule="evenodd" clip-rule="evenodd" d="M56.5153 31.2399C57.3541 31.2399 57.4363 31.5301 57.3814 34.2992C57.3354 36.6115 57.2974 36.8674 56.9667 37.0914C56.6728 37.2903 56.5151 37.2937 56.1512 37.1085C55.7066 36.8824 55.6991 36.8394 55.6493 34.3162C55.6171 32.6869 55.6604 31.7813 55.7832 31.5352L55.795 31.514C55.799 31.5076 55.8031 31.5019 55.8072 31.4967C55.9222 31.3554 56.2406 31.2399 56.5153 31.2399Z" fill="#2C2C35"/>
<path fill-rule="evenodd" clip-rule="evenodd" d="M55.795 31.514C55.791 31.5205 55.7871 31.5275 55.7832 31.5352L55.795 31.514Z" fill="#2C2C35"/>
<path fill-rule="evenodd" clip-rule="evenodd" d="M44.5899 36.4476C44.9759 36.3817 47.4544 39.2771 47.4544 39.7939C47.4544 40.3245 46.9504 40.8715 46.4618 40.8715C46.0832 40.8715 44.502 39.2292 43.7659 38.0718C43.4481 37.572 43.5605 36.8911 43.9555 36.636L43.9868 36.6171C44.0332 36.5907 44.0833 36.5699 44.1367 36.5558C44.3168 36.5081 44.5207 36.4594 44.5899 36.4476Z" fill="#2C2C35"/>
<path fill-rule="evenodd" clip-rule="evenodd" d="M43.9868 36.6171C43.9762 36.6231 43.9657 36.6294 43.9555 36.636L43.9868 36.6171Z" fill="#2C2C35"/>
<path fill-rule="evenodd" clip-rule="evenodd" d="M37.6577 46.4374C37.5561 46.4732 37.3845 46.6077 37.2435 46.7669C36.8545 47.2062 36.8616 47.7782 37.2608 48.14C37.572 48.422 40.0368 49.2064 40.6119 49.2064C41.3439 49.2064 41.7536 48.037 41.2147 47.4859C40.998 47.2646 38.2216 46.4281 37.7031 46.4281C37.6949 46.4281 37.6857 46.4294 37.6755 46.432L37.6577 46.4374Z" fill="#2C2C35"/>
<path fill-rule="evenodd" clip-rule="evenodd" d="M37.6755 46.432C37.6699 46.4334 37.6639 46.4352 37.6577 46.4374L37.6755 46.432Z" fill="#2C2C35"/>
<path fill-rule="evenodd" clip-rule="evenodd" d="M50.3663 72.7297H62.4403L62.7567 73.4464C63.0487 74.1082 63.0507 74.2068 62.7837 74.7347C62.573 75.1513 62.3228 75.339 61.8608 75.4276C61.2977 75.5356 61.2267 75.614 61.223 76.1305C61.2141 77.4252 59.9848 79.0968 58.6125 79.6811C55.7378 80.9048 52.1013 79.1666 51.8457 76.4466C51.7628 75.5651 51.748 75.5462 51.0533 75.4329C50.4852 75.3399 50.2902 75.1985 50.0669 74.7179C49.8158 74.1777 49.8165 74.0507 50.0737 73.4242L50.3546 72.7397L50.3663 72.7297Z" fill="#2C2C35"/>
<path fill-rule="evenodd" clip-rule="evenodd" d="M50.3587 72.7297H50.3663L50.3546 72.7397L50.3587 72.7297Z" fill="#2C2C35"/>
<path fill-rule="evenodd" clip-rule="evenodd" d="M59.2628 39.836C67.0005 41.3542 71.9342 48.7956 70.3621 56.5755C69.8258 59.2291 68.9814 60.8963 66.8846 63.4413C65.3931 65.2513 64.7314 66.6662 64.4603 68.6239C64.2767 69.9529 64.1792 70.2143 63.7206 70.6085L63.1926 71.0626H49.7821L49.2693 70.5385C48.8676 70.1279 48.7304 69.777 48.635 68.9178C48.3819 66.6346 47.6758 65.1538 45.7857 62.9408C44.4654 61.3948 43.5693 59.8236 42.9706 58.0045C42.5243 56.6489 42.4827 56.2781 42.4827 53.6517C42.4827 51.0256 42.5243 50.6545 42.9706 49.2992C44.3827 45.0088 47.8713 41.5868 52.0365 40.2236L52.4369 40.0995C53.03 39.926 53.6357 39.7942 54.2499 39.7073C55.5127 39.5287 58.0269 39.5932 59.2628 39.836ZM53.8876 41.8869C49.0779 42.9709 45.5902 46.4497 44.5409 51.2097C44.2619 52.475 44.3051 55.0527 44.6297 56.4817C45.0292 58.2433 45.9553 59.9857 47.4377 61.7655C49.3966 64.1169 50.2469 65.8192 50.5005 67.8967L50.6268 68.9326L55.6092 69.0355V60.7881L53.3213 58.4444C51.5286 56.608 51.0333 55.9931 51.0333 55.6033C51.0333 54.9734 51.2842 54.7168 51.9003 54.7168C52.2784 54.7168 52.846 55.185 54.4475 56.8173L56.5085 58.9176L58.6581 56.7478C59.8403 55.5545 60.8837 54.578 60.977 54.578C61.4017 54.578 61.9518 55.1863 61.9518 55.6563C61.9518 56.0517 61.472 56.6469 59.6867 58.4676L57.4212 60.7772V69.0253H62.4449L62.5432 68.0529C62.7535 65.9719 63.6485 64.1823 65.7602 61.6198C71.6825 54.4344 68.0678 43.8285 59.0352 41.8864C57.4925 41.5547 55.3604 41.5549 53.8876 41.8869Z" fill="#2C2C35"/>
<path fill-rule="evenodd" clip-rule="evenodd" d="M52.4369 40.0995C52.3028 40.1387 52.1693 40.1801 52.0365 40.2236L52.4369 40.0995Z" fill="#2C2C35"/>
<path fill-rule="evenodd" clip-rule="evenodd" d="M84.924 74.6487C85.0766 74.8019 85.3644 75.622 85.5634 76.4711L85.9258 78.0146L88.2746 78.729L89.5302 77.9896C90.2208 77.583 90.9157 77.2503 91.0747 77.2503C91.4697 77.2503 93.891 79.7341 93.891 80.1392C93.891 80.3184 93.5186 81.0855 93.0633 81.8435L92.2359 83.2219L92.6369 84.1323C92.9857 84.9247 93.1531 85.0726 93.9252 85.2705C94.4131 85.3959 95.1811 85.6097 95.6315 85.746L96.4506 85.9939L96.5088 87.9687C96.5507 89.3906 96.4933 90.0052 96.3027 90.1637C96.1574 90.2849 95.3941 90.5143 94.6065 90.6731C93.195 90.958 93.1678 90.9762 92.721 91.9122L92.2676 92.8622L93.2002 94.3956C94.285 96.1792 94.2881 96.163 92.5687 97.7966C91.2408 99.0584 91.1343 99.0625 89.2236 97.9188L88.0094 97.1921L86.0071 97.9375L85.5758 99.6337C85.3386 100.566 85.0789 101.396 84.9986 101.477C84.7206 101.756 81.1942 101.65 81.0133 101.358C80.921 101.208 80.6818 100.366 80.4817 99.4853L80.118 97.8847L78.0309 97.2143L76.659 98.0331C75.9044 98.4834 75.1675 98.852 75.0214 98.852C74.6006 98.852 72.1847 96.3352 72.1847 95.897C72.1847 95.6797 72.5518 94.9179 73.0008 94.2036L73.8167 92.9054L73.4224 91.9811C73.0767 91.1713 72.9185 91.0285 72.1457 90.8303C71.6603 90.7059 70.8946 90.4926 70.444 90.3563L69.6251 90.1084L69.5729 88.257C69.5441 87.2385 69.5989 86.2846 69.694 86.1375C69.7892 85.9898 70.5495 85.7102 71.3836 85.5153C72.8884 85.1642 72.9034 85.1538 73.3681 84.1705L73.8365 83.1795L73.0106 81.8659C72.5564 81.1433 72.1847 80.3462 72.1847 80.0943C72.1847 79.5581 74.4417 77.2503 74.9661 77.2503C75.1526 77.2503 75.8586 77.5881 76.5353 78.001L77.7652 78.7517L80.0687 77.9293L80.4385 76.4138C80.634 75.614 80.8856 74.8442 81.0115 74.6551L81.0261 74.6351L81.0267 74.6343C81.3359 74.26 84.5493 74.2721 84.924 74.6487ZM80.9655 83.997C78.3688 85.3601 77.75 88.8815 79.7212 91.0779C80.6579 92.1219 81.815 92.6697 83.0956 92.6755C87.1125 92.6941 89.0788 87.6345 86.1853 84.7235C84.7636 83.2926 82.8222 83.0225 80.9655 83.997Z" fill="#2C2C35"/>
<path fill-rule="evenodd" clip-rule="evenodd" d="M81.0261 74.6351C81.0215 74.6408 81.0166 74.6475 81.0115 74.6551L81.0261 74.6351Z" fill="#2C2C35"/>
<path fill-rule="evenodd" clip-rule="evenodd" d="M32.9488 74.3779C44.3838 74.4252 44.5965 74.4327 45.0885 74.8083C45.3639 75.0183 45.7575 75.4202 45.9632 75.7015C46.3229 76.1936 46.3404 76.5014 46.4277 83.8427L46.5183 91.4727L47.5951 93.4182C48.8736 95.7284 48.9955 96.5213 48.1818 97.2363L47.6768 97.6798H17.975L17.4702 97.2363C16.6568 96.5213 16.7786 95.7286 18.057 93.4182L19.1336 91.4727L19.2242 83.7502C19.3117 76.3075 19.3285 76.0086 19.6905 75.5048C19.8971 75.2172 20.3459 74.8351 20.688 74.656C20.7105 74.6442 20.7334 74.6328 20.7574 74.6218L20.8947 74.5684C21.5652 74.3494 23.2934 74.3379 32.9488 74.3779ZM29.4165 94.3817C29.1152 94.6895 29.1445 95.1889 29.4837 95.5358C29.7195 95.7766 30.2789 95.827 32.7201 95.827C35.4432 95.827 35.6968 95.7982 36.0004 95.4556C36.2721 95.1489 36.2936 95.0039 36.1232 94.6219L35.9168 94.1593H32.7754C30.5741 94.1593 29.5689 94.2259 29.4165 94.3817ZM21.4005 90.8241H44.2514V76.5569H21.4005V90.8241Z" fill="#2C2C35"/>
<path fill-rule="evenodd" clip-rule="evenodd" d="M20.8947 74.5684C20.8438 74.585 20.799 74.6028 20.7574 74.6218L20.8947 74.5684Z" fill="#2C2C35"/>
<path fill-rule="evenodd" clip-rule="evenodd" d="M13.6744 38.923L14.4876 39.5545L15.0986 39.0438C17.428 37.0971 21.0397 36.1954 23.9573 36.8319C25.3323 37.132 26.049 37.6964 26.1177 38.5327L26.1743 39.2195H27.1519C28.782 39.2195 28.6948 38.6674 28.6948 48.9937C28.6948 57.9317 28.6942 57.9476 28.3 58.3744L27.9051 58.8018H22.3068C17.6083 58.8018 16.7084 58.8438 16.7084 59.0625C16.7084 59.206 16.4569 59.5385 16.1496 59.8014C15.7006 60.1858 15.3997 60.2799 14.6177 60.2799C13.3497 60.2799 12.7685 60.0398 12.3876 59.359L12.0773 58.8043L6.5172 58.803C1.16814 58.8018 0.93894 58.7873 0.478551 58.419L0 58.0362V49.0177C0 40.4269 0.0163465 39.9788 0.345793 39.5652C0.626204 39.2127 0.865749 39.1306 1.61654 39.1291C2.49046 39.1275 2.54149 39.1007 2.54204 38.6479C2.54295 37.8487 3.61519 37.1515 5.5154 36.7145C5.78732 36.6519 6.06312 36.6046 6.34196 36.5723L6.39344 36.5665C8.7763 36.3067 11.377 37.1392 13.6744 38.923ZM19.4226 39.0137C18.064 39.4559 16.6801 40.242 15.9959 40.9598L15.4328 41.5509L15.5279 56.0142L16.436 55.4362C16.9354 55.1182 17.9161 54.6452 18.6154 54.3845C19.7246 53.9715 20.1758 53.911 22.1568 53.9088L24.427 53.9063L24.3471 39.1273L23.6608 38.9106C22.6368 38.5873 20.5784 38.6374 19.4226 39.0137ZM6.28526 38.6807C5.79672 38.7612 5.16327 38.9255 4.87778 39.0459L4.35872 39.2646V53.9072L6.49268 53.9067C8.96371 53.9063 10.4664 54.2907 12.2355 55.3764C12.8219 55.7363 13.3123 56.0307 13.3251 56.0307C13.338 56.0309 13.3264 52.6696 13.2992 48.5612L13.2498 41.0915L12.5727 40.5584C10.5775 38.9869 8.39125 38.3339 6.28526 38.6807Z" fill="#2C2C35"/>
<path fill-rule="evenodd" clip-rule="evenodd" d="M6.39344 36.5665C6.37627 36.5684 6.35911 36.5703 6.34196 36.5723L6.39344 36.5665Z" fill="#2C2C35"/>
<path fill-rule="evenodd" clip-rule="evenodd" d="M64.354 2.63891C67.3227 4.82825 69.1999 7.9398 69.8173 11.6946C71.1756 19.957 64.7806 27.7199 56.6158 27.7199C51.5177 27.7199 46.6912 24.5789 44.4474 19.8005C41.8879 14.3501 42.8678 8.48633 47.0627 4.15127C49.143 2.00125 51.3753 0.750336 54.0888 0.213483C54.7106 0.0905123 55.3512 0.0215588 56.001 0.00432035L56.1542 0.00121543C58.9982 -0.0386723 62.002 0.904507 64.354 2.63891ZM62.4571 21.3501C62.1468 22.3211 61.4715 23.8056 61.0124 24.5249L60.6136 25.15L61.4094 24.7325C62.9048 23.9479 65.3606 21.977 65.3606 21.5614C65.3606 21.3974 64.5904 21.1149 63.4295 20.8531L62.6704 20.6819L62.4571 21.3501ZM49.1328 20.9623C48.4883 21.1123 47.8961 21.2977 47.817 21.3745C47.5935 21.5914 49.728 23.5295 51.0003 24.2647C52.2696 24.9982 52.571 25.0853 52.1564 24.5987C51.7909 24.1696 51.0435 22.6005 50.7586 21.6639C50.6338 21.254 50.4807 20.8671 50.4182 20.8041C50.356 20.7411 49.7776 20.8123 49.1328 20.9623ZM57.427 25.505L57.9882 25.1685C58.877 24.6351 59.7123 23.4963 60.3181 21.9928C60.6258 21.2282 60.8353 20.5587 60.7832 20.5049C60.7311 20.4508 59.9546 20.3636 59.0578 20.3107L57.427 20.2147V25.505ZM52.6077 20.4247L52.206 20.5459L52.8301 22.0366C53.2812 23.1138 53.7013 23.7727 54.3454 24.4124C54.8355 24.8994 55.3238 25.2977 55.4304 25.2977C55.5586 25.2977 55.6241 24.4508 55.6241 22.7819V20.2663L54.3167 20.285C53.5976 20.2952 52.8288 20.358 52.6077 20.4247ZM63.4965 16.027C63.4345 16.7702 63.3317 17.7287 63.2683 18.1573L63.1528 18.9364L63.851 19.0702C64.2351 19.1438 64.9885 19.3594 65.5255 19.5493C66.0624 19.7392 66.519 19.8735 66.54 19.8476C67.0156 19.2647 68.0653 16.077 68.0653 15.2155V14.6761H63.6098L63.4965 16.027ZM57.5475 14.8004C57.4811 14.8686 57.427 15.7071 57.427 16.6638V18.4029H58.5738C59.2048 18.4029 60.0855 18.4545 60.5309 18.5177L61.341 18.6325L61.4504 17.9121C61.5104 17.5159 61.6146 16.6258 61.6819 15.9339L61.8044 14.6761H59.736C58.5983 14.6761 57.6134 14.732 57.5475 14.8004ZM51.4231 14.8158C51.3151 15.0167 51.6636 18.2881 51.8074 18.421C51.8735 18.4821 52.7595 18.4933 53.7759 18.446L55.6241 18.3595V14.6761H53.5612C52.4263 14.6761 51.4643 14.7391 51.4231 14.8158ZM44.9857 15.0685C44.9857 16.2574 46.2202 19.7092 46.6437 19.7049C46.7732 19.7036 47.3935 19.5359 48.022 19.3322C48.6507 19.1285 49.3661 18.9619 49.6118 18.9619C49.9537 18.9619 50.0362 18.8852 49.9633 18.6358C49.8666 18.3049 49.4936 15.3499 49.4936 14.9138C49.4936 14.7336 48.9471 14.6761 47.2395 14.6761C45.0684 14.6761 44.9857 14.6904 44.9857 15.0685ZM58.8696 9.25909L57.5173 9.36531L57.4136 12.8126H61.7546V12.3544C61.7546 12.1023 61.6635 11.2638 61.5521 10.491L61.3501 9.08579L60.7859 9.11933C60.4757 9.13778 59.6133 9.20077 58.8696 9.25909ZM51.7583 9.59302C51.6942 9.89526 51.5796 10.7433 51.5035 11.4777L51.3656 12.8126H55.6241V9.27214L54.407 9.27008C53.7376 9.26896 52.8942 9.21755 52.5323 9.15568C51.9172 9.05058 51.8679 9.07854 51.7583 9.59302ZM45.982 8.93263C45.5295 9.95621 44.9857 11.8923 44.9857 12.4791C44.9857 12.7819 45.1943 12.8126 47.2395 12.8126C48.4792 12.8126 49.4936 12.7476 49.4936 12.668C49.4936 12.3267 49.8756 9.33904 49.9535 9.07145C50.0328 8.79884 49.0778 8.48224 46.7397 8.00576C46.5037 7.95786 46.3056 8.2003 45.982 8.93263ZM65.8806 8.06726C65.5221 8.19733 64.7621 8.40378 64.192 8.52602L63.1553 8.74852L63.2676 9.4296C63.329 9.80415 63.4313 10.7185 63.495 11.4617L63.6105 12.8126H68.1145L68.0042 11.9821C67.8669 10.9474 67.2342 8.9669 66.834 8.31864C66.5473 7.85464 66.5009 7.84234 65.8806 8.06726ZM61.3154 3.59242C61.5917 4.07989 61.9991 4.9911 62.2206 5.61761C62.6074 6.71142 62.6473 6.75559 63.2257 6.73472C63.557 6.7226 64.1759 6.61377 64.6008 6.49285L65.3737 6.2726L64.9616 5.75734C64.3202 4.95571 63.0416 3.9338 61.8757 3.29166L60.8127 2.70617L61.3154 3.59242ZM51.1622 3.29578C50.0432 3.93344 47.9509 5.61982 47.8107 5.99717C47.6952 6.30856 48.3821 6.59702 49.6544 6.77143L50.507 6.88826L50.7419 6.07712C51.0197 5.11635 51.765 3.53579 52.1564 3.07625C52.5538 2.60985 52.2474 2.67748 51.1622 3.29578ZM57.427 4.79993V7.40873L58.1933 7.40704C58.6148 7.4063 59.3875 7.35244 59.9102 7.28742C61.0081 7.15118 61.0031 7.21641 60.0823 5.11317C59.6989 4.23755 59.2496 3.58572 58.6372 3.01681C58.1485 2.56271 57.6763 2.19113 57.588 2.19113C57.4994 2.19113 57.427 3.3651 57.427 4.79993ZM54.7546 2.74755C54.3459 3.05352 53.7663 3.74523 53.467 4.28488C52.8713 5.35764 52.2843 7.001 52.4395 7.16126C52.4934 7.21677 53.2317 7.30697 54.0805 7.36177L55.6241 7.46127V4.8262C55.6241 3.37682 55.5958 2.19113 55.5609 2.19113C55.5262 2.19113 55.1632 2.44158 54.7546 2.74755Z" fill="#2C2C35"/>
<path fill-rule="evenodd" clip-rule="evenodd" d="M56.1542 0.00121543C56.1031 0.00193241 56.052 0.00296701 56.001 0.00432035L56.1542 0.00121543Z" fill="#2C2C35"/>
<path fill-rule="evenodd" clip-rule="evenodd" d="M84.1036 57.69C84.3293 55.6497 84.8523 54.5286 86.2457 53.0985C87.3844 51.9298 88.6918 51.1516 89.8368 50.9607C90.2772 50.8876 90.5425 50.6974 90.7334 50.3186L90.9944 49.8006H91.0271L93.5087 51.9204C95.9742 54.0265 96.0079 54.0659 95.6736 54.4439C95.1281 55.061 94.915 55.6124 94.915 56.4058C94.915 58.1964 93.8432 60.6364 92.4112 62.1064C90.4417 64.1276 87.6916 65.1377 84.2063 65.1196C80.6482 65.1011 80.1287 64.6733 81.738 63.0863C83.2486 61.5966 83.8138 60.3074 84.1036 57.69Z" fill="#2C2C35"/>
<path fill-rule="evenodd" clip-rule="evenodd" d="M91.0042 49.7811L91.0271 49.8006H90.9944L91.0042 49.7811Z" fill="#2C2C35"/>
<path fill-rule="evenodd" clip-rule="evenodd" d="M110 33.4962C110 34.0342 108.492 37.9972 107.412 40.3005C105.264 44.878 102.648 48.8983 100.043 51.6263C98.3479 53.4019 97.8896 53.4613 96.2724 52.1144C92.0715 48.6164 91.9331 48.456 92.1936 47.3903C92.4451 46.3621 94.3608 43.8112 96.674 41.4239C99.8646 38.1311 103.467 35.4109 107.486 33.2593C108.195 32.8794 108.88 32.5675 109.018 32.5601L109.041 32.5609C109.321 32.589 110 33.2444 110 33.4962Z" fill="#2C2C35"/>
<path fill-rule="evenodd" clip-rule="evenodd" d="M109.022 32.5599C109.028 32.5599 109.034 32.5602 109.041 32.5609L109.018 32.5601C109.019 32.56 109.021 32.5599 109.022 32.5599Z" fill="#2C2C35"/>
</svg>
