<svg width="40" height="40" viewBox="0 0 40 40" fill="none" xmlns="http://www.w3.org/2000/svg">
<path fill-rule="evenodd" clip-rule="evenodd" d="M22.5609 38.5629C23.9267 34.7736 26.0616 31.3026 28.8337 28.3645C31.6058 25.4264 34.956 23.0836 38.6772 21.4813C39.082 21.3126 39.4253 21.0255 39.6614 20.6582C39.8975 20.291 40.0151 19.8611 39.9985 19.4258C39.9913 18.9888 39.8497 18.5644 39.5925 18.2095C39.3354 17.8546 38.9751 17.5862 38.5598 17.4401C34.7519 16.0571 31.2711 13.9126 28.3333 11.1396C25.3955 8.36663 23.0634 5.02442 21.4817 1.32023C21.3139 0.918012 21.0264 0.576204 20.6575 0.340506C20.2886 0.104809 19.8559 -0.0135931 19.4174 0.00124153C18.9797 0.0127711 18.556 0.156321 18.2026 0.412734C17.8492 0.669147 17.5829 1.02628 17.4392 1.43656C16.0748 5.22757 13.9404 8.70034 11.1682 11.6399C8.39607 14.5794 5.04515 16.9231 1.3229 18.5258C0.918077 18.6945 0.574677 18.9815 0.338595 19.3488C0.102513 19.716 -0.0150562 20.146 0.00154417 20.5813C0.0100249 21.017 0.152276 21.4399 0.409327 21.7933C0.666377 22.1467 1.026 22.414 1.44017 22.5594C5.24733 23.9436 8.72753 26.0885 11.6652 28.8613C14.6028 31.634 16.9353 34.9754 18.5183 38.6787C18.6834 39.0828 18.9704 39.4264 19.3399 39.6625C19.7095 39.8986 20.1435 40.0157 20.5827 39.9977C21.0211 39.9892 21.4463 39.8468 21.8003 39.59C22.1543 39.3331 22.4199 38.9749 22.5609 38.5629Z" fill="#6759B2"/>
<path fill-rule="evenodd" clip-rule="evenodd" d="M28.3476 11.1566C27.6361 21.1791 22.071 27.0772 11.6525 28.8509C14.5974 31.6243 16.9347 34.97 18.5183 38.6793C18.6835 39.0834 18.9705 39.4269 19.34 39.663C19.7095 39.8991 20.1436 40.0162 20.5827 39.9982C21.0212 39.9897 21.4464 39.8474 21.8004 39.5905C22.1543 39.3337 22.4199 38.9749 22.5609 38.5629C23.9267 34.7736 26.0616 31.3026 28.8337 28.3645C31.6058 25.4264 34.956 23.0836 38.6772 21.4813C39.082 21.3126 39.4253 21.0255 39.6614 20.6582C39.8975 20.291 40.0151 19.8611 39.9985 19.4258C39.9913 18.9888 39.8497 18.5644 39.5925 18.2095C39.3354 17.8546 38.9751 17.5862 38.5598 17.4401C34.756 16.0653 31.2795 13.9262 28.3476 11.1566Z" fill="#5748A7"/>
</svg>
