<svg width="42" height="50" viewBox="0 0 42 50" fill="none" xmlns="http://www.w3.org/2000/svg">
<path fill-rule="evenodd" clip-rule="evenodd" d="M7.38534 0.18454C6.68114 0.370335 5.66054 1.67953 5.65586 2.40334C5.65389 2.67316 5.3887 3.67753 5.06664 4.63498C4.56261 6.1323 4.39937 6.37949 3.90027 6.40073C2.32467 6.46818 1.9807 6.54241 1.49071 6.9203C0.953936 7.33437 0.0086719 10.2044 5.40009e-05 11.4459C-0.00708654 12.5051 0.693672 13.0536 2.24908 13.2053C3.50705 13.3283 3.65207 13.4 3.76238 13.953C3.99433 15.1153 5.49064 26.0635 7.13198 38.6058C8.21611 46.8911 8.49114 48.262 9.21234 48.9757C9.5738 49.3333 10.2795 49.7306 10.7805 49.8587C11.3607 50.0069 15.3887 50.0403 21.8676 49.9504L32.0436 49.8095L32.8862 48.9377C33.4212 48.384 33.7285 47.8301 33.7283 47.4205C33.7278 47.0655 33.9391 45.3572 34.1974 43.6241C34.4559 41.891 34.907 38.6875 35.2 36.5051C36.3284 28.0986 37.2501 21.4891 38.0562 16.0233L38.4605 13.2807L39.2341 13.2574C41.5703 13.1871 41.9505 12.5966 41.5029 9.73079C41.3283 8.61276 41.0011 7.43123 40.7755 7.10493C40.4126 6.57999 40.1976 6.51183 38.9032 6.51183H37.4411L37.1585 5.51984C37.0028 4.97412 36.6788 3.81874 36.4382 2.95186C35.882 0.948026 35.4351 0.311516 34.4534 0.125488C33.3946 -0.0752452 8.1612 -0.0201607 7.38534 0.18454ZM7.77783 2.3688C7.73277 2.52938 7.44986 3.43081 7.14922 4.37192C6.84857 5.31327 6.67646 6.15355 6.76683 6.23921C6.85719 6.3251 13.309 6.43247 21.1041 6.47799L35.277 6.56085L35.1251 6.01117C35.0417 5.7089 34.7839 4.69987 34.5522 3.76926L34.1311 2.07703H20.9955C10.6946 2.07703 7.84185 2.14005 7.77783 2.3688ZM2.37539 9.77608C2.1501 10.5445 1.96567 11.2272 1.96567 11.2932C1.96567 11.3593 10.4565 11.4134 20.8342 11.4134H39.7027L39.55 10.5382C39.4661 10.0569 39.3962 9.37391 39.3947 9.02099L39.392 8.37911H2.78511L2.37539 9.77608ZM5.74746 13.6892C5.81418 13.914 6.04834 15.4106 6.26772 17.0153C7.94501 29.2852 9.32191 39.595 9.85278 43.8575C10.2071 46.7037 10.4947 47.7431 10.9758 47.9181C11.1885 47.9956 15.7179 48.0589 21.041 48.0589C29.9091 48.0589 30.7603 48.0246 31.2062 47.6504C31.7112 47.2263 31.7878 46.7828 33.2543 35.8048C33.5288 33.7508 33.9122 31.0199 34.1065 29.7362C34.3005 28.4524 34.5236 26.8244 34.6021 26.1183C34.6807 25.4122 34.9038 23.7317 35.0983 22.3837C35.6562 18.5145 36.191 14.2965 36.191 13.7662V13.2807H20.9086C6.47161 13.2807 5.63271 13.3034 5.74746 13.6892Z" fill="black"/>
<path fill-rule="evenodd" clip-rule="evenodd" d="M27.5097 17.3742C26.6104 17.4864 25.6321 17.8795 23.9208 18.6868C23.4272 18.9196 23.4802 18.8359 19.7703 23.1256L17.143 25.9282L17.1429 17.6684H14.0552V36.5768L14.2313 36.5359C14.9834 36.3609 16.4077 35.6717 17.143 35.127L17.1429 30.6471L17.536 30.2893L17.947 29.8634C18.2445 29.514 18.6437 29.3776 18.659 29.3792C18.7076 29.3845 21.6122 33.121 21.6122 33.1784C21.6122 33.2381 20.5907 34.1237 19.8516 34.7051C16.805 37.1009 13.8588 38.4093 12.3235 38.048C11.744 37.9117 11.2965 37.4005 11.184 36.7462C11.0184 35.784 11.6169 34.0635 12.8447 31.9725L13.0825 31.5675L13.053 29.3587L12.5113 30.1135C11.0106 32.2047 9.98801 34.3086 9.77891 35.7354C9.55172 37.2858 10.0163 38.569 11.0129 39.1435C11.6042 39.4844 11.9588 39.5645 12.8634 39.5616C13.5221 39.5594 13.7526 39.5327 14.2908 39.3961C16.6928 38.7864 19.3898 37.2159 22.1628 34.8121L22.6051 34.4287L23.7143 35.8398C24.3244 36.6159 24.9055 37.3523 25.0055 37.4763L25.1875 37.7018L27.395 37.714C28.6091 37.7208 29.5964 37.708 29.5889 37.6856C29.5815 37.6633 28.5759 36.3951 27.3543 34.8674C26.1328 33.3398 25.1033 32.0438 25.0666 31.9875C25.0081 31.8977 25.077 31.8161 25.6354 31.3144C26.4152 30.614 26.8721 30.1639 26.8382 30.1296C26.8241 30.1153 26.6893 30.0358 26.5385 29.9527C26.3877 29.8697 26.1599 29.706 26.0323 29.589C25.9046 29.472 25.7841 29.3763 25.7643 29.3763C25.7446 29.3763 25.5814 29.5167 25.4016 29.6883C25.2219 29.8599 24.8728 30.1848 24.6259 30.4104L24.177 30.8205L24.0539 30.6778C23.9066 30.5071 21.1857 27.122 20.9829 26.8572L20.8412 26.6722L23.0369 23.6993C24.2445 22.3101 25.6637 20.844 26.1906 20.264C27.0884 19.2756 27.1295 19.3723 27.5559 19.1558C28.145 18.8567 28.5445 18.895 29.0351 18.9295C30.3422 19.0216 30.8283 20.1259 30.3109 21.8286C30.1331 22.4139 29.6058 23.6666 29.3313 24.1562L29.1737 24.437L29.3475 24.5557C29.534 24.6832 30.0204 25.2162 30.1586 25.4447C30.2422 25.5829 30.2456 25.5791 30.5506 25.0104C31.4207 23.3886 31.9405 21.7697 31.9444 20.6697C31.9504 19.0007 31.0753 17.7815 29.6432 17.4635C29.1131 17.3458 28.0834 17.3027 27.5097 17.3742ZM27.1444 25.1908C26.6277 25.3722 26.2269 25.7569 26.0066 26.2828C25.8324 26.6987 25.846 27.397 26.037 27.8441C26.6845 29.3601 28.6591 29.3585 29.2953 27.8415C29.4637 27.4398 29.4594 26.663 29.2866 26.2778C28.8862 25.3853 27.9474 24.909 27.1444 25.1908Z" fill="black"/>
</svg>
