<svg xmlns="http://www.w3.org/2000/svg" width="40" height="40" viewBox="0 0 40 40" fill="none"><metadata><rdf:RDF xmlns:rdf="http://www.w3.org/1999/02/22-rdf-syntax-ns#" xmlns:dc="http://purl.org/dc/elements/1.1/"><rdf:Description><dc:creator>RealFaviconGenerator</dc:creator><dc:source>https://realfavicongenerator.net</dc:source></rdf:Description></rdf:RDF></metadata><rect width="40" height="40" rx="8" fill="#474747"></rect><path d="M21.4943 31V29.9085L22.2456 29.8022L25.6618 20.6806H27.3982L30.7719 29.8022L31.5231 29.9085V31H28.2416V29.9085L28.9787 29.7739L28.433 28.1508H24.5916L24.0317 29.7739L24.7758 29.9085V31H21.4943ZM25.0593 26.7829H27.9723L26.6328 22.9628L26.5406 22.6864H26.4981L26.3989 22.977L25.0593 26.7829ZM32.3737 31V29.9085L33.5006 29.6959V21.9918L32.3737 21.7792V20.6806H36.4064V21.7792L35.2866 21.9918V29.6959L36.4064 29.9085V31H32.3737Z" fill="#C7C7C7"></path><path d="M3.49867 32.4121L8.31939 22.1227L14.5 27L20.2798 16.5L23 20.5L30 9.5" stroke="#C60505" stroke-opacity="0.7" stroke-width="0.8" stroke-linecap="round"></path><path d="M3.09099 33V6M3.02061 6.5294L2.34099 8.64745M3.84099 8.64759L3.16137 6.52954" stroke="#6E6E6E" stroke-width="0.42"></path><path d="M3 32.75H37.5M36.8235 32.8204L34.1171 33.5M34.117 32L36.8234 32.6796" stroke="#6E6E6E" stroke-width="0.42"></path></svg>