<svg xmlns="http://www.w3.org/2000/svg" width="32" height="32" viewBox="0 0 32 32" fill="none"><metadata><rdf:RDF xmlns:rdf="http://www.w3.org/1999/02/22-rdf-syntax-ns#" xmlns:dc="http://purl.org/dc/elements/1.1/"><rdf:Description><dc:creator>RealFaviconGenerator</dc:creator><dc:source>https://realfavicongenerator.net</dc:source></rdf:Description></rdf:RDF></metadata><path fill-rule="evenodd" clip-rule="evenodd" d="M24.5727 1.44576C23.391 1.59312 22.1055 2.10974 19.8569 3.17046C19.2083 3.47642 19.2779 3.36643 14.4032 9.00311L10.9509 12.6857L10.9507 7.10501V1.83231H9.17082H6.89351V14.2551V26.678L7.12485 26.6242C8.11313 26.3942 9.98471 25.4886 10.9509 24.7729L10.9507 24.4302V21.6582V18.8863L11.4672 18.4162L12.0073 17.8566C12.3983 17.3974 12.9227 17.2182 12.9429 17.2203C13.0068 17.2272 16.8233 22.137 16.8233 22.2124C16.8233 22.2908 15.4812 23.4546 14.5099 24.2185C10.5067 27.3667 6.6354 29.0858 4.61805 28.6111C3.85662 28.432 3.26859 27.7602 3.12068 26.9005C2.90308 25.6361 3.68956 23.3755 5.30289 20.6279L5.61538 20.0957L5.59601 18.6445L5.57665 17.1933L4.86484 18.1852C2.8929 20.933 1.5492 23.6975 1.27444 25.5723C0.975908 27.6095 1.58636 29.2956 2.89589 30.0505C3.67283 30.4985 4.13886 30.6037 5.32752 30.5999C6.19294 30.5971 6.49589 30.562 7.20301 30.3825C10.3593 29.5813 13.9031 27.5177 17.5469 24.3591L18.1281 23.8553L19.5856 25.7095C20.3872 26.7293 21.1507 27.6969 21.2822 27.8599L21.5213 28.1562L24.422 28.1723C26.0173 28.1811 27.3146 28.1643 27.3048 28.1349C27.295 28.1056 25.9737 26.4392 24.3686 24.4318C22.7634 22.4245 21.4107 20.7216 21.3625 20.6476C21.2856 20.5296 21.3761 20.4223 22.1099 19.7632C23.1345 18.8428 23.7349 18.2514 23.6903 18.2063C23.6718 18.1876 23.4947 18.083 23.2965 17.9738C23.0984 17.8647 22.7991 17.6497 22.6314 17.4959C22.4636 17.3422 22.3052 17.2164 22.2792 17.2164C22.2533 17.2164 22.0389 17.401 21.8027 17.6264C21.5665 17.8519 21.1078 18.2789 20.7834 18.5752L20.1935 19.1141L20.0318 18.9266C19.8382 18.7023 16.263 14.2543 15.9965 13.9063L15.8103 13.6632L18.6955 9.75695C20.2823 7.93155 22.1471 6.00503 22.8394 5.24285C24.0191 3.94418 24.0732 4.07117 24.6334 3.78668C25.4075 3.39372 25.9325 3.44405 26.5771 3.48943C28.2946 3.61039 28.9333 5.06149 28.2535 7.29875C28.0198 8.06788 27.327 9.7139 26.9663 10.3572L26.7593 10.7262L26.9875 10.8822C27.2327 11.0497 27.8718 11.7501 28.0533 12.0503C28.1632 12.2319 28.1677 12.2269 28.5685 11.4796C29.7117 9.34859 30.3947 7.22136 30.3999 5.77596C30.4077 3.58298 29.2579 1.98092 27.3761 1.56305C26.6796 1.40835 25.3265 1.35174 24.5727 1.44576ZM24.0927 11.7167C23.4137 11.9551 22.8871 12.4606 22.5976 13.1517C22.3688 13.6982 22.3867 14.6157 22.6376 15.2032C23.4883 17.1952 26.083 17.1931 26.9189 15.1998C27.1403 14.6719 27.1346 13.6512 26.9075 13.145C26.3814 11.9723 25.1479 11.3464 24.0927 11.7167Z" fill="#4D2FE2"></path></svg>