<svg width="28" height="28" viewBox="0 0 28 28" fill="none" xmlns="http://www.w3.org/2000/svg">
<path fill-rule="evenodd" clip-rule="evenodd" d="M1.77032 10.9889C1.69827 11.2569 1.6755 12.7687 1.71978 14.3484C1.79977 17.1957 1.80729 17.2334 2.5721 18.7032C3.80412 21.0706 6.36923 23.1231 8.78565 23.6751C9.29128 23.7907 8.1073 23.8722 4.94445 23.9395C-0.404245 24.0535 -0.457085 24.0731 0.426149 25.6253C1.01052 26.6528 2.20327 27.5452 3.39017 27.8433C3.90416 27.9723 7.3124 28.0251 12.8085 27.9888C21.2422 27.9331 21.4391 27.923 22.2864 27.5004C23.2538 27.018 24.6105 25.646 24.7939 24.9647C25.0516 24.0065 24.7459 23.9405 19.9859 23.9263C16.7615 23.9168 15.7139 23.8595 16.0955 23.7136C17.9488 23.0053 18.8644 22.5017 19.8947 21.6237L21.0619 20.6287H22.6597C25.9031 20.6287 28 18.8497 28 16.098C28 15.067 27.8989 14.7139 27.3897 13.9649C26.7189 12.9787 25.4242 12.1658 24.1885 11.9551C23.6649 11.8659 23.403 11.7157 23.3986 11.5025C23.395 11.3268 23.2672 11.03 23.1145 10.8424C22.8568 10.5258 22.0937 10.5016 12.3693 10.5016H1.90148L1.77032 10.9889ZM3.0771 11.8C2.84966 12.0119 2.91879 15.4622 3.17255 16.5781C3.70387 18.9126 5.43065 20.9055 7.89656 22.0302C9.30255 22.6713 9.31947 22.6736 12.4406 22.6736H15.5733L16.9906 22.0105C19.3187 20.9213 21.1634 18.7741 21.7263 16.4982C21.8401 16.0386 21.9354 14.7644 21.9383 13.6664L21.9433 11.6701H12.5799C7.42978 11.6701 3.15354 11.7286 3.0771 11.8ZM23.4053 14.0348C23.4053 15.3268 22.9512 17.407 22.4575 18.3772C21.9907 19.2945 22.256 19.5144 23.6141 19.3364C24.6085 19.2059 25.2666 18.8559 26.1203 18.0029C26.5618 17.5618 26.6425 17.2934 26.6425 16.2647C26.6425 15.2273 26.5547 14.9408 26.0477 14.3207C25.4771 13.6233 25.0364 13.3729 23.9182 13.1113C23.4213 12.9948 23.4053 13.0239 23.4053 14.0348ZM1.68469 25.2929C1.68469 25.3945 2.02971 25.7233 2.45159 26.0232L3.2185 26.5687H12.3405C22.0947 26.5687 22.0592 26.572 22.8407 25.5829L23.2158 25.1081H12.4504C5.7974 25.1081 1.68469 25.1787 1.68469 25.2929Z" fill="white"/>
<path fill-rule="evenodd" clip-rule="evenodd" d="M14.9907 0.0677859C14.772 0.179251 14.5204 0.448543 14.1918 0.893906C13.7496 1.49296 13.4911 2.10682 13.4328 2.69537C13.3551 3.48119 13.4466 3.73437 14.1978 4.81174C15.1702 6.20617 15.255 6.84632 14.6038 7.87539C14.1872 8.53424 14.1803 8.60435 14.5034 8.90582C15.2291 9.58259 16.3043 8.14512 16.3043 6.49791C16.3043 5.67741 16.1784 5.34147 15.5733 4.54785C14.6571 3.34623 14.6063 2.45154 15.3912 1.34554C15.8421 0.71006 15.8935 0.519592 15.679 0.278489C15.587 0.175122 15.4987 0.100366 15.4099 0.0559651L14.9907 0.0677859Z" fill="white"/>
<path fill-rule="evenodd" clip-rule="evenodd" d="M9.89832 0.211394C9.85895 0.245422 9.81917 0.283562 9.77894 0.325814C9.06697 1.07386 8.57721 2.16097 8.59204 2.96081C8.60645 3.7406 8.7633 4.07227 9.71504 5.33699C10.2319 6.02388 10.2342 6.96629 9.72068 7.85553C9.34265 8.51028 9.33994 8.57007 9.67473 8.88226C10.0095 9.19445 10.0605 9.18724 10.5504 8.75801C11.7315 7.72329 11.766 5.96175 10.6342 4.49215C9.75722 3.35343 9.73321 2.52983 10.5444 1.39831C11.0316 0.71824 11.0903 0.519982 10.8754 0.278489C10.8454 0.24472 10.8152 0.21402 10.785 0.18639L9.89832 0.211394Z" fill="white"/>
<path fill-rule="evenodd" clip-rule="evenodd" d="M15.4099 0.0559651C15.2762 -0.0108855 15.1412 -0.00892774 14.9907 0.0677859L15.4099 0.0559651Z" fill="white"/>
<path fill-rule="evenodd" clip-rule="evenodd" d="M10.785 0.18639C10.5043 -0.0700511 10.2146 -0.0620288 9.89832 0.211394L10.785 0.18639Z" fill="white"/>
</svg>
