<svg xmlns="http://www.w3.org/2000/svg" version="1.1" xmlns:xlink="http://www.w3.org/1999/xlink" width="580" height="600"><svg xmlns="http://www.w3.org/2000/svg" version="1.1" xmlns:xlink="http://www.w3.org/1999/xlink" width="580" height="600"><svg width="580" height="600" viewBox="0 0 580 600" fill="none" xmlns="http://www.w3.org/2000/svg">
<path d="M547.625 14.932C546.873 6.25819 536.56 1.82885 528.619 6.76957L376.971 101.129C365.646 108.175 371.647 124.286 384.876 122.352L422.227 116.893C425.662 116.391 429.098 117.236 431.718 119.229L542.447 203.456C550.908 209.891 563.937 203.105 563.038 192.731L547.625 14.932Z" fill="#AE4000"></path>
<path d="M529.189 53.9748C529.01 50.8908 525.555 49.1481 522.954 50.8295L447.074 99.8731C444.46 101.563 444.668 105.44 447.448 106.843L528.548 147.753C531.328 149.156 534.589 147.028 534.409 143.929L529.189 53.9748Z" fill="black"></path>
<path d="M37.3317 10.0639C38.2001 1.40082 48.5721 -2.89054 56.4454 2.15566L206.812 98.5295C218.041 105.726 211.824 121.756 198.621 119.646L161.348 113.688C157.92 113.14 154.473 113.94 151.826 115.898L39.9747 198.639C31.4279 204.962 18.4912 198.003 19.5299 187.641L37.3317 10.0639Z" fill="#AE4000"></path>
<path d="M55.2415 49.349C55.4619 46.2677 58.9397 44.5713 61.5182 46.2872L136.731 96.3386C139.323 98.0632 139.063 101.937 136.264 103.303L54.6216 143.128C51.8226 144.493 48.591 142.322 48.8125 139.225L55.2415 49.349Z" fill="black"></path>
<path d="M290 176.483L275.422 190.469C275.513 190.562 275.605 190.655 275.697 190.747L290 176.483ZM155.133 470.14C146.505 463.063 133.754 464.297 126.653 472.897C119.553 481.496 120.791 494.208 129.419 501.286L155.133 470.14ZM29.4583 389.214C34.82 398.987 47.1141 402.577 56.9177 397.231C66.7216 391.885 70.3222 379.63 64.9603 369.858L29.4583 389.214ZM329.65 244.509C337.552 252.384 350.363 252.382 358.262 244.504C366.163 236.627 366.161 223.857 358.257 215.982L329.65 244.509ZM40.4651 274.271C40.4651 216.432 73.2518 167.929 118.006 147.536C161.485 127.725 219.905 132.972 275.422 190.469L304.578 162.497C238.704 94.2739 162.241 83.03 101.183 110.851C41.4015 138.09 0 201.341 0 274.271H40.4651ZM195.512 552.938C209.33 563.797 224.165 575.376 239.197 584.132C254.226 592.885 271.375 600 290 600V559.663C281.648 559.663 271.82 556.418 259.613 549.305C247.412 542.198 234.754 532.412 220.563 521.26L195.512 552.938ZM384.489 552.938C422.974 522.694 472.169 488.042 510.759 444.726C550.042 400.632 580 345.949 580 274.271H539.535C539.535 333.362 515.277 378.907 480.502 417.942C445.033 457.754 400.324 489.131 359.438 521.26L384.489 552.938ZM580 274.271C580 201.341 538.599 138.09 478.816 110.851C417.759 83.03 341.296 94.2739 275.422 162.497L304.578 190.469C360.094 132.972 418.515 127.725 461.993 147.536C506.747 167.929 539.535 216.432 539.535 274.271H580ZM359.438 521.26C345.246 532.412 332.588 542.198 320.387 549.305C308.18 556.418 298.352 559.663 290 559.663V600C308.625 600 325.774 592.885 340.803 584.132C355.837 575.376 370.669 563.797 384.489 552.938L359.438 521.26ZM220.563 521.26C199.092 504.389 177.272 488.303 155.133 470.14L129.419 501.286C151.816 519.66 175.476 537.193 195.512 552.938L220.563 521.26ZM64.9603 369.858C49.8207 342.265 40.4651 311.01 40.4651 274.271H0C0 318.305 11.3289 356.171 29.4583 389.214L64.9603 369.858ZM275.697 190.747L329.65 244.509L358.257 215.982L304.303 162.219L275.697 190.747Z" fill="#FF5D00"></path>
</svg></svg><style>@media (prefers-color-scheme: light) { :root { filter: none; } }
@media (prefers-color-scheme: dark) { :root { filter: none; } }
</style></svg>