<svg width="181" height="210" viewBox="0 0 181 210" fill="none" xmlns="http://www.w3.org/2000/svg">
<path d="M179.836 56.3605L91.738 0.360454L91.6961 0.341507C91.5583 0.261315 91.4127 0.195694 91.2615 0.145693C91.2136 0.128753 91.1694 0.10136 91.1207 0.0875934C90.715 -0.0291978 90.2849 -0.0291978 89.8792 0.0875934C89.8305 0.101267 89.7865 0.128753 89.7384 0.145693C89.5872 0.195694 89.4416 0.261315 89.3038 0.341507L89.262 0.360454L1.16368 56.3605C0.832343 56.5703 0.559395 56.8615 0.370429 57.2065C0.181463 57.5516 0.08267 57.9393 0.0833161 58.3334V151.667C0.0880782 151.81 0.105984 151.952 0.136802 152.092C0.146562 152.145 0.143316 152.198 0.156763 152.25C0.207325 152.446 0.283157 152.634 0.382317 152.81L0.386839 152.821C0.410602 152.863 0.446282 152.894 0.472317 152.934C0.549386 153.06 0.638328 153.178 0.737909 153.286C0.806088 153.35 0.878159 153.41 0.953704 153.465C1.02023 153.527 1.09034 153.586 1.16368 153.639L89.262 209.639C89.6325 209.875 90.0617 210 90.5 210C90.9382 210 91.3675 209.875 91.738 209.639L179.836 153.639C180.118 153.462 180.355 153.22 180.528 152.934C180.554 152.894 180.589 152.863 180.613 152.821L180.618 152.81C180.717 152.634 180.793 152.446 180.843 152.25C180.857 152.196 180.854 152.139 180.864 152.083C180.894 151.946 180.912 151.807 180.917 151.667V58.3334C180.917 57.9393 180.818 57.5516 180.63 57.2065C180.441 56.8615 180.168 56.5703 179.836 56.3605ZM4.72007 60.6667H9.35682C9.90014 60.6693 10.427 60.4789 10.8445 60.129C11.262 59.779 11.5434 59.292 11.6391 58.7537C11.7349 58.2155 11.6388 57.6604 11.3679 57.1865C11.0969 56.7125 10.6685 56.3499 10.158 56.1627L83.581 9.49114L4.72007 143.167V60.6667ZM90.5 204.907L10.4141 154H57.4095C57.4506 154.307 57.5508 154.603 57.7044 154.871L60.1058 159.054C60.2531 159.318 60.4515 159.549 60.6894 159.733C60.9272 159.918 61.1995 160.053 61.4902 160.129C61.7808 160.206 62.0838 160.223 62.3811 160.179C62.6784 160.136 62.9639 160.032 63.2206 159.875C63.7422 159.547 64.1166 159.027 64.2648 158.426C64.4129 157.825 64.3232 157.19 64.0145 156.654L62.4908 154H118.509L116.985 156.654C116.677 157.19 116.587 157.825 116.735 158.426C116.883 159.027 117.258 159.547 117.779 159.875C118.036 160.033 118.322 160.136 118.619 160.18C118.916 160.223 119.219 160.206 119.51 160.13C119.8 160.053 120.073 159.919 120.311 159.734C120.548 159.549 120.747 159.318 120.894 159.054L123.296 154.872C123.449 154.603 123.549 154.307 123.591 154H170.586L90.5 204.907ZM6.47441 149.333L30.8259 108.056L31.2886 108.862C31.4358 109.125 31.6343 109.356 31.8721 109.541C32.1099 109.726 32.3823 109.861 32.6729 109.937C32.9635 110.014 33.2665 110.031 33.5638 109.987C33.8611 109.943 34.1466 109.84 34.4033 109.683C34.9249 109.355 35.2994 108.835 35.4475 108.234C35.5956 107.633 35.5059 106.997 35.1973 106.462L33.505 103.514L59.0533 60.2083C59.4308 60.4951 59.8882 60.6554 60.3611 60.6667H64.9978C65.6127 60.6667 66.2024 60.4209 66.6372 59.9833C67.072 59.5457 67.3162 58.9522 67.3162 58.3334C67.3162 57.7145 67.072 57.121 66.6372 56.6834C66.2024 56.2459 65.6127 56 64.9978 56H61.5358L90.5 6.90359L119.464 56H116.002C115.387 56 114.798 56.2459 114.363 56.6834C113.928 57.121 113.684 57.7145 113.684 58.3334C113.684 58.9522 113.928 59.5457 114.363 59.9833C114.798 60.4209 115.387 60.6667 116.002 60.6667H120.639C121.112 60.6554 121.569 60.495 121.947 60.2081L147.495 103.514L145.803 106.462C145.494 106.998 145.404 107.633 145.552 108.234C145.701 108.835 146.075 109.355 146.597 109.683C146.853 109.84 147.139 109.944 147.436 109.987C147.733 110.031 148.036 110.014 148.327 109.937C148.618 109.861 148.89 109.726 149.128 109.541C149.366 109.357 149.564 109.126 149.711 108.862L150.174 108.056L174.526 149.333H6.47441ZM176.28 143.167L97.419 9.49114L170.842 56.1627C170.332 56.3499 169.903 56.7125 169.632 57.1864C169.361 57.6604 169.265 58.2154 169.361 58.7537C169.457 59.292 169.738 59.779 170.156 60.1289C170.573 60.4789 171.1 60.6693 171.643 60.6667H176.28V143.167Z" fill="black"/>
<path d="M42.4016 119.01C42.2543 118.746 42.0559 118.515 41.8181 118.33C41.5802 118.146 41.3079 118.011 41.0172 117.934C40.7266 117.858 40.4236 117.841 40.1264 117.884C39.8291 117.928 39.5436 118.032 39.2868 118.189C38.7652 118.517 38.3908 119.037 38.2427 119.638C38.0945 120.239 38.1842 120.874 38.4929 121.41L40.8943 125.593C41.0416 125.856 41.24 126.087 41.4779 126.272C41.7157 126.457 41.988 126.591 42.2787 126.668C42.5693 126.745 42.8723 126.762 43.1696 126.718C43.4669 126.674 43.7523 126.571 44.0091 126.414C44.5307 126.085 44.9051 125.566 45.0532 124.965C45.2014 124.364 45.1117 123.728 44.8031 123.192L42.4016 119.01Z" fill="black"/>
<path d="M80.8245 185.933C80.6772 185.669 80.4788 185.438 80.2409 185.253C80.0031 185.069 79.7308 184.934 79.4401 184.857C79.1495 184.781 78.8465 184.764 78.5492 184.807C78.252 184.851 77.9664 184.955 77.7097 185.112C77.1881 185.44 76.8137 185.96 76.6655 186.561C76.5174 187.162 76.6071 187.797 76.9157 188.333L79.3172 192.516C79.4644 192.779 79.6629 193.01 79.9007 193.195C80.1386 193.38 80.4109 193.514 80.7016 193.591C80.9922 193.668 81.2952 193.685 81.5924 193.641C81.8897 193.597 82.1752 193.494 82.4319 193.337C82.9536 193.008 83.328 192.489 83.4762 191.888C83.6243 191.287 83.5346 190.651 83.2259 190.115L80.8245 185.933Z" fill="black"/>
<path d="M13.5845 68.8176C13.4372 68.554 13.2388 68.323 13.0009 68.1382C12.7631 67.9534 12.4908 67.8187 12.2001 67.7421C11.9095 67.6655 11.6065 67.6485 11.3092 67.6922C11.0119 67.7359 10.7264 67.8393 10.4696 67.9964C9.94802 68.3248 9.57361 68.8444 9.42547 69.4455C9.27733 70.0465 9.36704 70.682 9.67567 71.2177L12.0771 75.4004C12.2244 75.664 12.4228 75.895 12.6606 76.0798C12.8985 76.2645 13.1708 76.3992 13.4615 76.4758C13.7521 76.5525 14.0551 76.5694 14.3524 76.5257C14.6496 76.482 14.9352 76.3785 15.1919 76.2215C15.7135 75.8931 16.0879 75.3735 16.2361 74.7725C16.3842 74.1714 16.2945 73.536 15.9858 73.0003L13.5845 68.8176Z" fill="black"/>
<path d="M52.0074 135.741C51.8601 135.477 51.6617 135.246 51.4238 135.061C51.186 134.876 50.9137 134.742 50.623 134.665C50.3324 134.588 50.0294 134.571 49.7321 134.615C49.4348 134.659 49.1493 134.762 48.8926 134.919C48.371 135.248 47.9966 135.767 47.8484 136.368C47.7003 136.969 47.79 137.605 48.0986 138.141L50.5001 142.323C50.6473 142.587 50.8458 142.818 51.0836 143.003C51.3214 143.187 51.5938 143.322 51.8844 143.399C52.175 143.475 52.478 143.492 52.7753 143.449C53.0726 143.405 53.3581 143.302 53.6148 143.144C54.1365 142.816 54.5108 142.296 54.659 141.695C54.8071 141.094 54.7174 140.459 54.4088 139.923L52.0074 135.741Z" fill="black"/>
<path d="M71.2189 169.202C71.0716 168.938 70.8731 168.707 70.6353 168.523C70.3974 168.338 70.1251 168.203 69.8344 168.127C69.5438 168.05 69.2408 168.033 68.9435 168.077C68.6462 168.12 68.3607 168.224 68.104 168.381C67.5823 168.709 67.2079 169.229 67.0598 169.83C66.9116 170.431 67.0013 171.066 67.31 171.602L69.7114 175.785C69.8587 176.048 70.0572 176.279 70.295 176.464C70.5329 176.649 70.8052 176.784 71.0959 176.86C71.3865 176.937 71.6895 176.954 71.9868 176.91C72.2841 176.866 72.5696 176.763 72.8263 176.606C73.3479 176.277 73.7223 175.758 73.8705 175.157C74.0186 174.556 73.9289 173.92 73.6203 173.385L71.2189 169.202Z" fill="black"/>
<path d="M23.1902 85.5484C23.043 85.2848 22.8445 85.0537 22.6067 84.869C22.3688 84.6842 22.0965 84.5495 21.8058 84.4729C21.5152 84.3963 21.2122 84.3793 20.9149 84.423C20.6176 84.4667 20.3321 84.5702 20.0753 84.7272C19.5537 85.0556 19.1793 85.5752 19.0311 86.1762C18.883 86.7772 18.9727 87.4127 19.2814 87.9484L21.6828 92.1311C21.8301 92.3947 22.0286 92.6257 22.2664 92.8105C22.5042 92.9952 22.7766 93.1299 23.0672 93.2065C23.3579 93.2831 23.6609 93.3001 23.9582 93.2564C24.2555 93.2127 24.541 93.1092 24.7977 92.9521C25.3193 92.6237 25.6938 92.1042 25.8419 91.5032C25.9901 90.9021 25.9003 90.2667 25.5917 89.731L23.1902 85.5484Z" fill="black"/>
<path d="M141.713 118.189C141.456 118.032 141.171 117.928 140.874 117.885C140.576 117.841 140.273 117.858 139.983 117.935C139.692 118.011 139.42 118.146 139.182 118.331C138.944 118.515 138.746 118.746 138.598 119.01L136.197 123.193C135.888 123.728 135.799 124.364 135.947 124.965C136.095 125.566 136.469 126.086 136.991 126.414C137.248 126.571 137.533 126.674 137.83 126.718C138.128 126.762 138.431 126.745 138.721 126.668C139.012 126.592 139.284 126.457 139.522 126.272C139.76 126.088 139.958 125.856 140.106 125.593L142.507 121.41C142.816 120.874 142.905 120.239 142.757 119.638C142.609 119.037 142.235 118.517 141.713 118.189Z" fill="black"/>
<path d="M103.29 185.112C103.034 184.955 102.748 184.851 102.451 184.808C102.153 184.764 101.85 184.781 101.56 184.858C101.269 184.934 100.997 185.069 100.759 185.254C100.521 185.438 100.323 185.669 100.175 185.933L97.774 190.116C97.4654 190.651 97.3756 191.287 97.5238 191.888C97.6719 192.489 98.0463 193.009 98.5679 193.337C98.8246 193.494 99.1101 193.597 99.4074 193.641C99.7047 193.685 100.008 193.668 100.298 193.591C100.589 193.515 100.861 193.38 101.099 193.195C101.337 193.01 101.535 192.779 101.683 192.516L104.084 188.333C104.393 187.797 104.482 187.162 104.334 186.561C104.186 185.96 103.812 185.44 103.29 185.112Z" fill="black"/>
<path d="M160.925 84.7275C160.668 84.5704 160.382 84.467 160.085 84.4233C159.788 84.3796 159.485 84.3966 159.194 84.4732C158.903 84.5498 158.631 84.6845 158.393 84.8693C158.155 85.0541 157.957 85.2851 157.81 85.5487L155.408 89.7313C155.1 90.267 155.01 90.9024 155.158 91.5034C155.306 92.1045 155.681 92.624 156.202 92.9524C156.459 93.1095 156.744 93.213 157.042 93.2567C157.339 93.3004 157.642 93.2834 157.933 93.2068C158.223 93.1302 158.496 92.9955 158.733 92.8108C158.971 92.626 159.17 92.395 159.317 92.1314L161.718 87.9487C162.027 87.413 162.117 86.7775 161.969 86.1765C161.821 85.5755 161.446 85.0559 160.925 84.7275Z" fill="black"/>
<path d="M170.53 67.9968C170.274 67.8397 169.988 67.7363 169.691 67.6926C169.394 67.6488 169.091 67.6658 168.8 67.7424C168.509 67.819 168.237 67.9537 167.999 68.1385C167.761 68.3232 167.563 68.5543 167.416 68.8178L165.014 73.0007C164.705 73.5364 164.616 74.1718 164.764 74.7729C164.912 75.3739 165.286 75.8935 165.808 76.2218C166.065 76.3789 166.35 76.4824 166.647 76.5261C166.945 76.5698 167.248 76.5528 167.538 76.4762C167.829 76.3996 168.101 76.265 168.339 76.0802C168.577 75.8954 168.775 75.6644 168.923 75.4008L171.324 71.218C171.633 70.6823 171.723 70.0469 171.574 69.4458C171.426 68.8448 171.052 68.3252 170.53 67.9968Z" fill="black"/>
<path d="M112.896 168.381C112.639 168.224 112.354 168.121 112.056 168.077C111.759 168.033 111.456 168.05 111.166 168.127C110.875 168.203 110.603 168.338 110.365 168.523C110.127 168.708 109.928 168.939 109.781 169.202L107.38 173.385C107.071 173.921 106.981 174.556 107.129 175.157C107.278 175.758 107.652 176.278 108.174 176.606C108.43 176.763 108.716 176.867 109.013 176.91C109.31 176.954 109.613 176.937 109.904 176.861C110.195 176.784 110.467 176.649 110.705 176.464C110.943 176.28 111.141 176.049 111.289 175.785L113.69 171.602C113.999 171.067 114.088 170.431 113.94 169.83C113.792 169.229 113.418 168.71 112.896 168.381Z" fill="black"/>
<path d="M132.107 134.92C131.851 134.763 131.565 134.659 131.268 134.615C130.971 134.572 130.668 134.589 130.377 134.665C130.086 134.742 129.814 134.877 129.576 135.061C129.338 135.246 129.14 135.477 128.993 135.741L126.591 139.923C126.283 140.459 126.193 141.095 126.341 141.696C126.489 142.297 126.864 142.816 127.385 143.145C127.642 143.302 127.927 143.405 128.225 143.449C128.522 143.493 128.825 143.476 129.116 143.399C129.406 143.322 129.679 143.188 129.916 143.003C130.154 142.818 130.353 142.587 130.5 142.324L132.901 138.141C133.21 137.605 133.3 136.97 133.152 136.369C133.003 135.768 132.629 135.248 132.107 134.92Z" fill="black"/>
<path d="M27.9038 56H23.2671C22.6522 56 22.0625 56.2459 21.6277 56.6834C21.193 57.121 20.9487 57.7145 20.9487 58.3334C20.9487 58.9522 21.193 59.5457 21.6277 59.9833C22.0625 60.4209 22.6522 60.6667 23.2671 60.6667H27.9038C28.5187 60.6667 29.1084 60.4209 29.5432 59.9833C29.9779 59.5457 30.2222 58.9522 30.2222 58.3334C30.2222 57.7145 29.9779 57.121 29.5432 56.6834C29.1084 56.2459 28.5187 56 27.9038 56Z" fill="black"/>
<path d="M102.092 56H97.4551C96.8402 56 96.2505 56.2459 95.8158 56.6834C95.381 57.121 95.1367 57.7145 95.1367 58.3334C95.1367 58.9522 95.381 59.5457 95.8158 59.9833C96.2505 60.4209 96.8402 60.6667 97.4551 60.6667H102.092C102.707 60.6667 103.296 60.4209 103.731 59.9833C104.166 59.5457 104.41 58.9522 104.41 58.3334C104.41 57.7145 104.166 57.121 103.731 56.6834C103.296 56.2459 102.707 56 102.092 56Z" fill="black"/>
<path d="M160.051 58.3334C160.051 57.7145 159.807 57.121 159.372 56.6834C158.937 56.2459 158.348 56 157.733 56H153.096C152.481 56 151.892 56.2459 151.457 56.6834C151.022 57.121 150.778 57.7145 150.778 58.3334C150.778 58.9522 151.022 59.5457 151.457 59.9833C151.892 60.4209 152.481 60.6667 153.096 60.6667H157.733C158.348 60.6667 158.937 60.4209 159.372 59.9833C159.807 59.5457 160.051 58.9522 160.051 58.3334Z" fill="black"/>
<path d="M46.4508 56H41.8141C41.1992 56 40.6095 56.2459 40.1747 56.6834C39.74 57.121 39.4957 57.7145 39.4957 58.3334C39.4957 58.9522 39.74 59.5457 40.1747 59.9833C40.6095 60.4209 41.1992 60.6667 41.8141 60.6667H46.4508C47.0657 60.6667 47.6554 60.4209 48.0902 59.9833C48.525 59.5457 48.7692 58.9522 48.7692 58.3334C48.7692 57.7145 48.525 57.121 48.0902 56.6834C47.6554 56.2459 47.0657 56 46.4508 56Z" fill="black"/>
<path d="M83.5448 56H78.9081C78.2932 56 77.7035 56.2459 77.2688 56.6834C76.834 57.121 76.5897 57.7145 76.5897 58.3334C76.5897 58.9522 76.834 59.5457 77.2688 59.9833C77.7035 60.4209 78.2932 60.6667 78.9081 60.6667H83.5448C84.1597 60.6667 84.7494 60.4209 85.1842 59.9833C85.619 59.5457 85.8632 58.9522 85.8632 58.3334C85.8632 57.7145 85.619 57.121 85.1842 56.6834C84.7494 56.2459 84.1597 56 83.5448 56Z" fill="black"/>
<path d="M139.186 56H134.549C133.934 56 133.345 56.2459 132.91 56.6834C132.475 57.121 132.231 57.7145 132.231 58.3334C132.231 58.9522 132.475 59.5457 132.91 59.9833C133.345 60.4209 133.934 60.6667 134.549 60.6667H139.186C139.801 60.6667 140.39 60.4209 140.825 59.9833C141.26 59.5457 141.504 58.9522 141.504 58.3334C141.504 57.7145 141.26 57.121 140.825 56.6834C140.39 56.2459 139.801 56 139.186 56Z" fill="black"/>
</svg>
